M48
; DRILL file {KiCad 8.0.1} date 2024-12-08T15:20:13+0900
; FORMAT={-:-/ absolute / inch / decimal}
; #@! TF.CreationDate,2024-12-08T15:20:13+09:00
; #@! TF.GenerationSoftware,Kicad,Pcbnew,8.0.1
; #@! TF.FileFunction,Plated,1,2,PTH
FMAT,2
INCH
; #@! TA.AperFunction,Plated,PTH,ViaDrill
T1C0.0118
; #@! TA.AperFunction,Plated,PTH,ComponentDrill
T2C0.0236
; #@! TA.AperFunction,Plated,PTH,ComponentDrill
T3C0.0276
; #@! TA.AperFunction,Plated,PTH,ComponentDrill
T4C0.0591
%
G90
G05
T1
X2.9882Y-3.3543
X3.0703Y-3.8701
X3.1043Y-3.6398
X3.1654Y-4.0236
X3.2736Y-3.3976
X3.3091Y-4.126
X3.3228Y-3.7972
X3.3268Y-3.6791
X3.3484Y-3.2126
X3.4252Y-3.5335
X3.4665Y-3.937
X3.4685Y-4.0413
X3.4961Y-3.8799
X3.5394Y-3.685
X3.5394Y-3.7933
X3.5413Y-3.1791
X3.5433Y-4.0157
X3.6654Y-4.1417
X3.7047Y-3.5354
X3.7091Y-3.0945
X3.7146Y-3.1732
X3.7244Y-4.0394
X3.7283Y-2.9429
X3.7402Y-3.7854
X3.7498Y-3.8332
X3.752Y-3.124
X3.7579Y-3.6811
X3.8465Y-3.2008
X3.858Y-3.8883
X3.8858Y-3.937
X3.8929Y-3.7528
X3.937Y-3.8748
X4.0Y-3.8543
X4.0118Y-3.4508
X4.0669Y-3.8839
X4.0866Y-3.2382
T2
X3.1654Y-3.2874
X3.1654Y-3.7205
X3.1988Y-3.3268
X3.1988Y-3.6811
X3.2323Y-3.2874
X3.2323Y-3.7205
X3.2657Y-3.3268
X3.2657Y-3.6811
X3.2992Y-3.2874
X3.2992Y-3.7205
X3.3622Y-3.2874
X3.3622Y-3.7205
X3.3957Y-3.3268
X3.3957Y-3.6811
X3.4291Y-3.2874
X3.4291Y-3.7205
X3.4626Y-3.3268
X3.4626Y-3.6811
X3.4961Y-3.2874
X3.4961Y-3.7205
X3.5906Y-3.2874
X3.5906Y-3.7205
X3.624Y-3.3268
X3.624Y-3.6811
X3.6575Y-3.2874
X3.6575Y-3.7205
X3.6909Y-3.3268
X3.6909Y-3.6811
X3.7244Y-3.2874
X3.7244Y-3.7205
X3.7874Y-3.2874
X3.7874Y-3.7205
X3.8209Y-3.3268
X3.8209Y-3.6811
X3.8543Y-3.2874
X3.8543Y-3.7205
X3.8878Y-3.3268
X3.8878Y-3.6811
X3.9213Y-3.2874
X3.9213Y-3.7205
T3
X3.0571Y-3.2106
X3.1398Y-3.1083
X3.2343Y-3.0079
X3.4508Y-4.1594
X3.5591Y-4.1594
T4
X3.1417Y-3.5394
X3.9331Y-3.5394
M30
