%TF.GenerationSoftware,KiCad,Pcbnew,8.0.1*%
%TF.CreationDate,2024-12-08T15:20:24+09:00*%
%TF.ProjectId,watch,77617463-682e-46b6-9963-61645f706362,rev?*%
%TF.SameCoordinates,Original*%
%TF.FileFunction,Copper,L1,Top*%
%TF.FilePolarity,Positive*%
%FSLAX46Y46*%
G04 Gerber Fmt 4.6, Leading zero omitted, Abs format (unit mm)*
G04 Created by KiCad (PCBNEW 8.0.1) date 2024-12-08 15:20:24*
%MOMM*%
%LPD*%
G01*
G04 APERTURE LIST*
G04 Aperture macros list*
%AMRoundRect*
0 Rectangle with rounded corners*
0 $1 Rounding radius*
0 $2 $3 $4 $5 $6 $7 $8 $9 X,Y pos of 4 corners*
0 Add a 4 corners polygon primitive as box body*
4,1,4,$2,$3,$4,$5,$6,$7,$8,$9,$2,$3,0*
0 Add four circle primitives for the rounded corners*
1,1,$1+$1,$2,$3*
1,1,$1+$1,$4,$5*
1,1,$1+$1,$6,$7*
1,1,$1+$1,$8,$9*
0 Add four rect primitives between the rounded corners*
20,1,$1+$1,$2,$3,$4,$5,0*
20,1,$1+$1,$4,$5,$6,$7,0*
20,1,$1+$1,$6,$7,$8,$9,0*
20,1,$1+$1,$8,$9,$2,$3,0*%
G04 Aperture macros list end*
%TA.AperFunction,SMDPad,CuDef*%
%ADD10RoundRect,0.200000X-0.200000X-0.275000X0.200000X-0.275000X0.200000X0.275000X-0.200000X0.275000X0*%
%TD*%
%TA.AperFunction,SMDPad,CuDef*%
%ADD11RoundRect,0.225000X-0.225000X-0.250000X0.225000X-0.250000X0.225000X0.250000X-0.225000X0.250000X0*%
%TD*%
%TA.AperFunction,SMDPad,CuDef*%
%ADD12RoundRect,0.037100X-0.447900X-0.227900X0.447900X-0.227900X0.447900X0.227900X-0.447900X0.227900X0*%
%TD*%
%TA.AperFunction,SMDPad,CuDef*%
%ADD13RoundRect,0.037100X0.447900X0.227900X-0.447900X0.227900X-0.447900X-0.227900X0.447900X-0.227900X0*%
%TD*%
%TA.AperFunction,SMDPad,CuDef*%
%ADD14RoundRect,0.100000X0.100000X-0.125000X0.100000X0.125000X-0.100000X0.125000X-0.100000X-0.125000X0*%
%TD*%
%TA.AperFunction,ComponentPad*%
%ADD15R,0.900000X0.900000*%
%TD*%
%TA.AperFunction,ComponentPad*%
%ADD16C,0.900000*%
%TD*%
%TA.AperFunction,SMDPad,CuDef*%
%ADD17R,1.050000X0.650000*%
%TD*%
%TA.AperFunction,SMDPad,CuDef*%
%ADD18RoundRect,0.200000X0.200000X0.250000X-0.200000X0.250000X-0.200000X-0.250000X0.200000X-0.250000X0*%
%TD*%
%TA.AperFunction,SMDPad,CuDef*%
%ADD19R,0.650000X1.050000*%
%TD*%
%TA.AperFunction,SMDPad,CuDef*%
%ADD20RoundRect,0.200000X-0.275000X0.200000X-0.275000X-0.200000X0.275000X-0.200000X0.275000X0.200000X0*%
%TD*%
%TA.AperFunction,SMDPad,CuDef*%
%ADD21RoundRect,0.100000X0.637500X0.100000X-0.637500X0.100000X-0.637500X-0.100000X0.637500X-0.100000X0*%
%TD*%
%TA.AperFunction,SMDPad,CuDef*%
%ADD22R,1.800000X1.000000*%
%TD*%
%TA.AperFunction,SMDPad,CuDef*%
%ADD23RoundRect,0.037100X-0.227900X0.447900X-0.227900X-0.447900X0.227900X-0.447900X0.227900X0.447900X0*%
%TD*%
%TA.AperFunction,SMDPad,CuDef*%
%ADD24RoundRect,0.037100X0.227900X-0.447900X0.227900X0.447900X-0.227900X0.447900X-0.227900X-0.447900X0*%
%TD*%
%TA.AperFunction,ComponentPad*%
%ADD25R,2.000000X2.000000*%
%TD*%
%TA.AperFunction,ComponentPad*%
%ADD26O,2.200000X2.200000*%
%TD*%
%TA.AperFunction,ComponentPad*%
%ADD27C,1.100000*%
%TD*%
%TA.AperFunction,ViaPad*%
%ADD28C,0.600000*%
%TD*%
%TA.AperFunction,Conductor*%
%ADD29C,0.200000*%
%TD*%
G04 APERTURE END LIST*
D10*
%TO.P,R3,1*%
%TO.N,VDD*%
X83475000Y-80000000D03*
%TO.P,R3,2*%
%TO.N,Net-(U1-NRST)*%
X85125000Y-80000000D03*
%TD*%
D11*
%TO.P,C1,1*%
%TO.N,Net-(U1-PC15)*%
X97125000Y-101350000D03*
%TO.P,C1,2*%
%TO.N,GND*%
X98675000Y-101350000D03*
%TD*%
%TO.P,C3,1*%
%TO.N,Net-(U1-PC14)*%
X97125000Y-103250000D03*
%TO.P,C3,2*%
%TO.N,GND*%
X98675000Y-103250000D03*
%TD*%
D10*
%TO.P,R5,1*%
%TO.N,Net-(U1-PA1)*%
X76175000Y-96000000D03*
%TO.P,R5,2*%
%TO.N,Net-(R5-Pad2)*%
X77825000Y-96000000D03*
%TD*%
D12*
%TO.P,RN1,1*%
%TO.N,Net-(U2-B)*%
X96825000Y-76700001D03*
%TO.P,RN1,2*%
%TO.N,Net-(U2-A)*%
X96825001Y-77499999D03*
%TO.P,RN1,3*%
%TO.N,Net-(U2-F)*%
X96825000Y-78300000D03*
%TO.P,RN1,4*%
%TO.N,Net-(U2-G)*%
X96825000Y-79099999D03*
D13*
%TO.P,RN1,5*%
%TO.N,Net-(U1-PA3)*%
X98575000Y-79099999D03*
%TO.P,RN1,6*%
%TO.N,Net-(U1-PA2)*%
X98574999Y-78300001D03*
%TO.P,RN1,7*%
%TO.N,Net-(U1-PA1)*%
X98575000Y-77500000D03*
%TO.P,RN1,8*%
%TO.N,Net-(U1-PA0)*%
X98575000Y-76700001D03*
%TD*%
D14*
%TO.P,Q4,1,B*%
%TO.N,Net-(D1-A)*%
X97500000Y-96875000D03*
%TO.P,Q4,2,E*%
%TO.N,GND*%
X98300000Y-96875000D03*
%TO.P,Q4,3,C*%
%TO.N,Net-(Q4-C)*%
X97900000Y-95725000D03*
%TD*%
D11*
%TO.P,C2,1*%
%TO.N,VDD*%
X81925000Y-102950000D03*
%TO.P,C2,2*%
%TO.N,GND*%
X83475000Y-102950000D03*
%TD*%
D15*
%TO.P,U4,1,E*%
%TO.N,Net-(U2-E)*%
X91200000Y-94500000D03*
D16*
%TO.P,U4,2,D*%
%TO.N,Net-(U2-D)*%
X92050000Y-93500000D03*
%TO.P,U4,3,CC*%
%TO.N,Net-(Q3-C)*%
X92900000Y-94500000D03*
%TO.P,U4,4,C*%
%TO.N,Net-(U2-C)*%
X93750000Y-93500000D03*
%TO.P,U4,5,DP*%
%TO.N,unconnected-(U4-DP-Pad5)*%
X94600000Y-94500000D03*
%TO.P,U4,6,B*%
%TO.N,Net-(U2-B)*%
X94600000Y-83500000D03*
%TO.P,U4,7,A*%
%TO.N,Net-(U2-A)*%
X93750000Y-84500000D03*
%TO.P,U4,8,CC*%
%TO.N,unconnected-(U4-CC-Pad8)*%
X92900000Y-83500000D03*
%TO.P,U4,9,F*%
%TO.N,Net-(U2-F)*%
X92050000Y-84500000D03*
%TO.P,U4,10,G*%
%TO.N,Net-(U2-G)*%
X91200000Y-83500000D03*
%TD*%
D17*
%TO.P,S4,1*%
%TO.N,Net-(U1-NRST)*%
X87925000Y-73925000D03*
%TO.P,S4,2*%
X92075000Y-73925000D03*
%TO.P,S4,3*%
%TO.N,GND*%
X87925000Y-76075000D03*
%TO.P,S4,4*%
X92075000Y-76075000D03*
%TD*%
D14*
%TO.P,Q2,1,B*%
%TO.N,Net-(Q2-B)*%
X86700000Y-96875000D03*
%TO.P,Q2,2,E*%
%TO.N,GND*%
X87500000Y-96875000D03*
%TO.P,Q2,3,C*%
%TO.N,Net-(Q2-C)*%
X87100000Y-95725000D03*
%TD*%
%TO.P,Q1,1,B*%
%TO.N,Net-(Q1-B)*%
X81700000Y-96875000D03*
%TO.P,Q1,2,E*%
%TO.N,GND*%
X82500000Y-96875000D03*
%TO.P,Q1,3,C*%
%TO.N,Net-(Q1-C)*%
X82100000Y-95725000D03*
%TD*%
D18*
%TO.P,D1,1,K*%
%TO.N,Net-(D1-K)*%
X103850000Y-96600000D03*
%TO.P,D1,2,A*%
%TO.N,Net-(D1-A)*%
X101650000Y-96600000D03*
%TD*%
D19*
%TO.P,S2,1*%
%TO.N,Net-(D1-K)*%
X73925000Y-92075000D03*
%TO.P,S2,2*%
X73925000Y-87925000D03*
%TO.P,S2,3*%
%TO.N,Net-(R5-Pad2)*%
X76075000Y-92075000D03*
%TO.P,S2,4*%
X76075000Y-87925000D03*
%TD*%
D20*
%TO.P,R4,1*%
%TO.N,Net-(U1-PB9)*%
X101150000Y-99175000D03*
%TO.P,R4,2*%
%TO.N,GND*%
X101150000Y-100825000D03*
%TD*%
D21*
%TO.P,U1,1,PB9*%
%TO.N,Net-(U1-PB9)*%
X91725000Y-103925000D03*
%TO.P,U1,2,PC14*%
%TO.N,Net-(U1-PC14)*%
X91725000Y-103275000D03*
%TO.P,U1,3,PC15*%
%TO.N,Net-(U1-PC15)*%
X91725000Y-102625000D03*
%TO.P,U1,4,NRST*%
%TO.N,Net-(U1-NRST)*%
X91725000Y-101975000D03*
%TO.P,U1,5,VDDA*%
%TO.N,VDD*%
X91725000Y-101325000D03*
%TO.P,U1,6,PA0*%
%TO.N,Net-(U1-PA0)*%
X91725000Y-100675000D03*
%TO.P,U1,7,PA1*%
%TO.N,Net-(U1-PA1)*%
X91725000Y-100025000D03*
%TO.P,U1,8,PA2*%
%TO.N,Net-(U1-PA2)*%
X91725000Y-99375000D03*
%TO.P,U1,9,PA3*%
%TO.N,Net-(U1-PA3)*%
X91725000Y-98725000D03*
%TO.P,U1,10,PA4*%
%TO.N,Net-(D1-A)*%
X91725000Y-98075000D03*
%TO.P,U1,11,PA5*%
%TO.N,Net-(Q3-B)*%
X86000000Y-98075000D03*
%TO.P,U1,12,PA6*%
%TO.N,Net-(Q2-B)*%
X86000000Y-98725000D03*
%TO.P,U1,13,PA7*%
%TO.N,Net-(Q1-B)*%
X86000000Y-99375000D03*
%TO.P,U1,14,PB1*%
%TO.N,Net-(U1-PB1)*%
X86000000Y-100025000D03*
%TO.P,U1,15,VSS*%
%TO.N,GND*%
X86000000Y-100675000D03*
%TO.P,U1,16,VDD*%
%TO.N,VDD*%
X86000000Y-101325000D03*
%TO.P,U1,17,PA9*%
%TO.N,Net-(U1-PA9)*%
X86000000Y-101975000D03*
%TO.P,U1,18,PA10*%
%TO.N,Net-(U1-PA10)*%
X86000000Y-102625000D03*
%TO.P,U1,19,PA13/SWDIO*%
%TO.N,Net-(U1-PA13{slash}SWDIO)*%
X86000000Y-103275000D03*
%TO.P,U1,20,PA14/SWCLK*%
%TO.N,Net-(U1-PA14{slash}SWCLK)*%
X86000000Y-103925000D03*
%TD*%
D19*
%TO.P,S1,1*%
%TO.N,Net-(R1-Pad2)*%
X103925000Y-92075000D03*
%TO.P,S1,2*%
X103925000Y-87925000D03*
%TO.P,S1,3*%
%TO.N,Net-(D1-K)*%
X106075000Y-92075000D03*
%TO.P,S1,4*%
X106075000Y-87925000D03*
%TD*%
D15*
%TO.P,U5,1,E*%
%TO.N,Net-(U2-E)*%
X96200000Y-94500000D03*
D16*
%TO.P,U5,2,D*%
%TO.N,Net-(U2-D)*%
X97050000Y-93500000D03*
%TO.P,U5,3,CC*%
%TO.N,Net-(Q4-C)*%
X97900000Y-94500000D03*
%TO.P,U5,4,C*%
%TO.N,Net-(U2-C)*%
X98750000Y-93500000D03*
%TO.P,U5,5,DP*%
%TO.N,unconnected-(U5-DP-Pad5)*%
X99600000Y-94500000D03*
%TO.P,U5,6,B*%
%TO.N,Net-(U2-B)*%
X99600000Y-83500000D03*
%TO.P,U5,7,A*%
%TO.N,Net-(U2-A)*%
X98750000Y-84500000D03*
%TO.P,U5,8,CC*%
%TO.N,unconnected-(U5-CC-Pad8)*%
X97900000Y-83500000D03*
%TO.P,U5,9,F*%
%TO.N,Net-(U2-F)*%
X97050000Y-84500000D03*
%TO.P,U5,10,G*%
%TO.N,Net-(U2-G)*%
X96200000Y-83500000D03*
%TD*%
D14*
%TO.P,Q3,1,B*%
%TO.N,Net-(Q3-B)*%
X92500000Y-96875000D03*
%TO.P,Q3,2,E*%
%TO.N,GND*%
X93300000Y-96875000D03*
%TO.P,Q3,3,C*%
%TO.N,Net-(Q3-C)*%
X92900000Y-95725000D03*
%TD*%
D15*
%TO.P,U2,1,E*%
%TO.N,Net-(U2-E)*%
X80400000Y-94500000D03*
D16*
%TO.P,U2,2,D*%
%TO.N,Net-(U2-D)*%
X81250000Y-93500000D03*
%TO.P,U2,3,CC*%
%TO.N,Net-(Q1-C)*%
X82100000Y-94500000D03*
%TO.P,U2,4,C*%
%TO.N,Net-(U2-C)*%
X82950000Y-93500000D03*
%TO.P,U2,5,DP*%
%TO.N,unconnected-(U2-DP-Pad5)*%
X83800000Y-94500000D03*
%TO.P,U2,6,B*%
%TO.N,Net-(U2-B)*%
X83800000Y-83500000D03*
%TO.P,U2,7,A*%
%TO.N,Net-(U2-A)*%
X82950000Y-84500000D03*
%TO.P,U2,8,CC*%
%TO.N,unconnected-(U2-CC-Pad8)*%
X82100000Y-83500000D03*
%TO.P,U2,9,F*%
%TO.N,Net-(U2-F)*%
X81250000Y-84500000D03*
%TO.P,U2,10,G*%
%TO.N,Net-(U2-G)*%
X80400000Y-83500000D03*
%TD*%
D15*
%TO.P,U3,1,E*%
%TO.N,Net-(U2-E)*%
X85400000Y-94500000D03*
D16*
%TO.P,U3,2,D*%
%TO.N,Net-(U2-D)*%
X86250000Y-93500000D03*
%TO.P,U3,3,CC*%
%TO.N,Net-(Q2-C)*%
X87100000Y-94500000D03*
%TO.P,U3,4,C*%
%TO.N,Net-(U2-C)*%
X87950000Y-93500000D03*
%TO.P,U3,5,DP*%
%TO.N,unconnected-(U3-DP-Pad5)*%
X88800000Y-94500000D03*
%TO.P,U3,6,B*%
%TO.N,Net-(U2-B)*%
X88800000Y-83500000D03*
%TO.P,U3,7,A*%
%TO.N,Net-(U2-A)*%
X87950000Y-84500000D03*
%TO.P,U3,8,CC*%
%TO.N,unconnected-(U3-CC-Pad8)*%
X87100000Y-83500000D03*
%TO.P,U3,9,F*%
%TO.N,Net-(U2-F)*%
X86250000Y-84500000D03*
%TO.P,U3,10,G*%
%TO.N,Net-(U2-G)*%
X85400000Y-83500000D03*
%TD*%
D22*
%TO.P,Y1,1*%
%TO.N,Net-(U1-PC15)*%
X94600000Y-101350000D03*
%TO.P,Y1,2*%
%TO.N,Net-(U1-PC14)*%
X94600000Y-103850000D03*
%TD*%
D23*
%TO.P,RN2,1*%
%TO.N,Net-(U2-E)*%
X81850001Y-98725000D03*
%TO.P,RN2,2*%
%TO.N,Net-(U2-D)*%
X81050000Y-98725001D03*
%TO.P,RN2,3*%
%TO.N,Net-(U2-C)*%
X80250000Y-98725000D03*
%TO.P,RN2,4*%
%TO.N,unconnected-(RN2-Pad4)*%
X79450000Y-98725001D03*
D24*
%TO.P,RN2,5*%
%TO.N,unconnected-(RN2-Pad5)*%
X79449999Y-100475000D03*
%TO.P,RN2,6*%
%TO.N,Net-(U1-PB1)*%
X80250000Y-100474999D03*
%TO.P,RN2,7*%
%TO.N,Net-(U1-PA10)*%
X81050000Y-100475000D03*
%TO.P,RN2,8*%
%TO.N,Net-(U1-PA9)*%
X81850000Y-100474999D03*
%TD*%
D10*
%TO.P,R1,1*%
%TO.N,Net-(U1-PA0)*%
X102675000Y-84500000D03*
%TO.P,R1,2*%
%TO.N,Net-(R1-Pad2)*%
X104325000Y-84500000D03*
%TD*%
D25*
%TO.P,BT2,1,+*%
%TO.N,VDD*%
X79800000Y-89900000D03*
D26*
%TO.P,BT2,2,-*%
%TO.N,GND*%
X99900000Y-89900000D03*
%TD*%
D27*
%TO.P,TP5,1,1*%
%TO.N,Net-(U1-NRST)*%
X82150000Y-76400000D03*
%TD*%
%TO.P,TP4,1,1*%
%TO.N,Net-(U1-PA13{slash}SWDIO)*%
X90400000Y-105650000D03*
%TD*%
%TO.P,TP1,1,1*%
%TO.N,VDD*%
X77650000Y-81550000D03*
%TD*%
%TO.P,TP2,1,1*%
%TO.N,Net-(U1-PA14{slash}SWCLK)*%
X87650000Y-105650000D03*
%TD*%
%TO.P,TP3,1,1*%
%TO.N,GND*%
X79750000Y-78950000D03*
%TD*%
D28*
%TO.N,VDD*%
X80400000Y-102200000D03*
X88100000Y-102650000D03*
%TO.N,GND*%
X75900000Y-85200000D03*
X100000000Y-98420000D03*
X89900000Y-96350000D03*
X78850000Y-92450000D03*
X94350000Y-80600000D03*
X88800000Y-98550000D03*
X89950000Y-80750000D03*
X94100000Y-89800000D03*
X89900000Y-93600000D03*
X84400000Y-96450000D03*
X84500000Y-93450000D03*
X94600000Y-102600000D03*
X95450000Y-93500000D03*
X87000000Y-89750000D03*
X94700000Y-74750000D03*
X103300000Y-98650000D03*
X98880000Y-95320000D03*
X95000000Y-96150000D03*
X84050000Y-104800000D03*
%TO.N,Net-(D1-K)*%
X83150000Y-86300000D03*
X103800000Y-82250000D03*
%TO.N,Net-(U2-A)*%
X94211952Y-78599569D03*
%TO.N,Net-(U1-PA1)*%
X77984925Y-98299999D03*
X88050000Y-100000000D03*
X97993593Y-98762167D03*
X101900000Y-87650000D03*
%TO.N,Net-(U2-G)*%
X95300000Y-79350000D03*
%TO.N,Net-(U2-F)*%
X97700000Y-81300000D03*
%TO.N,Net-(D1-A)*%
X95244053Y-97363906D03*
X101600000Y-97900000D03*
%TO.N,Net-(U1-PB9)*%
X98700000Y-100000000D03*
X93100000Y-105200000D03*
%TO.N,Net-(U1-NRST)*%
X90000000Y-102000000D03*
X85050000Y-81600000D03*
%TD*%
D29*
%TO.N,VDD*%
X86000000Y-101325000D02*
X88100000Y-101325000D01*
X81925000Y-81550000D02*
X83475000Y-80000000D01*
X88100000Y-101325000D02*
X88100000Y-102650000D01*
X81925000Y-102950000D02*
X81150000Y-102950000D01*
X77650000Y-81550000D02*
X81925000Y-81550000D01*
X88100000Y-101325000D02*
X91725000Y-101325000D01*
X81150000Y-102950000D02*
X80400000Y-102200000D01*
%TO.N,Net-(U1-PC15)*%
X97125000Y-101350000D02*
X94600000Y-101350000D01*
X92462499Y-102625000D02*
X93737499Y-101350000D01*
X91725000Y-102625000D02*
X92462499Y-102625000D01*
X93737499Y-101350000D02*
X94600000Y-101350000D01*
%TO.N,Net-(U1-PC14)*%
X94025000Y-103275000D02*
X94600000Y-103850000D01*
X96800000Y-103250000D02*
X96200000Y-103850000D01*
X97125000Y-103250000D02*
X96800000Y-103250000D01*
X91725000Y-103275000D02*
X94025000Y-103275000D01*
X96200000Y-103850000D02*
X94600000Y-103850000D01*
%TO.N,Net-(Q1-B)*%
X84200000Y-99375000D02*
X86000000Y-99375000D01*
X81700000Y-96875000D02*
X84200000Y-99375000D01*
%TO.N,Net-(Q1-C)*%
X82100000Y-94500000D02*
X82100000Y-95725000D01*
%TO.N,Net-(D1-K)*%
X103850000Y-96600000D02*
X103850000Y-94300000D01*
X73925000Y-92075000D02*
X73925000Y-87925000D01*
X103850000Y-94300000D02*
X106075000Y-92075000D01*
X106075000Y-87925000D02*
X106075000Y-87225000D01*
X105300000Y-86150000D02*
X105300000Y-83750000D01*
X106075000Y-87225000D02*
X105150000Y-86300000D01*
X105150000Y-86300000D02*
X105300000Y-86150000D01*
X105300000Y-83750000D02*
X103800000Y-82250000D01*
X75550000Y-86300000D02*
X73925000Y-87925000D01*
X83150000Y-86300000D02*
X75550000Y-86300000D01*
X106075000Y-87925000D02*
X106075000Y-92075000D01*
%TO.N,Net-(Q2-C)*%
X87100000Y-94500000D02*
X87100000Y-95725000D01*
%TO.N,Net-(Q3-C)*%
X92900000Y-94500000D02*
X92900000Y-95725000D01*
%TO.N,Net-(Q4-C)*%
X97900000Y-94500000D02*
X97900000Y-95725000D01*
%TO.N,Net-(U2-C)*%
X93000000Y-92750000D02*
X93750000Y-93500000D01*
X79250000Y-93534314D02*
X80034314Y-92750000D01*
X80034314Y-92750000D02*
X82200000Y-92750000D01*
X93750000Y-93500000D02*
X94500000Y-92750000D01*
X98000000Y-92750000D02*
X98750000Y-93500000D01*
X83700000Y-92750000D02*
X87200000Y-92750000D01*
X82950000Y-93500000D02*
X83700000Y-92750000D01*
X82200000Y-92750000D02*
X82950000Y-93500000D01*
X80250000Y-97349828D02*
X79250000Y-96349827D01*
X94500000Y-92750000D02*
X98000000Y-92750000D01*
X79250000Y-96349827D02*
X79250000Y-93534314D01*
X87200000Y-92750000D02*
X87950000Y-93500000D01*
X88700000Y-92750000D02*
X93000000Y-92750000D01*
X80250000Y-98725000D02*
X80250000Y-97349828D01*
X87950000Y-93500000D02*
X88700000Y-92750000D01*
%TO.N,Net-(U2-B)*%
X93561952Y-78330330D02*
X93561952Y-80961952D01*
X93561952Y-80961952D02*
X95350000Y-82750000D01*
X94600000Y-83500000D02*
X95350000Y-82750000D01*
X93850000Y-82750000D02*
X94600000Y-83500000D01*
X89550000Y-82750000D02*
X93850000Y-82750000D01*
X88800000Y-83500000D02*
X89550000Y-82750000D01*
X95350000Y-82750000D02*
X98850000Y-82750000D01*
X83800000Y-83500000D02*
X84550000Y-82750000D01*
X88050000Y-82750000D02*
X88800000Y-83500000D01*
X98850000Y-82750000D02*
X99600000Y-83500000D01*
X95192281Y-76700001D02*
X93561952Y-78330330D01*
X96825000Y-76700001D02*
X95192281Y-76700001D01*
X84550000Y-82750000D02*
X88050000Y-82750000D01*
%TO.N,Net-(U2-A)*%
X95311522Y-77499999D02*
X94211952Y-78599569D01*
X96825001Y-77499999D02*
X95311522Y-77499999D01*
%TO.N,Net-(U1-PA3)*%
X94802208Y-98725000D02*
X96127208Y-97400000D01*
X98568456Y-97400000D02*
X98120000Y-97400000D01*
X98575000Y-79099999D02*
X100850000Y-81374999D01*
X98800000Y-97168456D02*
X98568456Y-97400000D01*
X96127208Y-97400000D02*
X98600000Y-97400000D01*
X100850000Y-81374999D02*
X100850000Y-88084924D01*
X91725000Y-98725000D02*
X94802208Y-98725000D01*
X101300000Y-88534925D02*
X101300000Y-94300000D01*
X100850000Y-88084924D02*
X101300000Y-88534925D01*
X98800000Y-96800000D02*
X98800000Y-97168456D01*
X101300000Y-94300000D02*
X98800000Y-96800000D01*
%TO.N,Net-(U1-PA0)*%
X102675000Y-94475000D02*
X101299999Y-95850000D01*
X97425000Y-100250000D02*
X92887499Y-100250000D01*
X101237353Y-95850000D02*
X99600000Y-97487353D01*
X99059999Y-76700001D02*
X102675000Y-80315002D01*
X92887499Y-100250000D02*
X92462499Y-100675000D01*
X92462499Y-100675000D02*
X91725000Y-100675000D01*
X101299999Y-95850000D02*
X101237353Y-95850000D01*
X99600000Y-97487353D02*
X99600000Y-97550000D01*
X98665292Y-98484708D02*
X98665292Y-99009708D01*
X98665292Y-99009708D02*
X97425000Y-100250000D01*
X99600000Y-97550000D02*
X98665292Y-98484708D01*
X102675000Y-84500000D02*
X102675000Y-94475000D01*
X102675000Y-80315002D02*
X102675000Y-84500000D01*
X98575000Y-76700001D02*
X99059999Y-76700001D01*
%TO.N,Net-(U1-PA2)*%
X99177071Y-97332929D02*
X101700000Y-94810000D01*
X98453518Y-98112167D02*
X99177071Y-97388614D01*
X97724354Y-98112167D02*
X98453518Y-98112167D01*
X97400000Y-98436521D02*
X97400000Y-98672792D01*
X101250000Y-80490003D02*
X101250000Y-87850000D01*
X97724354Y-98112167D02*
X97400000Y-98436521D01*
X99059998Y-78300001D02*
X101250000Y-80490003D01*
X98574999Y-78300001D02*
X99059998Y-78300001D01*
X99177071Y-97388614D02*
X99177071Y-97332929D01*
X101250000Y-87850000D02*
X101700000Y-88300000D01*
X91750000Y-99350000D02*
X91725000Y-99375000D01*
X97400000Y-98672792D02*
X96722792Y-99350000D01*
X96722792Y-99350000D02*
X91750000Y-99350000D01*
X101700000Y-94810000D02*
X101700000Y-88300000D01*
%TO.N,Net-(U2-D)*%
X79850000Y-93500000D02*
X81250000Y-93500000D01*
X79650000Y-93700000D02*
X79850000Y-93500000D01*
X81050000Y-97584142D02*
X79650000Y-96184142D01*
X81050000Y-98725001D02*
X81050000Y-97584142D01*
X79650000Y-96184142D02*
X79650000Y-93700000D01*
%TO.N,Net-(U1-PA1)*%
X101900000Y-80340001D02*
X101900000Y-87650000D01*
X92465270Y-100025000D02*
X92740270Y-99750000D01*
X92740270Y-99750000D02*
X97005760Y-99750000D01*
X101900000Y-87650000D02*
X101975000Y-87575000D01*
X97005760Y-99750000D02*
X97993593Y-98762167D01*
X91725000Y-100025000D02*
X88075000Y-100025000D01*
X98575000Y-77500000D02*
X99059999Y-77500000D01*
X76175000Y-96490074D02*
X77984925Y-98299999D01*
X76175000Y-96000000D02*
X76175000Y-96490074D01*
X88075000Y-100025000D02*
X88050000Y-100000000D01*
X91725000Y-100025000D02*
X92465270Y-100025000D01*
X99059999Y-77500000D02*
X101900000Y-80340001D01*
%TO.N,Net-(U2-G)*%
X96825000Y-79099999D02*
X95550001Y-79099999D01*
X95550001Y-79099999D02*
X95300000Y-79350000D01*
%TO.N,Net-(U2-E)*%
X81850001Y-98725000D02*
X81850001Y-97818457D01*
X80400000Y-96368456D02*
X80400000Y-94500000D01*
X81850001Y-97818457D02*
X80400000Y-96368456D01*
%TO.N,Net-(U2-F)*%
X96825000Y-78300000D02*
X95430761Y-78300000D01*
X87000000Y-85250000D02*
X91300000Y-85250000D01*
X96300000Y-85250000D02*
X97050000Y-84500000D01*
X95430761Y-78300000D02*
X94650000Y-79080761D01*
X82000000Y-85250000D02*
X85500000Y-85250000D01*
X81250000Y-84500000D02*
X82000000Y-85250000D01*
X94650000Y-79080761D02*
X94650000Y-79665686D01*
X94650000Y-79665686D02*
X95584314Y-80600000D01*
X91300000Y-85250000D02*
X92050000Y-84500000D01*
X92800000Y-85250000D02*
X96300000Y-85250000D01*
X92050000Y-84500000D02*
X92800000Y-85250000D01*
X97000000Y-80600000D02*
X97700000Y-81300000D01*
X95584314Y-80600000D02*
X97000000Y-80600000D01*
X86250000Y-84500000D02*
X87000000Y-85250000D01*
X85500000Y-85250000D02*
X86250000Y-84500000D01*
%TO.N,Net-(D1-A)*%
X91725000Y-98075000D02*
X94532959Y-98075000D01*
X101650000Y-96600000D02*
X101650000Y-97850000D01*
X97500000Y-96875000D02*
X95732959Y-96875000D01*
X94532959Y-98075000D02*
X95244053Y-97363906D01*
X101650000Y-97850000D02*
X101600000Y-97900000D01*
X95732959Y-96875000D02*
X95244053Y-97363906D01*
%TO.N,Net-(U1-PB9)*%
X99525000Y-99175000D02*
X98700000Y-100000000D01*
X93000000Y-105200000D02*
X91725000Y-103925000D01*
X93100000Y-105200000D02*
X93000000Y-105200000D01*
X101150000Y-99175000D02*
X99525000Y-99175000D01*
%TO.N,Net-(Q3-B)*%
X91975000Y-97400000D02*
X92500000Y-96875000D01*
X86675000Y-97400000D02*
X91975000Y-97400000D01*
X86000000Y-98075000D02*
X86675000Y-97400000D01*
%TO.N,Net-(U1-PA10)*%
X81050000Y-100828559D02*
X82396441Y-102175000D01*
X84812501Y-102175000D02*
X85262501Y-102625000D01*
X82396441Y-102175000D02*
X84812501Y-102175000D01*
X85262501Y-102625000D02*
X86000000Y-102625000D01*
X81050000Y-100475000D02*
X81050000Y-100828559D01*
%TO.N,Net-(U1-PA9)*%
X83678185Y-100474999D02*
X85178186Y-101975000D01*
X81850000Y-100474999D02*
X83678185Y-100474999D01*
X85178186Y-101975000D02*
X86000000Y-101975000D01*
%TO.N,Net-(R1-Pad2)*%
X104325000Y-85875000D02*
X103900000Y-86300000D01*
X103900000Y-86300000D02*
X103925000Y-86325000D01*
X103925000Y-87925000D02*
X103925000Y-92075000D01*
X104325000Y-84500000D02*
X104325000Y-85875000D01*
X103925000Y-86325000D02*
X103925000Y-87925000D01*
%TO.N,Net-(R5-Pad2)*%
X76075000Y-92075000D02*
X76075000Y-92625000D01*
X76075000Y-92625000D02*
X77825000Y-94375000D01*
X77825000Y-94375000D02*
X77825000Y-96000000D01*
X76075000Y-92075000D02*
X76075000Y-87925000D01*
%TO.N,Net-(U1-NRST)*%
X85125000Y-80000000D02*
X85125000Y-76900000D01*
X84625000Y-76400000D02*
X85125000Y-76900000D01*
X85125000Y-76725000D02*
X87925000Y-73925000D01*
X85050000Y-80075000D02*
X85125000Y-80000000D01*
X91725000Y-101975000D02*
X90025000Y-101975000D01*
X92075000Y-73925000D02*
X87925000Y-73925000D01*
X85125000Y-76900000D02*
X85125000Y-76725000D01*
X90025000Y-101975000D02*
X90000000Y-102000000D01*
X82150000Y-76400000D02*
X84625000Y-76400000D01*
X85050000Y-81600000D02*
X85050000Y-80075000D01*
%TO.N,Net-(U1-PA14{slash}SWCLK)*%
X86000000Y-103925000D02*
X87650000Y-105575000D01*
X87650000Y-105575000D02*
X87650000Y-105650000D01*
%TO.N,Net-(U1-PA13{slash}SWDIO)*%
X86000000Y-103275000D02*
X88025000Y-103275000D01*
X88025000Y-103275000D02*
X90400000Y-105650000D01*
%TO.N,Net-(Q2-B)*%
X86700000Y-96875000D02*
X85894044Y-96875000D01*
X85894044Y-96875000D02*
X84962500Y-97806544D01*
X84962500Y-97806544D02*
X84962500Y-98424999D01*
X85262501Y-98725000D02*
X86000000Y-98725000D01*
X84962500Y-98424999D02*
X85262501Y-98725000D01*
%TO.N,Net-(U1-PB1)*%
X86000000Y-100025000D02*
X82553561Y-100025000D01*
X80250000Y-100121440D02*
X80250000Y-100474999D01*
X80681440Y-99690000D02*
X80250000Y-100121440D01*
X82553561Y-100025000D02*
X82218560Y-99689999D01*
X82218560Y-99689999D02*
X80681440Y-99690000D01*
%TD*%
%TA.AperFunction,Conductor*%
%TO.N,GND*%
G36*
X96440382Y-101670185D02*
G01*
X96486137Y-101722989D01*
X96489445Y-101731486D01*
X96493806Y-101740045D01*
X96551472Y-101853220D01*
X96551474Y-101853222D01*
X96551476Y-101853225D01*
X96646774Y-101948523D01*
X96646778Y-101948526D01*
X96646780Y-101948528D01*
X96766874Y-102009719D01*
X96766876Y-102009719D01*
X96766878Y-102009720D01*
X96866507Y-102025500D01*
X96866512Y-102025500D01*
X97383493Y-102025500D01*
X97483121Y-102009720D01*
X97483121Y-102009719D01*
X97483126Y-102009719D01*
X97603220Y-101948528D01*
X97622173Y-101929574D01*
X97683494Y-101896090D01*
X97753185Y-101901073D01*
X97809120Y-101942944D01*
X97815392Y-101952159D01*
X97877424Y-102052728D01*
X97877427Y-102052732D01*
X97997268Y-102172573D01*
X98032755Y-102194462D01*
X98079479Y-102246410D01*
X98090700Y-102315373D01*
X98062856Y-102379455D01*
X98032755Y-102405538D01*
X97997268Y-102427426D01*
X97877426Y-102547268D01*
X97815392Y-102647841D01*
X97763444Y-102694565D01*
X97694481Y-102705786D01*
X97630399Y-102677943D01*
X97622173Y-102670424D01*
X97603225Y-102651476D01*
X97603221Y-102651473D01*
X97603220Y-102651472D01*
X97483126Y-102590281D01*
X97483124Y-102590280D01*
X97483121Y-102590279D01*
X97383493Y-102574500D01*
X97383488Y-102574500D01*
X96866512Y-102574500D01*
X96866507Y-102574500D01*
X96766878Y-102590279D01*
X96646778Y-102651473D01*
X96646774Y-102651476D01*
X96551476Y-102746774D01*
X96551473Y-102746778D01*
X96551472Y-102746780D01*
X96491002Y-102865460D01*
X96490279Y-102866878D01*
X96474500Y-102966506D01*
X96474500Y-103099167D01*
X96454815Y-103166206D01*
X96438181Y-103186848D01*
X96111848Y-103513181D01*
X96050525Y-103546666D01*
X96024167Y-103549500D01*
X95824500Y-103549500D01*
X95757461Y-103529815D01*
X95711706Y-103477011D01*
X95700500Y-103425500D01*
X95700500Y-103330249D01*
X95700499Y-103330247D01*
X95688868Y-103271770D01*
X95688867Y-103271769D01*
X95644552Y-103205447D01*
X95578230Y-103161132D01*
X95578229Y-103161131D01*
X95519752Y-103149500D01*
X95519748Y-103149500D01*
X94375833Y-103149500D01*
X94308794Y-103129815D01*
X94288152Y-103113181D01*
X94209510Y-103034539D01*
X94195848Y-103026652D01*
X94182186Y-103018764D01*
X94140991Y-102994980D01*
X94140990Y-102994979D01*
X94115513Y-102988152D01*
X94064562Y-102974500D01*
X94064560Y-102974500D01*
X92837332Y-102974500D01*
X92770293Y-102954815D01*
X92724538Y-102902011D01*
X92714594Y-102832853D01*
X92743619Y-102769297D01*
X92749651Y-102762819D01*
X92922191Y-102590279D01*
X93460993Y-102051475D01*
X93522314Y-102017992D01*
X93592005Y-102022976D01*
X93617567Y-102036059D01*
X93621770Y-102038868D01*
X93680247Y-102050499D01*
X93680250Y-102050500D01*
X93680252Y-102050500D01*
X95519750Y-102050500D01*
X95519751Y-102050499D01*
X95534568Y-102047552D01*
X95578229Y-102038868D01*
X95578229Y-102038867D01*
X95578231Y-102038867D01*
X95644552Y-101994552D01*
X95688867Y-101928231D01*
X95688867Y-101928229D01*
X95688868Y-101928229D01*
X95699555Y-101874500D01*
X95700500Y-101869748D01*
X95700500Y-101774500D01*
X95720185Y-101707461D01*
X95772989Y-101661706D01*
X95824500Y-101650500D01*
X96373343Y-101650500D01*
X96440382Y-101670185D01*
G37*
%TD.AperFunction*%
%TA.AperFunction,Conductor*%
G36*
X90756952Y-97720185D02*
G01*
X90802707Y-97772989D01*
X90812651Y-97842147D01*
X90803348Y-97874585D01*
X90789915Y-97905006D01*
X90789915Y-97905008D01*
X90787000Y-97930131D01*
X90787000Y-98219856D01*
X90787002Y-98219882D01*
X90789913Y-98244986D01*
X90789914Y-98244990D01*
X90789915Y-98244991D01*
X90835294Y-98347765D01*
X90835295Y-98347766D01*
X90836243Y-98349913D01*
X90845314Y-98419191D01*
X90836243Y-98450085D01*
X90789915Y-98555009D01*
X90787000Y-98580131D01*
X90787000Y-98869856D01*
X90787002Y-98869882D01*
X90789913Y-98894986D01*
X90789914Y-98894990D01*
X90789915Y-98894991D01*
X90835294Y-98997765D01*
X90835295Y-98997766D01*
X90836243Y-98999913D01*
X90845314Y-99069191D01*
X90836243Y-99100085D01*
X90789915Y-99205009D01*
X90787000Y-99230131D01*
X90787000Y-99519856D01*
X90787002Y-99519882D01*
X90789913Y-99544987D01*
X90789914Y-99544989D01*
X90792310Y-99550415D01*
X90801381Y-99619693D01*
X90771557Y-99682878D01*
X90712307Y-99719908D01*
X90678875Y-99724500D01*
X88530163Y-99724500D01*
X88463124Y-99704815D01*
X88436450Y-99681703D01*
X88381128Y-99617857D01*
X88260053Y-99540047D01*
X88260051Y-99540046D01*
X88260049Y-99540045D01*
X88260050Y-99540045D01*
X88121963Y-99499500D01*
X88121961Y-99499500D01*
X87978039Y-99499500D01*
X87978036Y-99499500D01*
X87839949Y-99540045D01*
X87718873Y-99617856D01*
X87624623Y-99726626D01*
X87624622Y-99726628D01*
X87564834Y-99857543D01*
X87544353Y-100000000D01*
X87564834Y-100142456D01*
X87615185Y-100252707D01*
X87624623Y-100273373D01*
X87718872Y-100382143D01*
X87839947Y-100459953D01*
X87839950Y-100459954D01*
X87839949Y-100459954D01*
X87943852Y-100490462D01*
X87969160Y-100497893D01*
X87978036Y-100500499D01*
X87978038Y-100500500D01*
X87978039Y-100500500D01*
X88121962Y-100500500D01*
X88121962Y-100500499D01*
X88260053Y-100459953D01*
X88381128Y-100382143D01*
X88393126Y-100368296D01*
X88451903Y-100330523D01*
X88486838Y-100325500D01*
X90678875Y-100325500D01*
X90745914Y-100345185D01*
X90791669Y-100397989D01*
X90801613Y-100467147D01*
X90792309Y-100499585D01*
X90791906Y-100500500D01*
X90789915Y-100505009D01*
X90787000Y-100530131D01*
X90787000Y-100819856D01*
X90787002Y-100819882D01*
X90789913Y-100844987D01*
X90789914Y-100844989D01*
X90792310Y-100850415D01*
X90801381Y-100919693D01*
X90771557Y-100982878D01*
X90712307Y-101019908D01*
X90678875Y-101024500D01*
X87351225Y-101024500D01*
X87284186Y-101004815D01*
X87238431Y-100952011D01*
X87228286Y-100884314D01*
X87229512Y-100875000D01*
X84770490Y-100875000D01*
X84733445Y-100917241D01*
X84730472Y-100914634D01*
X84706162Y-100942008D01*
X84638887Y-100960873D01*
X84572093Y-100940371D01*
X84552720Y-100924563D01*
X84165338Y-100537181D01*
X84131853Y-100475858D01*
X84136837Y-100406166D01*
X84178709Y-100350233D01*
X84244173Y-100325816D01*
X84253019Y-100325500D01*
X84648775Y-100325500D01*
X84715814Y-100345185D01*
X84761569Y-100397989D01*
X84771714Y-100465686D01*
X84770487Y-100474999D01*
X84770488Y-100475000D01*
X87229510Y-100475000D01*
X87229511Y-100474998D01*
X87222057Y-100418372D01*
X87222055Y-100418366D01*
X87161600Y-100272414D01*
X87065422Y-100147073D01*
X86986512Y-100086522D01*
X86945310Y-100030094D01*
X86937999Y-99988147D01*
X86937999Y-99880143D01*
X86937999Y-99880136D01*
X86935177Y-99855799D01*
X86935086Y-99855012D01*
X86935085Y-99855008D01*
X86888757Y-99750086D01*
X86879685Y-99680808D01*
X86888757Y-99649913D01*
X86889704Y-99647766D01*
X86889706Y-99647765D01*
X86935085Y-99544991D01*
X86938000Y-99519865D01*
X86937999Y-99230136D01*
X86937997Y-99230117D01*
X86935086Y-99205012D01*
X86935085Y-99205008D01*
X86888757Y-99100086D01*
X86879685Y-99030808D01*
X86888757Y-98999913D01*
X86889704Y-98997766D01*
X86889706Y-98997765D01*
X86935085Y-98894991D01*
X86938000Y-98869865D01*
X86937999Y-98580136D01*
X86937346Y-98574501D01*
X86935086Y-98555012D01*
X86935085Y-98555008D01*
X86888757Y-98450086D01*
X86879685Y-98380808D01*
X86888757Y-98349913D01*
X86889704Y-98347766D01*
X86889706Y-98347765D01*
X86935085Y-98244991D01*
X86938000Y-98219865D01*
X86937999Y-97930136D01*
X86936575Y-97917855D01*
X86935086Y-97905012D01*
X86935085Y-97905011D01*
X86935085Y-97905009D01*
X86921651Y-97874585D01*
X86912580Y-97805309D01*
X86942403Y-97742123D01*
X87001652Y-97705092D01*
X87035086Y-97700500D01*
X90689913Y-97700500D01*
X90756952Y-97720185D01*
G37*
%TD.AperFunction*%
%TA.AperFunction,Conductor*%
G36*
X100968834Y-96646002D02*
G01*
X101024767Y-96687874D01*
X101049184Y-96753338D01*
X101049500Y-96762183D01*
X101049500Y-96881517D01*
X101060292Y-96949657D01*
X101064354Y-96975304D01*
X101121950Y-97088342D01*
X101121952Y-97088344D01*
X101121954Y-97088347D01*
X101211652Y-97178045D01*
X101211654Y-97178046D01*
X101211658Y-97178050D01*
X101281796Y-97213787D01*
X101332591Y-97261761D01*
X101349500Y-97324271D01*
X101349500Y-97398331D01*
X101329815Y-97465370D01*
X101292541Y-97502646D01*
X101268870Y-97517858D01*
X101268866Y-97517862D01*
X101174625Y-97626622D01*
X101174622Y-97626628D01*
X101114834Y-97757543D01*
X101094353Y-97900000D01*
X101114834Y-98042456D01*
X101167393Y-98157542D01*
X101174623Y-98173373D01*
X101268872Y-98282143D01*
X101268874Y-98282144D01*
X101268876Y-98282146D01*
X101368522Y-98346185D01*
X101414277Y-98398988D01*
X101424221Y-98468147D01*
X101395196Y-98531703D01*
X101336418Y-98569477D01*
X101301483Y-98574500D01*
X100843482Y-98574500D01*
X100762519Y-98587323D01*
X100749696Y-98589354D01*
X100636658Y-98646950D01*
X100636657Y-98646951D01*
X100636652Y-98646954D01*
X100546954Y-98736652D01*
X100546951Y-98736657D01*
X100546950Y-98736658D01*
X100511212Y-98806796D01*
X100463239Y-98857591D01*
X100400729Y-98874500D01*
X99485438Y-98874500D01*
X99447224Y-98884739D01*
X99409009Y-98894979D01*
X99409004Y-98894982D01*
X99340495Y-98934535D01*
X99340491Y-98934538D01*
X99177473Y-99097556D01*
X99116150Y-99131040D01*
X99046458Y-99126056D01*
X98990525Y-99084184D01*
X98966108Y-99018720D01*
X98965792Y-99009874D01*
X98965792Y-98660541D01*
X98985477Y-98593502D01*
X99002111Y-98572860D01*
X99417429Y-98157542D01*
X99840460Y-97734511D01*
X99880022Y-97665988D01*
X99883751Y-97652068D01*
X99915844Y-97596478D01*
X100837821Y-96674501D01*
X100899142Y-96641018D01*
X100968834Y-96646002D01*
G37*
%TD.AperFunction*%
%TA.AperFunction,Conductor*%
G36*
X85612157Y-93070185D02*
G01*
X85657912Y-93122989D01*
X85667856Y-93192147D01*
X85661061Y-93218465D01*
X85648368Y-93251936D01*
X85613762Y-93343182D01*
X85594722Y-93499999D01*
X85594722Y-93500000D01*
X85613763Y-93656819D01*
X85613763Y-93656821D01*
X85623134Y-93681530D01*
X85628501Y-93751193D01*
X85595353Y-93812699D01*
X85534214Y-93846520D01*
X85507192Y-93849500D01*
X84930247Y-93849500D01*
X84871770Y-93861131D01*
X84871769Y-93861132D01*
X84805447Y-93905447D01*
X84761132Y-93971769D01*
X84761131Y-93971770D01*
X84749500Y-94030247D01*
X84749500Y-94969752D01*
X84761131Y-95028229D01*
X84761132Y-95028230D01*
X84805447Y-95094552D01*
X84871769Y-95138867D01*
X84871770Y-95138868D01*
X84930247Y-95150499D01*
X84930250Y-95150500D01*
X84930252Y-95150500D01*
X85869750Y-95150500D01*
X85869751Y-95150499D01*
X85887389Y-95146991D01*
X85928229Y-95138868D01*
X85928229Y-95138867D01*
X85928231Y-95138867D01*
X85994552Y-95094552D01*
X86038867Y-95028231D01*
X86038867Y-95028229D01*
X86038868Y-95028229D01*
X86050499Y-94969752D01*
X86050500Y-94969750D01*
X86050500Y-94274500D01*
X86070185Y-94207461D01*
X86122989Y-94161706D01*
X86174500Y-94150500D01*
X86328986Y-94150500D01*
X86336432Y-94149596D01*
X86336586Y-94150868D01*
X86398667Y-94153594D01*
X86455732Y-94193909D01*
X86481942Y-94258677D01*
X86474491Y-94314894D01*
X86463762Y-94343183D01*
X86444722Y-94499999D01*
X86444722Y-94500000D01*
X86463762Y-94656818D01*
X86519780Y-94804523D01*
X86519781Y-94804524D01*
X86609517Y-94934531D01*
X86705790Y-95019820D01*
X86727760Y-95039283D01*
X86727763Y-95039284D01*
X86727765Y-95039286D01*
X86733120Y-95042096D01*
X86783335Y-95090678D01*
X86799500Y-95151895D01*
X86799500Y-95324167D01*
X86779815Y-95391206D01*
X86763181Y-95411848D01*
X86747794Y-95427234D01*
X86702415Y-95530006D01*
X86702415Y-95530008D01*
X86699500Y-95555131D01*
X86699500Y-95894856D01*
X86699502Y-95894882D01*
X86702413Y-95919987D01*
X86702415Y-95919991D01*
X86747793Y-96022764D01*
X86747794Y-96022765D01*
X86827235Y-96102206D01*
X86887342Y-96128745D01*
X86917090Y-96141881D01*
X86970466Y-96186967D01*
X86990993Y-96253753D01*
X86972155Y-96321035D01*
X86965379Y-96330802D01*
X86911524Y-96400987D01*
X86855096Y-96442189D01*
X86813148Y-96449500D01*
X86555143Y-96449500D01*
X86555117Y-96449502D01*
X86530012Y-96452413D01*
X86530008Y-96452415D01*
X86427235Y-96497793D01*
X86427234Y-96497794D01*
X86386848Y-96538181D01*
X86325525Y-96571666D01*
X86299167Y-96574500D01*
X85854482Y-96574500D01*
X85787083Y-96592559D01*
X85778051Y-96594980D01*
X85717661Y-96629847D01*
X85717660Y-96629847D01*
X85709539Y-96634535D01*
X85709531Y-96634541D01*
X84722041Y-97622031D01*
X84722035Y-97622039D01*
X84682482Y-97690548D01*
X84682479Y-97690553D01*
X84674539Y-97720185D01*
X84662000Y-97766982D01*
X84662000Y-98464561D01*
X84662961Y-98468147D01*
X84682479Y-98540989D01*
X84682480Y-98540990D01*
X84711818Y-98591805D01*
X84722040Y-98609510D01*
X84722042Y-98609512D01*
X84975349Y-98862819D01*
X85008834Y-98924142D01*
X85003850Y-98993834D01*
X84961978Y-99049767D01*
X84896514Y-99074184D01*
X84887668Y-99074500D01*
X84375833Y-99074500D01*
X84308794Y-99054815D01*
X84288152Y-99038181D01*
X82929850Y-97679879D01*
X82896365Y-97618556D01*
X82901349Y-97548864D01*
X82942045Y-97493822D01*
X83027923Y-97427926D01*
X83124100Y-97302586D01*
X83184554Y-97156634D01*
X83184555Y-97156630D01*
X83195303Y-97075000D01*
X82424000Y-97075000D01*
X82356961Y-97055315D01*
X82311206Y-97002511D01*
X82300000Y-96951000D01*
X82300000Y-96215132D01*
X82316780Y-96157987D01*
X82700000Y-96157987D01*
X82700000Y-96675000D01*
X83195301Y-96675000D01*
X83195302Y-96674998D01*
X83184557Y-96593372D01*
X83184555Y-96593366D01*
X83124100Y-96447414D01*
X83027924Y-96322075D01*
X82902586Y-96225899D01*
X82756631Y-96165444D01*
X82700000Y-96157987D01*
X82316780Y-96157987D01*
X82319685Y-96148093D01*
X82363979Y-96109711D01*
X82363286Y-96108699D01*
X82372175Y-96102609D01*
X82372489Y-96102338D01*
X82372730Y-96102229D01*
X82372760Y-96102207D01*
X82372765Y-96102206D01*
X82452206Y-96022765D01*
X82497585Y-95919991D01*
X82500500Y-95894865D01*
X82500499Y-95555136D01*
X82500497Y-95555117D01*
X82497586Y-95530012D01*
X82497585Y-95530010D01*
X82497585Y-95530009D01*
X82452206Y-95427235D01*
X82436819Y-95411848D01*
X82403334Y-95350525D01*
X82400500Y-95324167D01*
X82400500Y-95151895D01*
X82420185Y-95084856D01*
X82466880Y-95042096D01*
X82472234Y-95039286D01*
X82472233Y-95039286D01*
X82472240Y-95039283D01*
X82590483Y-94934530D01*
X82680220Y-94804523D01*
X82736237Y-94656818D01*
X82755278Y-94500000D01*
X82736237Y-94343182D01*
X82736236Y-94343179D01*
X82736236Y-94343177D01*
X82725510Y-94314896D01*
X82720142Y-94245233D01*
X82753288Y-94183727D01*
X82814426Y-94149905D01*
X82863465Y-94150443D01*
X82863568Y-94149596D01*
X82871014Y-94150500D01*
X82871015Y-94150500D01*
X83028986Y-94150500D01*
X83036432Y-94149596D01*
X83036586Y-94150868D01*
X83098667Y-94153594D01*
X83155732Y-94193909D01*
X83181942Y-94258677D01*
X83174491Y-94314894D01*
X83163762Y-94343183D01*
X83144722Y-94499999D01*
X83144722Y-94500000D01*
X83163762Y-94656818D01*
X83215933Y-94794379D01*
X83219780Y-94804523D01*
X83309517Y-94934530D01*
X83427760Y-95039283D01*
X83427762Y-95039284D01*
X83567634Y-95112696D01*
X83721014Y-95150500D01*
X83721015Y-95150500D01*
X83878985Y-95150500D01*
X84032365Y-95112696D01*
X84085409Y-95084856D01*
X84172240Y-95039283D01*
X84290483Y-94934530D01*
X84380220Y-94804523D01*
X84436237Y-94656818D01*
X84455278Y-94500000D01*
X84439033Y-94366205D01*
X84436237Y-94343181D01*
X84404856Y-94260438D01*
X84380220Y-94195477D01*
X84290483Y-94065470D01*
X84172240Y-93960717D01*
X84172238Y-93960716D01*
X84172237Y-93960715D01*
X84032365Y-93887303D01*
X83878986Y-93849500D01*
X83878985Y-93849500D01*
X83721015Y-93849500D01*
X83721014Y-93849500D01*
X83713568Y-93850404D01*
X83713414Y-93849135D01*
X83651313Y-93846399D01*
X83594254Y-93806074D01*
X83568055Y-93741302D01*
X83575510Y-93685102D01*
X83576865Y-93681530D01*
X83586237Y-93656818D01*
X83605278Y-93500000D01*
X83587619Y-93354563D01*
X83599080Y-93285640D01*
X83623031Y-93251939D01*
X83788153Y-93086816D01*
X83849475Y-93053334D01*
X83875833Y-93050500D01*
X85545118Y-93050500D01*
X85612157Y-93070185D01*
G37*
%TD.AperFunction*%
%TA.AperFunction,Conductor*%
G36*
X96412157Y-93070185D02*
G01*
X96457912Y-93122989D01*
X96467856Y-93192147D01*
X96461061Y-93218465D01*
X96448368Y-93251936D01*
X96413762Y-93343182D01*
X96394722Y-93499999D01*
X96394722Y-93500000D01*
X96413763Y-93656819D01*
X96413763Y-93656821D01*
X96423134Y-93681530D01*
X96428501Y-93751193D01*
X96395353Y-93812699D01*
X96334214Y-93846520D01*
X96307192Y-93849500D01*
X95730247Y-93849500D01*
X95671770Y-93861131D01*
X95671769Y-93861132D01*
X95605447Y-93905447D01*
X95561132Y-93971769D01*
X95561131Y-93971770D01*
X95549500Y-94030247D01*
X95549500Y-94969752D01*
X95561131Y-95028229D01*
X95561132Y-95028230D01*
X95605447Y-95094552D01*
X95671769Y-95138867D01*
X95671770Y-95138868D01*
X95730247Y-95150499D01*
X95730250Y-95150500D01*
X95730252Y-95150500D01*
X96669750Y-95150500D01*
X96669751Y-95150499D01*
X96687389Y-95146991D01*
X96728229Y-95138868D01*
X96728229Y-95138867D01*
X96728231Y-95138867D01*
X96794552Y-95094552D01*
X96838867Y-95028231D01*
X96838867Y-95028229D01*
X96838868Y-95028229D01*
X96850499Y-94969752D01*
X96850500Y-94969750D01*
X96850500Y-94274500D01*
X96870185Y-94207461D01*
X96922989Y-94161706D01*
X96974500Y-94150500D01*
X97128986Y-94150500D01*
X97136432Y-94149596D01*
X97136586Y-94150868D01*
X97198667Y-94153594D01*
X97255732Y-94193909D01*
X97281942Y-94258677D01*
X97274491Y-94314894D01*
X97263762Y-94343183D01*
X97244722Y-94499999D01*
X97244722Y-94500000D01*
X97263762Y-94656818D01*
X97319780Y-94804523D01*
X97319781Y-94804524D01*
X97409517Y-94934531D01*
X97505790Y-95019820D01*
X97527760Y-95039283D01*
X97527763Y-95039284D01*
X97527765Y-95039286D01*
X97533120Y-95042096D01*
X97583335Y-95090678D01*
X97599500Y-95151895D01*
X97599500Y-95324167D01*
X97579815Y-95391206D01*
X97563181Y-95411848D01*
X97547794Y-95427234D01*
X97502415Y-95530006D01*
X97502415Y-95530008D01*
X97499500Y-95555131D01*
X97499500Y-95894856D01*
X97499502Y-95894882D01*
X97502413Y-95919987D01*
X97502415Y-95919991D01*
X97547793Y-96022764D01*
X97547794Y-96022765D01*
X97627235Y-96102206D01*
X97687342Y-96128745D01*
X97717090Y-96141881D01*
X97770466Y-96186967D01*
X97790993Y-96253753D01*
X97772155Y-96321035D01*
X97765379Y-96330802D01*
X97711524Y-96400987D01*
X97655096Y-96442189D01*
X97613148Y-96449500D01*
X97355143Y-96449500D01*
X97355117Y-96449502D01*
X97330012Y-96452413D01*
X97330008Y-96452415D01*
X97227235Y-96497793D01*
X97227234Y-96497794D01*
X97186848Y-96538181D01*
X97125525Y-96571666D01*
X97099167Y-96574500D01*
X95693397Y-96574500D01*
X95625998Y-96592559D01*
X95616966Y-96594980D01*
X95556576Y-96629847D01*
X95556575Y-96629847D01*
X95548447Y-96634539D01*
X95355900Y-96827087D01*
X95294577Y-96860572D01*
X95268219Y-96863406D01*
X95172089Y-96863406D01*
X95034002Y-96903951D01*
X94912926Y-96981762D01*
X94818676Y-97090532D01*
X94818675Y-97090534D01*
X94758887Y-97221449D01*
X94738406Y-97363906D01*
X94738406Y-97363907D01*
X94739714Y-97373009D01*
X94729766Y-97442167D01*
X94704656Y-97478330D01*
X94444805Y-97738182D01*
X94383485Y-97771666D01*
X94357126Y-97774500D01*
X93721457Y-97774500D01*
X93654418Y-97754815D01*
X93608663Y-97702011D01*
X93598719Y-97632853D01*
X93627744Y-97569297D01*
X93674005Y-97535939D01*
X93702586Y-97524100D01*
X93827924Y-97427924D01*
X93924100Y-97302586D01*
X93984554Y-97156634D01*
X93984555Y-97156630D01*
X93995303Y-97075000D01*
X93224000Y-97075000D01*
X93156961Y-97055315D01*
X93111206Y-97002511D01*
X93100000Y-96951000D01*
X93100000Y-96215132D01*
X93116780Y-96157987D01*
X93500000Y-96157987D01*
X93500000Y-96675000D01*
X93995301Y-96675000D01*
X93995302Y-96674998D01*
X93984557Y-96593372D01*
X93984555Y-96593366D01*
X93924100Y-96447414D01*
X93827924Y-96322075D01*
X93702586Y-96225899D01*
X93556631Y-96165444D01*
X93500000Y-96157987D01*
X93116780Y-96157987D01*
X93119685Y-96148093D01*
X93163979Y-96109711D01*
X93163286Y-96108699D01*
X93172175Y-96102609D01*
X93172489Y-96102338D01*
X93172730Y-96102229D01*
X93172760Y-96102207D01*
X93172765Y-96102206D01*
X93252206Y-96022765D01*
X93297585Y-95919991D01*
X93300500Y-95894865D01*
X93300499Y-95555136D01*
X93300497Y-95555117D01*
X93297586Y-95530012D01*
X93297585Y-95530010D01*
X93297585Y-95530009D01*
X93252206Y-95427235D01*
X93236819Y-95411848D01*
X93203334Y-95350525D01*
X93200500Y-95324167D01*
X93200500Y-95151895D01*
X93220185Y-95084856D01*
X93266880Y-95042096D01*
X93272234Y-95039286D01*
X93272233Y-95039286D01*
X93272240Y-95039283D01*
X93390483Y-94934530D01*
X93480220Y-94804523D01*
X93536237Y-94656818D01*
X93555278Y-94500000D01*
X93536237Y-94343182D01*
X93536236Y-94343179D01*
X93536236Y-94343177D01*
X93525510Y-94314896D01*
X93520142Y-94245233D01*
X93553288Y-94183727D01*
X93614426Y-94149905D01*
X93663465Y-94150443D01*
X93663568Y-94149596D01*
X93671014Y-94150500D01*
X93671015Y-94150500D01*
X93828986Y-94150500D01*
X93836432Y-94149596D01*
X93836586Y-94150868D01*
X93898667Y-94153594D01*
X93955732Y-94193909D01*
X93981942Y-94258677D01*
X93974491Y-94314894D01*
X93963762Y-94343183D01*
X93944722Y-94499999D01*
X93944722Y-94500000D01*
X93963762Y-94656818D01*
X94015933Y-94794379D01*
X94019780Y-94804523D01*
X94109517Y-94934530D01*
X94227760Y-95039283D01*
X94227762Y-95039284D01*
X94367634Y-95112696D01*
X94521014Y-95150500D01*
X94521015Y-95150500D01*
X94678985Y-95150500D01*
X94832365Y-95112696D01*
X94885409Y-95084856D01*
X94972240Y-95039283D01*
X95090483Y-94934530D01*
X95180220Y-94804523D01*
X95236237Y-94656818D01*
X95255278Y-94500000D01*
X95239033Y-94366205D01*
X95236237Y-94343181D01*
X95204856Y-94260438D01*
X95180220Y-94195477D01*
X95090483Y-94065470D01*
X94972240Y-93960717D01*
X94972238Y-93960716D01*
X94972237Y-93960715D01*
X94832365Y-93887303D01*
X94678986Y-93849500D01*
X94678985Y-93849500D01*
X94521015Y-93849500D01*
X94521014Y-93849500D01*
X94513568Y-93850404D01*
X94513414Y-93849135D01*
X94451313Y-93846399D01*
X94394254Y-93806074D01*
X94368055Y-93741302D01*
X94375510Y-93685102D01*
X94376865Y-93681530D01*
X94386237Y-93656818D01*
X94405278Y-93500000D01*
X94387619Y-93354563D01*
X94399080Y-93285640D01*
X94423031Y-93251939D01*
X94588153Y-93086816D01*
X94649475Y-93053334D01*
X94675833Y-93050500D01*
X96345118Y-93050500D01*
X96412157Y-93070185D01*
G37*
%TD.AperFunction*%
%TA.AperFunction,Conductor*%
G36*
X91412157Y-93070185D02*
G01*
X91457912Y-93122989D01*
X91467856Y-93192147D01*
X91461061Y-93218465D01*
X91448368Y-93251936D01*
X91413762Y-93343182D01*
X91394722Y-93499999D01*
X91394722Y-93500000D01*
X91413763Y-93656819D01*
X91413763Y-93656821D01*
X91423134Y-93681530D01*
X91428501Y-93751193D01*
X91395353Y-93812699D01*
X91334214Y-93846520D01*
X91307192Y-93849500D01*
X90730247Y-93849500D01*
X90671770Y-93861131D01*
X90671769Y-93861132D01*
X90605447Y-93905447D01*
X90561132Y-93971769D01*
X90561131Y-93971770D01*
X90549500Y-94030247D01*
X90549500Y-94969752D01*
X90561131Y-95028229D01*
X90561132Y-95028230D01*
X90605447Y-95094552D01*
X90671769Y-95138867D01*
X90671770Y-95138868D01*
X90730247Y-95150499D01*
X90730250Y-95150500D01*
X90730252Y-95150500D01*
X91669750Y-95150500D01*
X91669751Y-95150499D01*
X91687389Y-95146991D01*
X91728229Y-95138868D01*
X91728229Y-95138867D01*
X91728231Y-95138867D01*
X91794552Y-95094552D01*
X91838867Y-95028231D01*
X91838867Y-95028229D01*
X91838868Y-95028229D01*
X91850499Y-94969752D01*
X91850500Y-94969750D01*
X91850500Y-94274500D01*
X91870185Y-94207461D01*
X91922989Y-94161706D01*
X91974500Y-94150500D01*
X92128986Y-94150500D01*
X92136432Y-94149596D01*
X92136586Y-94150868D01*
X92198667Y-94153594D01*
X92255732Y-94193909D01*
X92281942Y-94258677D01*
X92274491Y-94314894D01*
X92263762Y-94343183D01*
X92244722Y-94499999D01*
X92244722Y-94500000D01*
X92263762Y-94656818D01*
X92319780Y-94804523D01*
X92319781Y-94804524D01*
X92409517Y-94934531D01*
X92505790Y-95019820D01*
X92527760Y-95039283D01*
X92527763Y-95039284D01*
X92527765Y-95039286D01*
X92533120Y-95042096D01*
X92583335Y-95090678D01*
X92599500Y-95151895D01*
X92599500Y-95324167D01*
X92579815Y-95391206D01*
X92563181Y-95411848D01*
X92547794Y-95427234D01*
X92502415Y-95530006D01*
X92502415Y-95530008D01*
X92499500Y-95555131D01*
X92499500Y-95894856D01*
X92499502Y-95894882D01*
X92502413Y-95919987D01*
X92502415Y-95919991D01*
X92547793Y-96022764D01*
X92547794Y-96022765D01*
X92627235Y-96102206D01*
X92687342Y-96128745D01*
X92717090Y-96141881D01*
X92770466Y-96186967D01*
X92790993Y-96253753D01*
X92772155Y-96321035D01*
X92765379Y-96330802D01*
X92711524Y-96400987D01*
X92655096Y-96442189D01*
X92613148Y-96449500D01*
X92355143Y-96449500D01*
X92355117Y-96449502D01*
X92330012Y-96452413D01*
X92330008Y-96452415D01*
X92227235Y-96497793D01*
X92147794Y-96577234D01*
X92102415Y-96680006D01*
X92102415Y-96680008D01*
X92099500Y-96705131D01*
X92099500Y-96799166D01*
X92079815Y-96866205D01*
X92063181Y-96886847D01*
X91886848Y-97063181D01*
X91825525Y-97096666D01*
X91799167Y-97099500D01*
X88272973Y-97099500D01*
X88205934Y-97079815D01*
X88200343Y-97075000D01*
X87424000Y-97075000D01*
X87356961Y-97055315D01*
X87311206Y-97002511D01*
X87300000Y-96951000D01*
X87300000Y-96215132D01*
X87316780Y-96157987D01*
X87700000Y-96157987D01*
X87700000Y-96675000D01*
X88195301Y-96675000D01*
X88195302Y-96674998D01*
X88184557Y-96593372D01*
X88184555Y-96593366D01*
X88124100Y-96447414D01*
X88027924Y-96322075D01*
X87902586Y-96225899D01*
X87756631Y-96165444D01*
X87700000Y-96157987D01*
X87316780Y-96157987D01*
X87319685Y-96148093D01*
X87363979Y-96109711D01*
X87363286Y-96108699D01*
X87372175Y-96102609D01*
X87372489Y-96102338D01*
X87372730Y-96102229D01*
X87372760Y-96102207D01*
X87372765Y-96102206D01*
X87452206Y-96022765D01*
X87497585Y-95919991D01*
X87500500Y-95894865D01*
X87500499Y-95555136D01*
X87500497Y-95555117D01*
X87497586Y-95530012D01*
X87497585Y-95530010D01*
X87497585Y-95530009D01*
X87452206Y-95427235D01*
X87436819Y-95411848D01*
X87403334Y-95350525D01*
X87400500Y-95324167D01*
X87400500Y-95151895D01*
X87420185Y-95084856D01*
X87466880Y-95042096D01*
X87472234Y-95039286D01*
X87472233Y-95039286D01*
X87472240Y-95039283D01*
X87590483Y-94934530D01*
X87680220Y-94804523D01*
X87736237Y-94656818D01*
X87755278Y-94500000D01*
X87736237Y-94343182D01*
X87736236Y-94343179D01*
X87736236Y-94343177D01*
X87725510Y-94314896D01*
X87720142Y-94245233D01*
X87753288Y-94183727D01*
X87814426Y-94149905D01*
X87863465Y-94150443D01*
X87863568Y-94149596D01*
X87871014Y-94150500D01*
X87871015Y-94150500D01*
X88028986Y-94150500D01*
X88036432Y-94149596D01*
X88036586Y-94150868D01*
X88098667Y-94153594D01*
X88155732Y-94193909D01*
X88181942Y-94258677D01*
X88174491Y-94314894D01*
X88163762Y-94343183D01*
X88144722Y-94499999D01*
X88144722Y-94500000D01*
X88163762Y-94656818D01*
X88215933Y-94794379D01*
X88219780Y-94804523D01*
X88309517Y-94934530D01*
X88427760Y-95039283D01*
X88427762Y-95039284D01*
X88567634Y-95112696D01*
X88721014Y-95150500D01*
X88721015Y-95150500D01*
X88878985Y-95150500D01*
X89032365Y-95112696D01*
X89085409Y-95084856D01*
X89172240Y-95039283D01*
X89290483Y-94934530D01*
X89380220Y-94804523D01*
X89436237Y-94656818D01*
X89455278Y-94500000D01*
X89439033Y-94366205D01*
X89436237Y-94343181D01*
X89404856Y-94260438D01*
X89380220Y-94195477D01*
X89290483Y-94065470D01*
X89172240Y-93960717D01*
X89172238Y-93960716D01*
X89172237Y-93960715D01*
X89032365Y-93887303D01*
X88878986Y-93849500D01*
X88878985Y-93849500D01*
X88721015Y-93849500D01*
X88721014Y-93849500D01*
X88713568Y-93850404D01*
X88713414Y-93849135D01*
X88651313Y-93846399D01*
X88594254Y-93806074D01*
X88568055Y-93741302D01*
X88575510Y-93685102D01*
X88576865Y-93681530D01*
X88586237Y-93656818D01*
X88605278Y-93500000D01*
X88587619Y-93354563D01*
X88599080Y-93285640D01*
X88623031Y-93251939D01*
X88788153Y-93086816D01*
X88849475Y-93053334D01*
X88875833Y-93050500D01*
X91345118Y-93050500D01*
X91412157Y-93070185D01*
G37*
%TD.AperFunction*%
%TA.AperFunction,Conductor*%
G36*
X98836586Y-94150868D02*
G01*
X98898667Y-94153594D01*
X98955732Y-94193909D01*
X98981942Y-94258677D01*
X98974491Y-94314894D01*
X98963762Y-94343183D01*
X98944722Y-94499999D01*
X98944722Y-94500000D01*
X98963762Y-94656818D01*
X99015933Y-94794379D01*
X99019780Y-94804523D01*
X99109517Y-94934530D01*
X99227760Y-95039283D01*
X99227762Y-95039284D01*
X99367634Y-95112696D01*
X99521014Y-95150500D01*
X99521015Y-95150500D01*
X99678983Y-95150500D01*
X99678985Y-95150500D01*
X99705673Y-95143922D01*
X99775474Y-95146991D01*
X99832536Y-95187311D01*
X99858741Y-95252080D01*
X99845770Y-95320735D01*
X99823028Y-95352000D01*
X98918980Y-96256047D01*
X98857657Y-96289532D01*
X98787965Y-96284548D01*
X98755812Y-96266741D01*
X98702589Y-96225901D01*
X98702587Y-96225900D01*
X98556631Y-96165444D01*
X98500000Y-96157987D01*
X98500000Y-96748513D01*
X98499500Y-96756140D01*
X98499500Y-96951000D01*
X98479815Y-97018039D01*
X98427011Y-97063794D01*
X98375500Y-97075000D01*
X98224000Y-97075000D01*
X98156961Y-97055315D01*
X98111206Y-97002511D01*
X98100000Y-96951000D01*
X98100000Y-96215132D01*
X98119685Y-96148093D01*
X98163979Y-96109711D01*
X98163286Y-96108699D01*
X98172175Y-96102609D01*
X98172489Y-96102338D01*
X98172730Y-96102229D01*
X98172760Y-96102207D01*
X98172765Y-96102206D01*
X98252206Y-96022765D01*
X98297585Y-95919991D01*
X98300500Y-95894865D01*
X98300499Y-95555136D01*
X98300497Y-95555117D01*
X98297586Y-95530012D01*
X98297585Y-95530010D01*
X98297585Y-95530009D01*
X98252206Y-95427235D01*
X98236819Y-95411848D01*
X98203334Y-95350525D01*
X98200500Y-95324167D01*
X98200500Y-95151895D01*
X98220185Y-95084856D01*
X98266880Y-95042096D01*
X98272234Y-95039286D01*
X98272233Y-95039286D01*
X98272240Y-95039283D01*
X98390483Y-94934530D01*
X98480220Y-94804523D01*
X98536237Y-94656818D01*
X98555278Y-94500000D01*
X98536237Y-94343182D01*
X98536236Y-94343179D01*
X98536236Y-94343177D01*
X98525510Y-94314896D01*
X98520142Y-94245233D01*
X98553288Y-94183727D01*
X98614426Y-94149905D01*
X98663465Y-94150443D01*
X98663568Y-94149596D01*
X98671014Y-94150500D01*
X98671015Y-94150500D01*
X98828986Y-94150500D01*
X98836432Y-94149596D01*
X98836586Y-94150868D01*
G37*
%TD.AperFunction*%
%TA.AperFunction,Conductor*%
G36*
X94021387Y-79065244D02*
G01*
X94139990Y-79100069D01*
X94225500Y-79100069D01*
X94292539Y-79119754D01*
X94338294Y-79172558D01*
X94349500Y-79224069D01*
X94349500Y-79705248D01*
X94369979Y-79781675D01*
X94408979Y-79849226D01*
X94409540Y-79850197D01*
X95399803Y-80840460D01*
X95468326Y-80880022D01*
X95544752Y-80900500D01*
X95705832Y-80900500D01*
X95772871Y-80920185D01*
X95818626Y-80972989D01*
X95828570Y-81042147D01*
X95808933Y-81093392D01*
X95790610Y-81120812D01*
X95790602Y-81120827D01*
X95730264Y-81266498D01*
X95730261Y-81266510D01*
X95699500Y-81421153D01*
X95699500Y-81578846D01*
X95730261Y-81733489D01*
X95730264Y-81733501D01*
X95790602Y-81879172D01*
X95790609Y-81879185D01*
X95878210Y-82010288D01*
X95878213Y-82010292D01*
X95989707Y-82121786D01*
X95989711Y-82121789D01*
X96120814Y-82209390D01*
X96120821Y-82209394D01*
X96124549Y-82210938D01*
X96178953Y-82254778D01*
X96201019Y-82321072D01*
X96183741Y-82388771D01*
X96132605Y-82436383D01*
X96077098Y-82449500D01*
X95525833Y-82449500D01*
X95458794Y-82429815D01*
X95438152Y-82413181D01*
X93898771Y-80873800D01*
X93865286Y-80812477D01*
X93862452Y-80786119D01*
X93862452Y-79184221D01*
X93882137Y-79117182D01*
X93934941Y-79071427D01*
X94004099Y-79061483D01*
X94021387Y-79065244D01*
G37*
%TD.AperFunction*%
%TA.AperFunction,Conductor*%
G36*
X92886587Y-73292355D02*
G01*
X93257053Y-73353298D01*
X93262700Y-73354361D01*
X94030125Y-73517538D01*
X94035694Y-73518858D01*
X94794722Y-73717507D01*
X94800188Y-73719074D01*
X95549154Y-73952760D01*
X95554573Y-73954589D01*
X96291894Y-74222816D01*
X96297223Y-74224897D01*
X97021252Y-74527066D01*
X97026497Y-74529400D01*
X97735725Y-74864881D01*
X97740833Y-74867445D01*
X98271728Y-75149458D01*
X98433688Y-75235492D01*
X98438712Y-75238312D01*
X99113717Y-75638140D01*
X99118604Y-75641190D01*
X99378784Y-75812108D01*
X99774319Y-76071945D01*
X99779028Y-76075197D01*
X100365188Y-76500507D01*
X100370197Y-76504652D01*
X100373987Y-76507379D01*
X100404110Y-76529053D01*
X100420412Y-76540782D01*
X100423126Y-76542792D01*
X100468786Y-76577571D01*
X100474977Y-76581116D01*
X100501044Y-76601044D01*
X103540157Y-79640157D01*
X103561615Y-79669976D01*
X103561742Y-79669901D01*
X103562632Y-79671390D01*
X103563470Y-79672555D01*
X103564180Y-79673980D01*
X103586289Y-79705248D01*
X103589831Y-79710256D01*
X103596881Y-79723106D01*
X103597289Y-79722874D01*
X103601321Y-79729928D01*
X103601324Y-79729936D01*
X103632388Y-79770797D01*
X103634706Y-79773846D01*
X103637228Y-79777285D01*
X103669274Y-79822592D01*
X103678205Y-79833486D01*
X104102386Y-80419188D01*
X104105653Y-80423927D01*
X104535211Y-81079040D01*
X104538255Y-81083927D01*
X104936933Y-81758253D01*
X104939747Y-81763275D01*
X105306702Y-82455385D01*
X105309280Y-82460532D01*
X105390298Y-82632143D01*
X105622028Y-83122989D01*
X105643725Y-83168946D01*
X105646061Y-83174208D01*
X105766030Y-83462248D01*
X105773635Y-83531702D01*
X105761805Y-83555449D01*
X105771860Y-83557140D01*
X105823562Y-83604136D01*
X105832152Y-83621002D01*
X105858850Y-83685102D01*
X105947087Y-83896954D01*
X105947251Y-83897346D01*
X105949341Y-83902711D01*
X106216656Y-84639084D01*
X106218494Y-84644539D01*
X106451339Y-85392511D01*
X106452922Y-85398046D01*
X106650803Y-86156026D01*
X106652127Y-86161628D01*
X106814611Y-86927962D01*
X106815674Y-86933620D01*
X106942414Y-87706660D01*
X106943214Y-87712361D01*
X107033944Y-88490499D01*
X107034477Y-88496231D01*
X107088989Y-89277674D01*
X107089257Y-89283425D01*
X107107442Y-90066608D01*
X107107442Y-90072364D01*
X107089257Y-90855547D01*
X107088989Y-90861298D01*
X107034478Y-91642742D01*
X107033945Y-91648474D01*
X106943215Y-92426612D01*
X106942415Y-92432313D01*
X106815676Y-93205353D01*
X106814613Y-93211011D01*
X106652128Y-93977345D01*
X106650804Y-93982947D01*
X106452924Y-94740926D01*
X106451341Y-94746461D01*
X106218496Y-95494434D01*
X106216658Y-95499889D01*
X105949346Y-96236254D01*
X105947256Y-96241619D01*
X105646059Y-96964773D01*
X105643723Y-96970034D01*
X105309283Y-97678441D01*
X105306705Y-97683588D01*
X104939750Y-98375699D01*
X104936936Y-98380721D01*
X104538258Y-99055047D01*
X104535214Y-99059933D01*
X104105648Y-99715060D01*
X104102380Y-99719800D01*
X103678207Y-100305488D01*
X103669275Y-100316386D01*
X103640712Y-100356766D01*
X103627160Y-100372838D01*
X100358247Y-103641751D01*
X100343408Y-103654420D01*
X99781537Y-104062269D01*
X99776793Y-104065546D01*
X99572777Y-104199614D01*
X99505942Y-104219981D01*
X99438705Y-104200980D01*
X99392415Y-104148644D01*
X99381768Y-104079591D01*
X99410144Y-104015743D01*
X99416998Y-104008305D01*
X99472576Y-103952727D01*
X99561542Y-103808492D01*
X99561547Y-103808481D01*
X99614855Y-103647606D01*
X99624999Y-103548322D01*
X99625000Y-103548309D01*
X99625000Y-103500000D01*
X98925000Y-103500000D01*
X98925000Y-104224999D01*
X98948308Y-104224999D01*
X98948322Y-104224998D01*
X99047607Y-104214855D01*
X99164733Y-104176044D01*
X99234561Y-104173642D01*
X99294603Y-104209374D01*
X99325796Y-104271894D01*
X99318235Y-104341354D01*
X99274323Y-104395699D01*
X99271880Y-104397347D01*
X99123961Y-104494552D01*
X99120668Y-104496716D01*
X99115778Y-104499769D01*
X98440274Y-104900000D01*
X98435246Y-104902823D01*
X97741888Y-105271208D01*
X97736735Y-105273794D01*
X97027003Y-105609552D01*
X97021735Y-105611896D01*
X96297159Y-105914302D01*
X96291789Y-105916398D01*
X95553928Y-106184800D01*
X95548465Y-106186644D01*
X94798955Y-106420447D01*
X94793412Y-106422036D01*
X94033817Y-106620752D01*
X94028207Y-106622081D01*
X93260209Y-106785272D01*
X93254543Y-106786339D01*
X92479777Y-106913655D01*
X92474068Y-106914457D01*
X91694233Y-107005621D01*
X91688492Y-107006157D01*
X90905270Y-107060971D01*
X90899511Y-107061240D01*
X90114577Y-107079588D01*
X90108811Y-107079589D01*
X89323872Y-107061430D01*
X89318113Y-107061163D01*
X88534855Y-107006536D01*
X88529114Y-107006001D01*
X87749261Y-106915026D01*
X87743551Y-106914225D01*
X86968752Y-106787095D01*
X86963086Y-106786029D01*
X86195048Y-106623023D01*
X86189447Y-106621697D01*
X85429812Y-106423165D01*
X85424272Y-106421579D01*
X84674685Y-106187949D01*
X84669222Y-106186106D01*
X83931313Y-105917888D01*
X83925941Y-105915793D01*
X83201294Y-105613563D01*
X83196026Y-105611221D01*
X82486203Y-105275630D01*
X82481049Y-105273045D01*
X82322111Y-105188649D01*
X81787586Y-104904816D01*
X81782576Y-104902004D01*
X81298725Y-104615484D01*
X81106990Y-104501945D01*
X81102099Y-104498893D01*
X80445845Y-104067866D01*
X80441101Y-104064590D01*
X79854419Y-103638949D01*
X79849465Y-103634850D01*
X79799202Y-103598688D01*
X79796490Y-103596680D01*
X79750834Y-103561908D01*
X79743779Y-103557869D01*
X79744142Y-103557234D01*
X79732287Y-103550661D01*
X79698213Y-103526193D01*
X79635523Y-103494460D01*
X79603844Y-103471508D01*
X76709171Y-100576835D01*
X76685856Y-100544434D01*
X76646711Y-100465830D01*
X76637878Y-100453337D01*
X76624354Y-100428689D01*
X76616318Y-100409040D01*
X76577344Y-100357774D01*
X76575628Y-100355462D01*
X76175726Y-99803285D01*
X76115243Y-99719772D01*
X76111981Y-99715038D01*
X76104120Y-99703050D01*
X75770481Y-99194219D01*
X75682437Y-99059944D01*
X75679393Y-99055058D01*
X75566835Y-98864677D01*
X75280704Y-98380714D01*
X75277895Y-98375700D01*
X74910931Y-97683572D01*
X74908362Y-97678442D01*
X74908362Y-97678441D01*
X74573908Y-96970008D01*
X74571585Y-96964773D01*
X74297419Y-96306517D01*
X75574500Y-96306517D01*
X75579854Y-96340321D01*
X75589354Y-96400304D01*
X75646950Y-96513342D01*
X75646952Y-96513344D01*
X75646954Y-96513347D01*
X75736652Y-96603045D01*
X75736654Y-96603046D01*
X75736658Y-96603050D01*
X75849696Y-96660646D01*
X75894150Y-96667686D01*
X75957282Y-96697613D01*
X75962433Y-96702478D01*
X77445529Y-98185574D01*
X77479014Y-98246897D01*
X77480586Y-98290901D01*
X77479278Y-98299998D01*
X77499759Y-98442455D01*
X77544759Y-98540989D01*
X77559548Y-98573372D01*
X77653797Y-98682142D01*
X77774872Y-98759952D01*
X77774875Y-98759953D01*
X77774874Y-98759953D01*
X77912961Y-98800498D01*
X77912963Y-98800499D01*
X77912964Y-98800499D01*
X78056887Y-98800499D01*
X78056887Y-98800498D01*
X78194978Y-98759952D01*
X78316053Y-98682142D01*
X78410302Y-98573372D01*
X78470090Y-98442456D01*
X78490572Y-98299999D01*
X78470090Y-98157542D01*
X78410302Y-98026626D01*
X78316053Y-97917856D01*
X78194978Y-97840046D01*
X78194976Y-97840045D01*
X78194974Y-97840044D01*
X78194975Y-97840044D01*
X78056888Y-97799499D01*
X78056886Y-97799499D01*
X77960758Y-97799499D01*
X77893719Y-97779814D01*
X77873077Y-97763180D01*
X76739814Y-96629917D01*
X76706329Y-96568594D01*
X76711313Y-96498902D01*
X76717004Y-96485955D01*
X76760646Y-96400304D01*
X76760646Y-96400302D01*
X76760647Y-96400301D01*
X76775499Y-96306524D01*
X76775500Y-96306519D01*
X76775499Y-95693482D01*
X76760646Y-95599696D01*
X76703050Y-95486658D01*
X76703046Y-95486654D01*
X76703045Y-95486652D01*
X76613347Y-95396954D01*
X76613344Y-95396952D01*
X76613342Y-95396950D01*
X76525123Y-95352000D01*
X76500301Y-95339352D01*
X76406524Y-95324500D01*
X75943482Y-95324500D01*
X75862519Y-95337323D01*
X75849696Y-95339354D01*
X75736658Y-95396950D01*
X75736657Y-95396951D01*
X75736652Y-95396954D01*
X75646954Y-95486652D01*
X75646951Y-95486657D01*
X75646950Y-95486658D01*
X75640208Y-95499890D01*
X75589352Y-95599698D01*
X75574500Y-95693475D01*
X75574500Y-96306517D01*
X74297419Y-96306517D01*
X74270382Y-96241602D01*
X74268311Y-96236288D01*
X74000979Y-95499867D01*
X73999156Y-95494458D01*
X73766302Y-94746457D01*
X73764721Y-94740928D01*
X73566838Y-93982939D01*
X73565517Y-93977347D01*
X73564334Y-93971769D01*
X73403033Y-93211011D01*
X73401970Y-93205354D01*
X73377046Y-93053334D01*
X73356035Y-92925179D01*
X73364613Y-92855841D01*
X73409319Y-92802146D01*
X73475957Y-92781144D01*
X73509589Y-92787491D01*
X73509790Y-92786485D01*
X73580247Y-92800499D01*
X73580250Y-92800500D01*
X73580252Y-92800500D01*
X74269750Y-92800500D01*
X74269751Y-92800499D01*
X74284568Y-92797552D01*
X74328229Y-92788868D01*
X74328229Y-92788867D01*
X74328231Y-92788867D01*
X74394552Y-92744552D01*
X74438867Y-92678231D01*
X74438867Y-92678229D01*
X74438868Y-92678229D01*
X74450499Y-92619752D01*
X75549500Y-92619752D01*
X75561131Y-92678229D01*
X75561132Y-92678230D01*
X75605447Y-92744552D01*
X75671769Y-92788867D01*
X75671770Y-92788868D01*
X75730247Y-92800499D01*
X75730250Y-92800500D01*
X75730252Y-92800500D01*
X75774167Y-92800500D01*
X75841206Y-92820185D01*
X75861848Y-92836819D01*
X77488181Y-94463152D01*
X77521666Y-94524475D01*
X77524500Y-94550833D01*
X77524500Y-95250728D01*
X77504815Y-95317767D01*
X77456796Y-95361212D01*
X77386659Y-95396949D01*
X77386652Y-95396954D01*
X77296954Y-95486652D01*
X77296951Y-95486657D01*
X77296950Y-95486658D01*
X77290208Y-95499890D01*
X77239352Y-95599698D01*
X77224500Y-95693475D01*
X77224500Y-96306517D01*
X77229854Y-96340321D01*
X77239354Y-96400304D01*
X77296950Y-96513342D01*
X77296952Y-96513344D01*
X77296954Y-96513347D01*
X77386652Y-96603045D01*
X77386654Y-96603046D01*
X77386658Y-96603050D01*
X77470956Y-96646002D01*
X77499698Y-96660647D01*
X77584219Y-96674033D01*
X77590311Y-96674998D01*
X77593475Y-96675499D01*
X77593481Y-96675500D01*
X78056518Y-96675499D01*
X78150304Y-96660646D01*
X78263342Y-96603050D01*
X78353050Y-96513342D01*
X78410646Y-96400304D01*
X78410646Y-96400302D01*
X78410647Y-96400301D01*
X78412375Y-96389389D01*
X78949500Y-96389389D01*
X78952425Y-96400304D01*
X78969979Y-96465817D01*
X78969980Y-96465818D01*
X78997418Y-96513342D01*
X78997419Y-96513343D01*
X79009539Y-96534337D01*
X79913181Y-97437979D01*
X79946666Y-97499302D01*
X79949500Y-97525660D01*
X79949500Y-97941808D01*
X79929815Y-98008847D01*
X79877011Y-98054602D01*
X79807853Y-98064546D01*
X79778044Y-98056368D01*
X79770603Y-98053285D01*
X79701304Y-98039501D01*
X79701302Y-98039501D01*
X79198698Y-98039501D01*
X79198696Y-98039501D01*
X79129396Y-98053285D01*
X79129393Y-98053287D01*
X79050800Y-98105801D01*
X78998286Y-98184394D01*
X78998284Y-98184397D01*
X78984500Y-98253696D01*
X78984500Y-98253698D01*
X78984500Y-98253699D01*
X78984500Y-99196303D01*
X78984500Y-99196305D01*
X78984499Y-99196305D01*
X78998284Y-99265604D01*
X78998285Y-99265606D01*
X78998286Y-99265608D01*
X79050800Y-99344201D01*
X79129393Y-99396715D01*
X79129395Y-99396715D01*
X79129396Y-99396716D01*
X79198695Y-99410501D01*
X79198698Y-99410501D01*
X79701304Y-99410501D01*
X79770602Y-99396716D01*
X79770602Y-99396715D01*
X79770607Y-99396715D01*
X79781110Y-99389697D01*
X79847781Y-99368818D01*
X79915162Y-99387299D01*
X79918873Y-99389684D01*
X79929393Y-99396714D01*
X79929394Y-99396714D01*
X79929396Y-99396715D01*
X79998695Y-99410500D01*
X80236607Y-99410500D01*
X80303646Y-99430185D01*
X80349401Y-99482989D01*
X80359345Y-99552147D01*
X80330320Y-99615703D01*
X80324288Y-99622181D01*
X80193289Y-99753180D01*
X80131966Y-99786665D01*
X80105608Y-99789499D01*
X79998696Y-99789499D01*
X79929396Y-99803283D01*
X79929391Y-99803285D01*
X79918886Y-99810305D01*
X79852208Y-99831181D01*
X79784828Y-99812694D01*
X79781125Y-99810314D01*
X79770606Y-99803286D01*
X79770605Y-99803285D01*
X79770602Y-99803284D01*
X79701303Y-99789500D01*
X79701301Y-99789500D01*
X79198697Y-99789500D01*
X79198695Y-99789500D01*
X79129395Y-99803284D01*
X79129392Y-99803286D01*
X79050799Y-99855800D01*
X78998285Y-99934393D01*
X78998283Y-99934396D01*
X78984499Y-100003695D01*
X78984499Y-100003698D01*
X78984499Y-100946302D01*
X78984499Y-100946304D01*
X78984498Y-100946304D01*
X78998283Y-101015603D01*
X78998284Y-101015605D01*
X78998285Y-101015607D01*
X79050799Y-101094200D01*
X79129392Y-101146714D01*
X79129394Y-101146714D01*
X79129395Y-101146715D01*
X79198694Y-101160500D01*
X79198697Y-101160500D01*
X79701303Y-101160500D01*
X79770602Y-101146715D01*
X79770602Y-101146714D01*
X79770606Y-101146714D01*
X79781108Y-101139696D01*
X79847784Y-101118817D01*
X79915164Y-101137300D01*
X79918873Y-101139683D01*
X79929393Y-101146713D01*
X79929394Y-101146713D01*
X79929396Y-101146714D01*
X79998695Y-101160499D01*
X79998698Y-101160499D01*
X80501304Y-101160499D01*
X80570602Y-101146714D01*
X80570602Y-101146713D01*
X80570607Y-101146713D01*
X80581110Y-101139695D01*
X80647781Y-101118817D01*
X80715162Y-101137299D01*
X80718873Y-101139684D01*
X80729393Y-101146714D01*
X80729394Y-101146714D01*
X80729396Y-101146715D01*
X80798695Y-101160500D01*
X80798698Y-101160500D01*
X80905608Y-101160500D01*
X80972647Y-101180185D01*
X80993289Y-101196819D01*
X81859289Y-102062819D01*
X81892774Y-102124142D01*
X81887790Y-102193834D01*
X81845918Y-102249767D01*
X81780454Y-102274184D01*
X81771608Y-102274500D01*
X81666507Y-102274500D01*
X81566878Y-102290279D01*
X81446778Y-102351473D01*
X81446774Y-102351476D01*
X81351476Y-102446774D01*
X81351471Y-102446781D01*
X81334537Y-102480016D01*
X81286562Y-102530812D01*
X81218741Y-102547606D01*
X81152606Y-102525068D01*
X81136372Y-102511401D01*
X80939395Y-102314424D01*
X80905910Y-102253101D01*
X80904339Y-102209094D01*
X80905647Y-102200000D01*
X80885165Y-102057543D01*
X80825377Y-101926627D01*
X80731128Y-101817857D01*
X80610053Y-101740047D01*
X80610051Y-101740046D01*
X80610049Y-101740045D01*
X80610050Y-101740045D01*
X80471963Y-101699500D01*
X80471961Y-101699500D01*
X80328039Y-101699500D01*
X80328036Y-101699500D01*
X80189949Y-101740045D01*
X80068873Y-101817856D01*
X79974623Y-101926626D01*
X79974622Y-101926628D01*
X79914834Y-102057543D01*
X79894353Y-102200000D01*
X79914834Y-102342456D01*
X79966236Y-102455008D01*
X79974623Y-102473373D01*
X80068872Y-102582143D01*
X80189947Y-102659953D01*
X80189950Y-102659954D01*
X80189949Y-102659954D01*
X80297107Y-102691417D01*
X80326336Y-102700000D01*
X80328036Y-102700499D01*
X80328038Y-102700500D01*
X80424167Y-102700500D01*
X80491206Y-102720185D01*
X80511848Y-102736819D01*
X80909540Y-103134511D01*
X80965489Y-103190460D01*
X80965491Y-103190461D01*
X80965495Y-103190464D01*
X80991447Y-103205447D01*
X81034011Y-103230021D01*
X81110438Y-103250500D01*
X81173343Y-103250500D01*
X81240382Y-103270185D01*
X81286137Y-103322989D01*
X81289445Y-103331486D01*
X81290281Y-103333126D01*
X81351472Y-103453220D01*
X81351474Y-103453222D01*
X81351476Y-103453225D01*
X81446774Y-103548523D01*
X81446778Y-103548526D01*
X81446780Y-103548528D01*
X81566874Y-103609719D01*
X81566876Y-103609719D01*
X81566878Y-103609720D01*
X81666507Y-103625500D01*
X81666512Y-103625500D01*
X82183493Y-103625500D01*
X82283121Y-103609720D01*
X82283121Y-103609719D01*
X82283126Y-103609719D01*
X82403220Y-103548528D01*
X82422173Y-103529574D01*
X82483494Y-103496090D01*
X82553185Y-103501073D01*
X82609120Y-103542944D01*
X82615392Y-103552159D01*
X82677424Y-103652728D01*
X82677427Y-103652732D01*
X82797267Y-103772572D01*
X82797271Y-103772575D01*
X82941507Y-103861542D01*
X82941518Y-103861547D01*
X83102393Y-103914855D01*
X83201683Y-103924999D01*
X83225000Y-103924998D01*
X83225000Y-103200000D01*
X83725000Y-103200000D01*
X83725000Y-103924999D01*
X83748308Y-103924999D01*
X83748322Y-103924998D01*
X83847607Y-103914855D01*
X84008481Y-103861547D01*
X84008492Y-103861542D01*
X84152728Y-103772575D01*
X84152732Y-103772572D01*
X84272572Y-103652732D01*
X84272575Y-103652728D01*
X84361542Y-103508492D01*
X84361547Y-103508481D01*
X84414855Y-103347606D01*
X84424999Y-103248322D01*
X84425000Y-103248309D01*
X84425000Y-103200000D01*
X83725000Y-103200000D01*
X83225000Y-103200000D01*
X83225000Y-102824000D01*
X83244685Y-102756961D01*
X83297489Y-102711206D01*
X83349000Y-102700000D01*
X84424999Y-102700000D01*
X84424999Y-102651692D01*
X84424998Y-102651679D01*
X84420955Y-102612103D01*
X84433724Y-102543410D01*
X84481604Y-102492525D01*
X84544313Y-102475500D01*
X84636668Y-102475500D01*
X84703707Y-102495185D01*
X84724349Y-102511819D01*
X85022041Y-102809511D01*
X85064922Y-102852392D01*
X85082231Y-102869701D01*
X85115715Y-102931025D01*
X85110730Y-103000717D01*
X85107983Y-103007468D01*
X85064916Y-103105004D01*
X85064915Y-103105008D01*
X85062000Y-103130131D01*
X85062000Y-103419856D01*
X85062002Y-103419882D01*
X85064913Y-103444986D01*
X85064914Y-103444990D01*
X85064915Y-103444991D01*
X85110294Y-103547765D01*
X85110295Y-103547766D01*
X85111243Y-103549913D01*
X85120314Y-103619191D01*
X85111243Y-103650085D01*
X85064915Y-103755009D01*
X85062000Y-103780131D01*
X85062000Y-104069856D01*
X85062002Y-104069882D01*
X85064913Y-104094987D01*
X85064915Y-104094991D01*
X85110293Y-104197764D01*
X85110294Y-104197765D01*
X85189735Y-104277206D01*
X85292509Y-104322585D01*
X85317635Y-104325500D01*
X85924166Y-104325499D01*
X85991205Y-104345183D01*
X86011847Y-104361818D01*
X86915174Y-105265145D01*
X86948659Y-105326468D01*
X86944535Y-105393780D01*
X86913686Y-105481942D01*
X86894751Y-105649997D01*
X86894751Y-105650002D01*
X86913685Y-105818056D01*
X86969545Y-105977694D01*
X86969547Y-105977697D01*
X87059518Y-106120884D01*
X87059523Y-106120890D01*
X87179109Y-106240476D01*
X87179115Y-106240481D01*
X87322302Y-106330452D01*
X87322305Y-106330454D01*
X87322309Y-106330455D01*
X87322310Y-106330456D01*
X87394913Y-106355860D01*
X87481943Y-106386314D01*
X87649997Y-106405249D01*
X87650000Y-106405249D01*
X87650003Y-106405249D01*
X87818056Y-106386314D01*
X87818059Y-106386313D01*
X87977690Y-106330456D01*
X87977692Y-106330454D01*
X87977694Y-106330454D01*
X87977697Y-106330452D01*
X88120884Y-106240481D01*
X88120885Y-106240480D01*
X88120890Y-106240477D01*
X88240477Y-106120890D01*
X88300026Y-106026119D01*
X88330452Y-105977697D01*
X88330454Y-105977694D01*
X88330454Y-105977692D01*
X88330456Y-105977690D01*
X88386313Y-105818059D01*
X88386313Y-105818058D01*
X88386314Y-105818056D01*
X88405249Y-105650002D01*
X88405249Y-105649997D01*
X88386314Y-105481943D01*
X88330454Y-105322305D01*
X88330452Y-105322302D01*
X88240481Y-105179115D01*
X88240476Y-105179109D01*
X88120890Y-105059523D01*
X88120884Y-105059518D01*
X87977697Y-104969547D01*
X87977694Y-104969545D01*
X87818056Y-104913685D01*
X87650003Y-104894751D01*
X87649997Y-104894751D01*
X87479912Y-104913915D01*
X87411090Y-104901861D01*
X87378347Y-104878376D01*
X86881402Y-104381431D01*
X86847917Y-104320108D01*
X86852901Y-104250416D01*
X86881402Y-104206069D01*
X86889706Y-104197765D01*
X86935085Y-104094991D01*
X86938000Y-104069865D01*
X86937999Y-103780136D01*
X86937122Y-103772572D01*
X86935086Y-103755012D01*
X86935085Y-103755010D01*
X86932690Y-103749585D01*
X86923619Y-103680307D01*
X86953443Y-103617122D01*
X87012693Y-103580092D01*
X87046125Y-103575500D01*
X87849167Y-103575500D01*
X87916206Y-103595185D01*
X87936848Y-103611819D01*
X89645733Y-105320704D01*
X89679218Y-105382027D01*
X89675094Y-105449337D01*
X89663687Y-105481938D01*
X89663686Y-105481941D01*
X89644751Y-105649997D01*
X89644751Y-105650002D01*
X89663685Y-105818056D01*
X89719545Y-105977694D01*
X89719547Y-105977697D01*
X89809518Y-106120884D01*
X89809523Y-106120890D01*
X89929109Y-106240476D01*
X89929115Y-106240481D01*
X90072302Y-106330452D01*
X90072305Y-106330454D01*
X90072309Y-106330455D01*
X90072310Y-106330456D01*
X90144913Y-106355860D01*
X90231943Y-106386314D01*
X90399997Y-106405249D01*
X90400000Y-106405249D01*
X90400003Y-106405249D01*
X90568056Y-106386314D01*
X90568059Y-106386313D01*
X90727690Y-106330456D01*
X90727692Y-106330454D01*
X90727694Y-106330454D01*
X90727697Y-106330452D01*
X90870884Y-106240481D01*
X90870885Y-106240480D01*
X90870890Y-106240477D01*
X90990477Y-106120890D01*
X91050026Y-106026119D01*
X91080452Y-105977697D01*
X91080454Y-105977694D01*
X91080454Y-105977692D01*
X91080456Y-105977690D01*
X91136313Y-105818059D01*
X91136313Y-105818058D01*
X91136314Y-105818056D01*
X91155249Y-105650002D01*
X91155249Y-105649997D01*
X91136314Y-105481943D01*
X91080454Y-105322305D01*
X91080452Y-105322302D01*
X90990481Y-105179115D01*
X90990476Y-105179109D01*
X90870890Y-105059523D01*
X90870884Y-105059518D01*
X90727697Y-104969547D01*
X90727694Y-104969545D01*
X90568056Y-104913685D01*
X90400003Y-104894751D01*
X90399997Y-104894751D01*
X90231941Y-104913686D01*
X90231938Y-104913687D01*
X90199337Y-104925094D01*
X90129558Y-104928655D01*
X90070704Y-104895733D01*
X88403561Y-103228590D01*
X88370076Y-103167267D01*
X88375060Y-103097575D01*
X88416932Y-103041642D01*
X88424204Y-103036593D01*
X88427398Y-103034540D01*
X88431128Y-103032143D01*
X88525377Y-102923373D01*
X88585165Y-102792457D01*
X88605647Y-102650000D01*
X88585165Y-102507543D01*
X88525377Y-102376627D01*
X88525375Y-102376625D01*
X88525374Y-102376622D01*
X88430787Y-102267462D01*
X88401762Y-102203906D01*
X88400500Y-102186260D01*
X88400500Y-101749500D01*
X88420185Y-101682461D01*
X88472989Y-101636706D01*
X88524500Y-101625500D01*
X89427858Y-101625500D01*
X89494897Y-101645185D01*
X89540652Y-101697989D01*
X89550596Y-101767147D01*
X89540652Y-101801012D01*
X89514834Y-101857543D01*
X89494353Y-102000000D01*
X89514834Y-102142456D01*
X89572104Y-102267857D01*
X89574623Y-102273373D01*
X89668872Y-102382143D01*
X89789947Y-102459953D01*
X89789950Y-102459954D01*
X89789949Y-102459954D01*
X89928036Y-102500499D01*
X89928038Y-102500500D01*
X89928039Y-102500500D01*
X90071962Y-102500500D01*
X90071962Y-102500499D01*
X90210053Y-102459953D01*
X90331128Y-102382143D01*
X90386451Y-102318296D01*
X90445228Y-102280523D01*
X90480163Y-102275500D01*
X90678875Y-102275500D01*
X90745914Y-102295185D01*
X90791669Y-102347989D01*
X90801613Y-102417147D01*
X90792309Y-102449588D01*
X90789915Y-102455009D01*
X90787000Y-102480131D01*
X90787000Y-102769856D01*
X90787002Y-102769882D01*
X90789913Y-102794986D01*
X90789914Y-102794990D01*
X90789915Y-102794991D01*
X90835294Y-102897765D01*
X90835295Y-102897766D01*
X90836243Y-102899913D01*
X90845314Y-102969191D01*
X90836243Y-103000085D01*
X90789915Y-103105009D01*
X90787000Y-103130131D01*
X90787000Y-103419856D01*
X90787002Y-103419882D01*
X90789913Y-103444986D01*
X90789914Y-103444990D01*
X90789915Y-103444991D01*
X90835294Y-103547765D01*
X90835295Y-103547766D01*
X90836243Y-103549913D01*
X90845314Y-103619191D01*
X90836243Y-103650085D01*
X90789915Y-103755009D01*
X90787000Y-103780131D01*
X90787000Y-104069856D01*
X90787002Y-104069882D01*
X90789913Y-104094987D01*
X90789915Y-104094991D01*
X90835293Y-104197764D01*
X90835294Y-104197765D01*
X90914735Y-104277206D01*
X91017509Y-104322585D01*
X91042635Y-104325500D01*
X91649166Y-104325499D01*
X91716205Y-104345183D01*
X91736847Y-104361818D01*
X92568413Y-105193384D01*
X92601898Y-105254707D01*
X92603470Y-105263417D01*
X92614834Y-105342453D01*
X92614835Y-105342458D01*
X92663646Y-105449337D01*
X92674623Y-105473373D01*
X92768872Y-105582143D01*
X92889947Y-105659953D01*
X92889950Y-105659954D01*
X92889949Y-105659954D01*
X93028036Y-105700499D01*
X93028038Y-105700500D01*
X93028039Y-105700500D01*
X93171962Y-105700500D01*
X93171962Y-105700499D01*
X93310053Y-105659953D01*
X93431128Y-105582143D01*
X93525377Y-105473373D01*
X93585165Y-105342457D01*
X93605647Y-105200000D01*
X93585165Y-105057543D01*
X93525377Y-104926627D01*
X93431128Y-104817857D01*
X93310053Y-104740047D01*
X93310051Y-104740046D01*
X93310049Y-104740045D01*
X93310050Y-104740045D01*
X93171963Y-104699500D01*
X93171961Y-104699500D01*
X93028039Y-104699500D01*
X93028037Y-104699500D01*
X93018561Y-104702282D01*
X92948692Y-104702277D01*
X92895954Y-104670983D01*
X92606402Y-104381431D01*
X92572917Y-104320108D01*
X92577901Y-104250416D01*
X92606402Y-104206069D01*
X92614706Y-104197765D01*
X92660085Y-104094991D01*
X92663000Y-104069865D01*
X92662999Y-103780136D01*
X92662122Y-103772572D01*
X92660086Y-103755012D01*
X92660085Y-103755010D01*
X92657690Y-103749585D01*
X92648619Y-103680307D01*
X92678443Y-103617122D01*
X92737693Y-103580092D01*
X92771125Y-103575500D01*
X93375500Y-103575500D01*
X93442539Y-103595185D01*
X93488294Y-103647989D01*
X93499500Y-103699500D01*
X93499500Y-104369752D01*
X93511131Y-104428229D01*
X93511132Y-104428230D01*
X93555447Y-104494552D01*
X93621769Y-104538867D01*
X93621770Y-104538868D01*
X93680247Y-104550499D01*
X93680250Y-104550500D01*
X93680252Y-104550500D01*
X95519750Y-104550500D01*
X95519751Y-104550499D01*
X95534568Y-104547552D01*
X95578229Y-104538868D01*
X95578229Y-104538867D01*
X95578231Y-104538867D01*
X95644552Y-104494552D01*
X95688867Y-104428231D01*
X95688867Y-104428229D01*
X95688868Y-104428229D01*
X95700499Y-104369752D01*
X95700500Y-104369750D01*
X95700500Y-104274500D01*
X95720185Y-104207461D01*
X95772989Y-104161706D01*
X95824500Y-104150500D01*
X96239560Y-104150500D01*
X96239562Y-104150500D01*
X96315989Y-104130021D01*
X96384511Y-104090460D01*
X96440460Y-104034511D01*
X96569604Y-103905365D01*
X96630925Y-103871882D01*
X96700617Y-103876866D01*
X96713567Y-103882557D01*
X96766874Y-103909719D01*
X96766876Y-103909719D01*
X96766878Y-103909720D01*
X96866507Y-103925500D01*
X96866512Y-103925500D01*
X97383493Y-103925500D01*
X97483121Y-103909720D01*
X97483121Y-103909719D01*
X97483126Y-103909719D01*
X97603220Y-103848528D01*
X97622173Y-103829574D01*
X97683494Y-103796090D01*
X97753185Y-103801073D01*
X97809120Y-103842944D01*
X97815392Y-103852159D01*
X97877424Y-103952728D01*
X97877427Y-103952732D01*
X97997267Y-104072572D01*
X97997271Y-104072575D01*
X98141507Y-104161542D01*
X98141518Y-104161547D01*
X98302393Y-104214855D01*
X98401683Y-104224999D01*
X98425000Y-104224998D01*
X98425000Y-101600000D01*
X98925000Y-101600000D01*
X98925000Y-103000000D01*
X99624999Y-103000000D01*
X99624999Y-102951692D01*
X99624998Y-102951677D01*
X99614855Y-102852392D01*
X99561547Y-102691518D01*
X99561542Y-102691507D01*
X99472575Y-102547271D01*
X99472572Y-102547267D01*
X99352733Y-102427428D01*
X99317245Y-102405539D01*
X99270521Y-102353591D01*
X99259298Y-102284628D01*
X99287142Y-102220546D01*
X99317245Y-102194461D01*
X99352733Y-102172571D01*
X99472572Y-102052732D01*
X99472575Y-102052728D01*
X99561542Y-101908492D01*
X99561547Y-101908481D01*
X99614855Y-101747606D01*
X99624999Y-101648322D01*
X99625000Y-101648309D01*
X99625000Y-101600000D01*
X98925000Y-101600000D01*
X98425000Y-101600000D01*
X98425000Y-101224000D01*
X98444685Y-101156961D01*
X98497489Y-101111206D01*
X98549000Y-101100000D01*
X99624999Y-101100000D01*
X99624999Y-101075000D01*
X100175001Y-101075000D01*
X100175001Y-101081582D01*
X100181408Y-101152102D01*
X100181409Y-101152107D01*
X100231981Y-101314396D01*
X100319927Y-101459877D01*
X100440122Y-101580072D01*
X100585604Y-101668019D01*
X100585603Y-101668019D01*
X100747894Y-101718590D01*
X100747892Y-101718590D01*
X100818418Y-101724999D01*
X100899999Y-101724998D01*
X100900000Y-101724998D01*
X100900000Y-101075000D01*
X101400000Y-101075000D01*
X101400000Y-101724999D01*
X101481581Y-101724999D01*
X101552102Y-101718591D01*
X101552107Y-101718590D01*
X101714396Y-101668018D01*
X101859877Y-101580072D01*
X101980072Y-101459877D01*
X102068019Y-101314395D01*
X102118590Y-101152106D01*
X102125000Y-101081572D01*
X102125000Y-101075000D01*
X101400000Y-101075000D01*
X100900000Y-101075000D01*
X100175001Y-101075000D01*
X99624999Y-101075000D01*
X99624999Y-101051692D01*
X99624998Y-101051677D01*
X99614855Y-100952392D01*
X99561547Y-100791518D01*
X99561542Y-100791507D01*
X99472575Y-100647271D01*
X99472572Y-100647267D01*
X99352732Y-100527427D01*
X99352728Y-100527424D01*
X99208492Y-100438457D01*
X99208481Y-100438452D01*
X99202028Y-100436314D01*
X99144585Y-100396539D01*
X99117764Y-100332022D01*
X99128241Y-100267101D01*
X99185165Y-100142457D01*
X99205647Y-100000000D01*
X99204339Y-99990905D01*
X99214279Y-99921749D01*
X99239392Y-99885577D01*
X99613152Y-99511819D01*
X99674475Y-99478334D01*
X99700833Y-99475500D01*
X100400728Y-99475500D01*
X100467767Y-99495185D01*
X100511212Y-99543204D01*
X100546949Y-99613340D01*
X100546954Y-99613347D01*
X100636652Y-99703045D01*
X100636654Y-99703046D01*
X100636658Y-99703050D01*
X100685612Y-99727993D01*
X100736408Y-99775968D01*
X100753203Y-99843789D01*
X100730665Y-99909924D01*
X100675950Y-99953375D01*
X100666208Y-99956863D01*
X100585603Y-99981981D01*
X100440122Y-100069927D01*
X100319927Y-100190122D01*
X100231980Y-100335604D01*
X100181409Y-100497893D01*
X100175000Y-100568427D01*
X100175000Y-100575000D01*
X102124999Y-100575000D01*
X102124999Y-100568417D01*
X102118591Y-100497897D01*
X102118590Y-100497892D01*
X102068018Y-100335603D01*
X101980072Y-100190122D01*
X101859877Y-100069927D01*
X101714395Y-99981980D01*
X101714396Y-99981980D01*
X101633791Y-99956863D01*
X101575643Y-99918126D01*
X101547669Y-99854100D01*
X101558751Y-99785115D01*
X101605369Y-99733072D01*
X101614369Y-99728002D01*
X101663342Y-99703050D01*
X101753050Y-99613342D01*
X101810646Y-99500304D01*
X101810646Y-99500302D01*
X101810647Y-99500301D01*
X101821752Y-99430185D01*
X101825500Y-99406519D01*
X101825499Y-98943482D01*
X101810646Y-98849696D01*
X101753050Y-98736658D01*
X101753046Y-98736654D01*
X101753045Y-98736652D01*
X101663347Y-98646954D01*
X101663342Y-98646950D01*
X101636484Y-98633265D01*
X101585689Y-98585289D01*
X101568895Y-98517468D01*
X101591434Y-98451334D01*
X101646150Y-98407883D01*
X101663507Y-98403189D01*
X101663452Y-98402999D01*
X101810050Y-98359954D01*
X101810050Y-98359953D01*
X101810053Y-98359953D01*
X101931128Y-98282143D01*
X102025377Y-98173373D01*
X102085165Y-98042457D01*
X102105647Y-97900000D01*
X102085165Y-97757543D01*
X102025377Y-97626627D01*
X102021402Y-97622039D01*
X101980786Y-97575164D01*
X101951762Y-97511608D01*
X101950500Y-97493963D01*
X101950500Y-97324271D01*
X101970185Y-97257232D01*
X102018203Y-97213787D01*
X102088342Y-97178050D01*
X102178050Y-97088342D01*
X102235646Y-96975304D01*
X102235646Y-96975302D01*
X102235647Y-96975301D01*
X102250499Y-96881524D01*
X102250500Y-96881519D01*
X102250500Y-96881517D01*
X103249500Y-96881517D01*
X103260292Y-96949657D01*
X103264354Y-96975304D01*
X103321950Y-97088342D01*
X103321952Y-97088344D01*
X103321954Y-97088347D01*
X103411652Y-97178045D01*
X103411654Y-97178046D01*
X103411658Y-97178050D01*
X103524694Y-97235645D01*
X103524698Y-97235647D01*
X103618475Y-97250499D01*
X103618481Y-97250500D01*
X104081518Y-97250499D01*
X104175304Y-97235646D01*
X104288342Y-97178050D01*
X104378050Y-97088342D01*
X104435646Y-96975304D01*
X104435646Y-96975302D01*
X104435647Y-96975301D01*
X104450499Y-96881524D01*
X104450500Y-96881519D01*
X104450499Y-96318482D01*
X104435646Y-96224696D01*
X104378050Y-96111658D01*
X104378046Y-96111654D01*
X104378045Y-96111652D01*
X104288347Y-96021954D01*
X104288343Y-96021951D01*
X104288342Y-96021950D01*
X104286582Y-96021053D01*
X104218204Y-95986212D01*
X104167408Y-95938237D01*
X104150500Y-95875728D01*
X104150500Y-94475833D01*
X104170185Y-94408794D01*
X104186819Y-94388152D01*
X105738152Y-92836819D01*
X105799475Y-92803334D01*
X105825833Y-92800500D01*
X106419750Y-92800500D01*
X106419751Y-92800499D01*
X106434568Y-92797552D01*
X106478229Y-92788868D01*
X106478229Y-92788867D01*
X106478231Y-92788867D01*
X106544552Y-92744552D01*
X106588867Y-92678231D01*
X106588867Y-92678229D01*
X106588868Y-92678229D01*
X106600499Y-92619752D01*
X106600500Y-92619750D01*
X106600500Y-91530249D01*
X106600499Y-91530247D01*
X106588868Y-91471770D01*
X106588867Y-91471769D01*
X106544552Y-91405447D01*
X106478230Y-91361132D01*
X106478229Y-91361131D01*
X106475309Y-91360551D01*
X106469532Y-91357529D01*
X106466946Y-91356458D01*
X106467041Y-91356226D01*
X106413398Y-91328166D01*
X106378824Y-91267451D01*
X106375500Y-91238934D01*
X106375500Y-88761065D01*
X106395185Y-88694026D01*
X106447989Y-88648271D01*
X106475311Y-88639447D01*
X106478231Y-88638867D01*
X106544552Y-88594552D01*
X106588867Y-88528231D01*
X106588867Y-88528229D01*
X106588868Y-88528229D01*
X106600499Y-88469752D01*
X106600500Y-88469750D01*
X106600500Y-87380249D01*
X106600499Y-87380247D01*
X106588868Y-87321770D01*
X106588867Y-87321769D01*
X106544552Y-87255447D01*
X106478230Y-87211132D01*
X106478229Y-87211131D01*
X106452615Y-87206037D01*
X106390704Y-87173653D01*
X106357031Y-87116513D01*
X106355022Y-87109012D01*
X106315460Y-87040489D01*
X105622389Y-86347418D01*
X105588904Y-86286095D01*
X105590295Y-86227643D01*
X105600500Y-86189562D01*
X105600500Y-83710438D01*
X105597911Y-83700776D01*
X105599570Y-83630928D01*
X105605242Y-83622545D01*
X105555162Y-83587918D01*
X105544173Y-83571920D01*
X105540462Y-83565492D01*
X105540458Y-83565487D01*
X104339395Y-82364424D01*
X104305910Y-82303101D01*
X104304339Y-82259094D01*
X104305647Y-82250000D01*
X104285165Y-82107543D01*
X104225377Y-81976627D01*
X104131128Y-81867857D01*
X104010053Y-81790047D01*
X104010051Y-81790046D01*
X104010049Y-81790045D01*
X104010050Y-81790045D01*
X103871963Y-81749500D01*
X103871961Y-81749500D01*
X103728039Y-81749500D01*
X103728036Y-81749500D01*
X103589949Y-81790045D01*
X103468873Y-81867856D01*
X103374623Y-81976626D01*
X103374622Y-81976628D01*
X103314834Y-82107543D01*
X103294353Y-82250000D01*
X103314834Y-82392456D01*
X103368306Y-82509541D01*
X103374623Y-82523373D01*
X103468872Y-82632143D01*
X103589947Y-82709953D01*
X103589950Y-82709954D01*
X103589949Y-82709954D01*
X103697107Y-82741417D01*
X103726336Y-82750000D01*
X103728036Y-82750499D01*
X103728038Y-82750500D01*
X103824167Y-82750500D01*
X103891206Y-82770185D01*
X103911848Y-82786819D01*
X104753634Y-83628605D01*
X104787119Y-83689928D01*
X104782135Y-83759620D01*
X104740263Y-83815553D01*
X104674799Y-83839970D01*
X104646556Y-83838759D01*
X104556525Y-83824500D01*
X104093482Y-83824500D01*
X104012519Y-83837323D01*
X103999696Y-83839354D01*
X103886658Y-83896950D01*
X103886657Y-83896951D01*
X103886652Y-83896954D01*
X103796954Y-83986652D01*
X103796951Y-83986657D01*
X103739352Y-84099698D01*
X103724500Y-84193475D01*
X103724500Y-84806517D01*
X103724712Y-84807853D01*
X103739354Y-84900304D01*
X103796950Y-85013342D01*
X103796952Y-85013344D01*
X103796954Y-85013347D01*
X103886652Y-85103045D01*
X103886654Y-85103046D01*
X103886658Y-85103050D01*
X103956796Y-85138787D01*
X104007591Y-85186761D01*
X104024500Y-85249271D01*
X104024500Y-85699167D01*
X104004815Y-85766206D01*
X103988181Y-85786848D01*
X103659541Y-86115487D01*
X103659539Y-86115489D01*
X103619979Y-86184011D01*
X103619979Y-86184012D01*
X103599500Y-86260438D01*
X103599500Y-86339562D01*
X103615553Y-86399471D01*
X103620275Y-86417092D01*
X103624500Y-86449186D01*
X103624500Y-87088934D01*
X103604815Y-87155973D01*
X103552011Y-87201728D01*
X103524691Y-87210551D01*
X103521770Y-87211131D01*
X103521769Y-87211132D01*
X103455447Y-87255447D01*
X103411132Y-87321769D01*
X103411131Y-87321770D01*
X103399500Y-87380247D01*
X103399500Y-88469752D01*
X103411131Y-88528229D01*
X103411132Y-88528230D01*
X103455447Y-88594552D01*
X103521767Y-88638866D01*
X103521769Y-88638867D01*
X103524684Y-88639447D01*
X103530461Y-88642467D01*
X103533054Y-88643542D01*
X103532957Y-88643773D01*
X103586597Y-88671827D01*
X103621175Y-88732541D01*
X103624500Y-88761065D01*
X103624500Y-91238934D01*
X103604815Y-91305973D01*
X103552011Y-91351728D01*
X103524691Y-91360551D01*
X103521770Y-91361131D01*
X103521769Y-91361132D01*
X103455447Y-91405447D01*
X103411132Y-91471769D01*
X103411131Y-91471770D01*
X103399500Y-91530247D01*
X103399500Y-92619752D01*
X103411131Y-92678229D01*
X103411132Y-92678230D01*
X103455447Y-92744552D01*
X103521769Y-92788867D01*
X103521770Y-92788868D01*
X103580247Y-92800499D01*
X103580250Y-92800500D01*
X103580252Y-92800500D01*
X104269750Y-92800500D01*
X104269751Y-92800499D01*
X104284568Y-92797552D01*
X104328229Y-92788868D01*
X104328229Y-92788867D01*
X104328231Y-92788867D01*
X104394552Y-92744552D01*
X104438867Y-92678231D01*
X104438867Y-92678229D01*
X104438868Y-92678229D01*
X104450499Y-92619752D01*
X104450500Y-92619750D01*
X104450500Y-91530249D01*
X104450499Y-91530247D01*
X104438868Y-91471770D01*
X104438867Y-91471769D01*
X104394552Y-91405447D01*
X104328230Y-91361132D01*
X104328229Y-91361131D01*
X104325309Y-91360551D01*
X104319532Y-91357529D01*
X104316946Y-91356458D01*
X104317041Y-91356226D01*
X104263398Y-91328166D01*
X104228824Y-91267451D01*
X104225500Y-91238934D01*
X104225500Y-88761065D01*
X104245185Y-88694026D01*
X104297989Y-88648271D01*
X104325311Y-88639447D01*
X104328231Y-88638867D01*
X104394552Y-88594552D01*
X104438867Y-88528231D01*
X104438867Y-88528229D01*
X104438868Y-88528229D01*
X104450499Y-88469752D01*
X104450500Y-88469750D01*
X104450500Y-87380249D01*
X104450499Y-87380247D01*
X104438868Y-87321770D01*
X104438867Y-87321769D01*
X104394552Y-87255447D01*
X104328230Y-87211132D01*
X104328229Y-87211131D01*
X104325309Y-87210551D01*
X104319532Y-87207529D01*
X104316946Y-87206458D01*
X104317041Y-87206226D01*
X104263398Y-87178166D01*
X104228824Y-87117451D01*
X104225500Y-87088934D01*
X104225500Y-86450833D01*
X104245185Y-86383794D01*
X104261819Y-86363152D01*
X104397330Y-86227641D01*
X104565460Y-86059511D01*
X104605022Y-85990988D01*
X104625500Y-85914562D01*
X104625500Y-85835438D01*
X104625500Y-85249271D01*
X104645185Y-85182232D01*
X104693203Y-85138787D01*
X104763342Y-85103050D01*
X104774447Y-85091945D01*
X104787819Y-85078574D01*
X104849142Y-85045089D01*
X104918834Y-85050073D01*
X104974767Y-85091945D01*
X104999184Y-85157409D01*
X104999500Y-85166255D01*
X104999500Y-85974167D01*
X104979815Y-86041206D01*
X104963181Y-86061848D01*
X104909541Y-86115487D01*
X104909539Y-86115489D01*
X104869979Y-86184011D01*
X104869979Y-86184012D01*
X104849500Y-86260438D01*
X104849500Y-86339562D01*
X104865553Y-86399471D01*
X104869979Y-86415987D01*
X104869979Y-86415988D01*
X104909539Y-86484510D01*
X105563541Y-87138512D01*
X105597026Y-87199835D01*
X105592042Y-87269527D01*
X105578964Y-87295082D01*
X105561131Y-87321770D01*
X105549500Y-87380247D01*
X105549500Y-88469752D01*
X105561131Y-88528229D01*
X105561132Y-88528230D01*
X105605447Y-88594552D01*
X105671767Y-88638866D01*
X105671769Y-88638867D01*
X105674684Y-88639447D01*
X105680461Y-88642467D01*
X105683054Y-88643542D01*
X105682957Y-88643773D01*
X105736597Y-88671827D01*
X105771175Y-88732541D01*
X105774500Y-88761065D01*
X105774500Y-91238934D01*
X105754815Y-91305973D01*
X105702011Y-91351728D01*
X105674691Y-91360551D01*
X105671770Y-91361131D01*
X105671769Y-91361132D01*
X105605447Y-91405447D01*
X105561132Y-91471769D01*
X105561131Y-91471770D01*
X105549500Y-91530247D01*
X105549500Y-92124167D01*
X105529815Y-92191206D01*
X105513181Y-92211848D01*
X103609541Y-94115487D01*
X103609535Y-94115495D01*
X103569982Y-94184004D01*
X103569979Y-94184009D01*
X103549500Y-94260439D01*
X103549500Y-95875728D01*
X103529815Y-95942767D01*
X103481796Y-95986212D01*
X103411659Y-96021949D01*
X103411652Y-96021954D01*
X103321954Y-96111652D01*
X103321951Y-96111657D01*
X103264352Y-96224698D01*
X103249500Y-96318475D01*
X103249500Y-96881517D01*
X102250500Y-96881517D01*
X102250499Y-96318482D01*
X102235646Y-96224696D01*
X102178050Y-96111658D01*
X102178046Y-96111654D01*
X102178045Y-96111652D01*
X102088347Y-96021954D01*
X102088344Y-96021952D01*
X102088342Y-96021950D01*
X101975304Y-95964354D01*
X101975303Y-95964353D01*
X101975300Y-95964352D01*
X101900846Y-95952560D01*
X101837711Y-95922631D01*
X101800780Y-95863319D01*
X101801778Y-95793456D01*
X101832563Y-95742406D01*
X101942570Y-95632399D01*
X102915460Y-94659511D01*
X102918052Y-94655022D01*
X102955021Y-94590989D01*
X102975500Y-94514562D01*
X102975500Y-85249271D01*
X102995185Y-85182232D01*
X103043203Y-85138787D01*
X103113342Y-85103050D01*
X103203050Y-85013342D01*
X103260646Y-84900304D01*
X103260646Y-84900302D01*
X103260647Y-84900301D01*
X103275499Y-84806524D01*
X103275500Y-84806519D01*
X103275499Y-84193482D01*
X103260646Y-84099696D01*
X103203050Y-83986658D01*
X103203046Y-83986654D01*
X103203045Y-83986652D01*
X103113347Y-83896954D01*
X103113343Y-83896951D01*
X103113342Y-83896950D01*
X103094411Y-83887304D01*
X103043204Y-83861212D01*
X102992408Y-83813237D01*
X102975500Y-83750728D01*
X102975500Y-80275441D01*
X102972215Y-80263181D01*
X102955021Y-80199013D01*
X102941462Y-80175528D01*
X102915464Y-80130497D01*
X102915458Y-80130489D01*
X99293760Y-76508791D01*
X99260275Y-76447468D01*
X99259842Y-76445391D01*
X99246714Y-76379394D01*
X99194200Y-76300801D01*
X99115607Y-76248287D01*
X99115605Y-76248286D01*
X99115603Y-76248285D01*
X99046304Y-76234501D01*
X99046302Y-76234501D01*
X98103698Y-76234501D01*
X98103696Y-76234501D01*
X98034396Y-76248285D01*
X98034393Y-76248287D01*
X97955800Y-76300801D01*
X97903286Y-76379394D01*
X97903284Y-76379397D01*
X97889500Y-76448696D01*
X97889500Y-76448699D01*
X97889500Y-76951303D01*
X97889500Y-76951305D01*
X97889499Y-76951305D01*
X97903284Y-77020604D01*
X97903285Y-77020607D01*
X97910303Y-77031109D01*
X97931181Y-77097786D01*
X97912697Y-77165166D01*
X97910316Y-77168870D01*
X97906177Y-77175065D01*
X97903285Y-77179394D01*
X97903284Y-77179396D01*
X97889500Y-77248695D01*
X97889500Y-77248697D01*
X97889500Y-77248698D01*
X97889500Y-77751302D01*
X97889500Y-77751304D01*
X97889499Y-77751304D01*
X97903284Y-77820603D01*
X97903285Y-77820606D01*
X97910303Y-77831108D01*
X97931181Y-77897785D01*
X97912697Y-77965165D01*
X97910305Y-77968887D01*
X97903285Y-77979392D01*
X97903283Y-77979397D01*
X97889499Y-78048696D01*
X97889499Y-78048698D01*
X97889499Y-78048699D01*
X97889499Y-78551303D01*
X97889499Y-78551305D01*
X97889498Y-78551305D01*
X97903283Y-78620604D01*
X97903284Y-78620607D01*
X97906159Y-78624910D01*
X97910298Y-78631104D01*
X97910302Y-78631109D01*
X97931180Y-78697786D01*
X97912696Y-78765166D01*
X97910304Y-78768888D01*
X97903286Y-78779390D01*
X97903284Y-78779395D01*
X97889500Y-78848694D01*
X97889500Y-78848697D01*
X97889500Y-79351301D01*
X97889500Y-79351303D01*
X97889499Y-79351303D01*
X97903284Y-79420602D01*
X97903285Y-79420604D01*
X97903286Y-79420606D01*
X97955800Y-79499199D01*
X98034393Y-79551713D01*
X98034395Y-79551713D01*
X98034396Y-79551714D01*
X98103695Y-79565499D01*
X98103698Y-79565499D01*
X98564167Y-79565499D01*
X98631206Y-79585184D01*
X98651848Y-79601818D01*
X100513181Y-81463151D01*
X100546666Y-81524474D01*
X100549500Y-81550832D01*
X100549500Y-88124486D01*
X100563152Y-88175437D01*
X100569979Y-88200914D01*
X100569981Y-88200917D01*
X100573072Y-88206271D01*
X100589543Y-88274171D01*
X100566690Y-88340198D01*
X100511768Y-88383387D01*
X100442215Y-88390028D01*
X100418231Y-88382830D01*
X100395956Y-88373603D01*
X100151064Y-88314811D01*
X100150000Y-88314726D01*
X100150000Y-89191759D01*
X100118767Y-89178822D01*
X99973869Y-89150000D01*
X99826131Y-89150000D01*
X99681233Y-89178822D01*
X99650000Y-89191759D01*
X99650000Y-88314726D01*
X99648935Y-88314811D01*
X99404043Y-88373603D01*
X99171368Y-88469980D01*
X98956637Y-88601568D01*
X98956632Y-88601571D01*
X98765130Y-88765130D01*
X98601571Y-88956632D01*
X98601568Y-88956637D01*
X98469980Y-89171368D01*
X98373603Y-89404043D01*
X98314811Y-89648932D01*
X98314728Y-89649999D01*
X98314729Y-89650000D01*
X99191759Y-89650000D01*
X99178822Y-89681233D01*
X99150000Y-89826131D01*
X99150000Y-89973869D01*
X99178822Y-90118767D01*
X99191759Y-90150000D01*
X98314728Y-90150000D01*
X98314811Y-90151067D01*
X98373603Y-90395956D01*
X98469980Y-90628631D01*
X98601568Y-90843362D01*
X98601571Y-90843367D01*
X98765130Y-91034869D01*
X98956632Y-91198428D01*
X98956637Y-91198431D01*
X99171368Y-91330019D01*
X99404043Y-91426396D01*
X99648932Y-91485188D01*
X99649999Y-91485271D01*
X99650000Y-91485271D01*
X99650000Y-90608240D01*
X99681233Y-90621178D01*
X99826131Y-90650000D01*
X99973869Y-90650000D01*
X100118767Y-90621178D01*
X100150000Y-90608240D01*
X100150000Y-91485271D01*
X100151067Y-91485188D01*
X100395956Y-91426396D01*
X100628631Y-91330019D01*
X100810710Y-91218441D01*
X100878156Y-91200196D01*
X100944758Y-91221312D01*
X100989372Y-91275084D01*
X100999500Y-91324168D01*
X100999500Y-94124166D01*
X100979815Y-94191205D01*
X100963181Y-94211847D01*
X100451357Y-94723670D01*
X100390034Y-94757155D01*
X100320342Y-94752171D01*
X100264409Y-94710299D01*
X100239992Y-94644835D01*
X100240579Y-94621051D01*
X100255278Y-94500000D01*
X100236237Y-94343182D01*
X100236236Y-94343180D01*
X100204856Y-94260438D01*
X100180220Y-94195477D01*
X100090483Y-94065470D01*
X99972240Y-93960717D01*
X99972238Y-93960716D01*
X99972237Y-93960715D01*
X99832365Y-93887303D01*
X99678986Y-93849500D01*
X99678985Y-93849500D01*
X99521015Y-93849500D01*
X99521014Y-93849500D01*
X99513568Y-93850404D01*
X99513414Y-93849135D01*
X99451313Y-93846399D01*
X99394254Y-93806074D01*
X99368055Y-93741302D01*
X99375510Y-93685102D01*
X99376865Y-93681530D01*
X99386237Y-93656818D01*
X99405278Y-93500000D01*
X99386237Y-93343182D01*
X99330220Y-93195477D01*
X99240483Y-93065470D01*
X99122240Y-92960717D01*
X99122238Y-92960716D01*
X99122237Y-92960715D01*
X98982365Y-92887303D01*
X98828986Y-92849500D01*
X98828985Y-92849500D01*
X98671015Y-92849500D01*
X98671011Y-92849500D01*
X98621349Y-92861740D01*
X98551547Y-92858670D01*
X98503995Y-92829024D01*
X98184512Y-92509541D01*
X98184504Y-92509535D01*
X98139238Y-92483401D01*
X98139236Y-92483401D01*
X98115989Y-92469979D01*
X98039562Y-92449500D01*
X94460438Y-92449500D01*
X94409486Y-92463152D01*
X94384010Y-92469979D01*
X94360764Y-92483401D01*
X94360762Y-92483401D01*
X94315495Y-92509535D01*
X94315491Y-92509538D01*
X93996003Y-92829025D01*
X93934680Y-92862509D01*
X93878648Y-92861740D01*
X93828986Y-92849500D01*
X93828985Y-92849500D01*
X93671015Y-92849500D01*
X93671011Y-92849500D01*
X93621349Y-92861740D01*
X93551547Y-92858670D01*
X93503995Y-92829024D01*
X93184512Y-92509541D01*
X93184504Y-92509535D01*
X93139238Y-92483401D01*
X93139236Y-92483401D01*
X93115989Y-92469979D01*
X93039562Y-92449500D01*
X88660438Y-92449500D01*
X88609486Y-92463152D01*
X88584010Y-92469979D01*
X88560764Y-92483401D01*
X88560762Y-92483401D01*
X88515495Y-92509535D01*
X88515491Y-92509538D01*
X88196003Y-92829025D01*
X88134680Y-92862509D01*
X88078648Y-92861740D01*
X88028986Y-92849500D01*
X88028985Y-92849500D01*
X87871015Y-92849500D01*
X87871011Y-92849500D01*
X87821349Y-92861740D01*
X87751547Y-92858670D01*
X87703995Y-92829024D01*
X87384512Y-92509541D01*
X87384504Y-92509535D01*
X87339238Y-92483401D01*
X87339236Y-92483401D01*
X87315989Y-92469979D01*
X87239562Y-92449500D01*
X83660438Y-92449500D01*
X83609486Y-92463152D01*
X83584010Y-92469979D01*
X83560764Y-92483401D01*
X83560762Y-92483401D01*
X83515495Y-92509535D01*
X83515491Y-92509538D01*
X83196003Y-92829025D01*
X83134680Y-92862509D01*
X83078648Y-92861740D01*
X83028986Y-92849500D01*
X83028985Y-92849500D01*
X82871015Y-92849500D01*
X82871011Y-92849500D01*
X82821349Y-92861740D01*
X82751547Y-92858670D01*
X82703995Y-92829024D01*
X82384512Y-92509541D01*
X82384504Y-92509535D01*
X82339238Y-92483401D01*
X82339236Y-92483401D01*
X82315989Y-92469979D01*
X82239562Y-92449500D01*
X79994752Y-92449500D01*
X79943800Y-92463152D01*
X79918324Y-92469979D01*
X79895078Y-92483401D01*
X79895076Y-92483401D01*
X79849809Y-92509535D01*
X79849801Y-92509541D01*
X79009541Y-93349801D01*
X79009535Y-93349809D01*
X78969982Y-93418318D01*
X78969979Y-93418323D01*
X78956326Y-93469276D01*
X78949500Y-93494752D01*
X78949500Y-96389389D01*
X78412375Y-96389389D01*
X78425499Y-96306524D01*
X78425500Y-96306519D01*
X78425499Y-95693482D01*
X78410646Y-95599696D01*
X78353050Y-95486658D01*
X78353046Y-95486654D01*
X78353045Y-95486652D01*
X78263347Y-95396954D01*
X78263343Y-95396951D01*
X78263342Y-95396950D01*
X78252069Y-95391206D01*
X78193204Y-95361212D01*
X78142408Y-95313237D01*
X78125500Y-95250728D01*
X78125500Y-94335440D01*
X78125499Y-94335436D01*
X78119995Y-94314896D01*
X78112659Y-94287515D01*
X78105022Y-94259012D01*
X78065460Y-94190489D01*
X76629816Y-92754845D01*
X76596331Y-92693522D01*
X76595880Y-92642974D01*
X76600500Y-92619748D01*
X76600500Y-91530252D01*
X76600500Y-91530249D01*
X76600499Y-91530247D01*
X76588868Y-91471770D01*
X76588867Y-91471769D01*
X76544552Y-91405447D01*
X76478230Y-91361132D01*
X76478229Y-91361131D01*
X76475309Y-91360551D01*
X76469532Y-91357529D01*
X76466946Y-91356458D01*
X76467041Y-91356226D01*
X76413398Y-91328166D01*
X76378824Y-91267451D01*
X76375500Y-91238934D01*
X76375500Y-90919752D01*
X78599500Y-90919752D01*
X78611131Y-90978229D01*
X78611132Y-90978230D01*
X78655447Y-91044552D01*
X78721769Y-91088867D01*
X78721770Y-91088868D01*
X78780247Y-91100499D01*
X78780250Y-91100500D01*
X78780252Y-91100500D01*
X80819750Y-91100500D01*
X80819751Y-91100499D01*
X80834568Y-91097552D01*
X80878229Y-91088868D01*
X80878229Y-91088867D01*
X80878231Y-91088867D01*
X80944552Y-91044552D01*
X80988867Y-90978231D01*
X80988867Y-90978229D01*
X80988868Y-90978229D01*
X81000499Y-90919752D01*
X81000500Y-90919750D01*
X81000500Y-89978846D01*
X82899500Y-89978846D01*
X82930261Y-90133489D01*
X82930264Y-90133501D01*
X82990602Y-90279172D01*
X82990609Y-90279185D01*
X83078210Y-90410288D01*
X83078213Y-90410292D01*
X83189707Y-90521786D01*
X83189711Y-90521789D01*
X83320814Y-90609390D01*
X83320827Y-90609397D01*
X83418853Y-90650000D01*
X83466503Y-90669737D01*
X83621153Y-90700499D01*
X83621156Y-90700500D01*
X83621158Y-90700500D01*
X83778844Y-90700500D01*
X83778845Y-90700499D01*
X83933497Y-90669737D01*
X84079179Y-90609394D01*
X84210289Y-90521789D01*
X84321789Y-90410289D01*
X84409394Y-90279179D01*
X84469737Y-90133497D01*
X84500500Y-89978842D01*
X84500500Y-89821158D01*
X84500500Y-89821155D01*
X84500499Y-89821153D01*
X84469738Y-89666510D01*
X84469737Y-89666503D01*
X84460204Y-89643487D01*
X84409397Y-89520827D01*
X84409390Y-89520814D01*
X84321789Y-89389711D01*
X84321786Y-89389707D01*
X84210292Y-89278213D01*
X84210288Y-89278210D01*
X84079185Y-89190609D01*
X84079172Y-89190602D01*
X83933501Y-89130264D01*
X83933489Y-89130261D01*
X83778845Y-89099500D01*
X83778842Y-89099500D01*
X83621158Y-89099500D01*
X83621155Y-89099500D01*
X83466510Y-89130261D01*
X83466498Y-89130264D01*
X83320827Y-89190602D01*
X83320814Y-89190609D01*
X83189711Y-89278210D01*
X83189707Y-89278213D01*
X83078213Y-89389707D01*
X83078210Y-89389711D01*
X82990609Y-89520814D01*
X82990602Y-89520827D01*
X82930264Y-89666498D01*
X82930261Y-89666510D01*
X82899500Y-89821153D01*
X82899500Y-89978846D01*
X81000500Y-89978846D01*
X81000500Y-88880249D01*
X81000499Y-88880247D01*
X80988868Y-88821770D01*
X80988867Y-88821769D01*
X80944552Y-88755447D01*
X80878230Y-88711132D01*
X80878229Y-88711131D01*
X80819752Y-88699500D01*
X80819748Y-88699500D01*
X78780252Y-88699500D01*
X78780247Y-88699500D01*
X78721770Y-88711131D01*
X78721769Y-88711132D01*
X78655447Y-88755447D01*
X78611132Y-88821769D01*
X78611131Y-88821770D01*
X78599500Y-88880247D01*
X78599500Y-90919752D01*
X76375500Y-90919752D01*
X76375500Y-88761065D01*
X76395185Y-88694026D01*
X76447989Y-88648271D01*
X76475311Y-88639447D01*
X76478231Y-88638867D01*
X76544552Y-88594552D01*
X76588867Y-88528231D01*
X76588867Y-88528229D01*
X76588868Y-88528229D01*
X76600499Y-88469752D01*
X76600500Y-88469750D01*
X76600500Y-87380249D01*
X76600499Y-87380247D01*
X76588868Y-87321770D01*
X76588867Y-87321769D01*
X76544552Y-87255447D01*
X76478230Y-87211132D01*
X76478229Y-87211131D01*
X76419752Y-87199500D01*
X76419748Y-87199500D01*
X75730252Y-87199500D01*
X75730247Y-87199500D01*
X75671770Y-87211131D01*
X75671769Y-87211132D01*
X75605447Y-87255447D01*
X75561132Y-87321769D01*
X75561131Y-87321770D01*
X75549500Y-87380247D01*
X75549500Y-88469752D01*
X75561131Y-88528229D01*
X75561132Y-88528230D01*
X75605447Y-88594552D01*
X75671767Y-88638866D01*
X75671769Y-88638867D01*
X75674684Y-88639447D01*
X75680461Y-88642467D01*
X75683054Y-88643542D01*
X75682957Y-88643773D01*
X75736597Y-88671827D01*
X75771175Y-88732541D01*
X75774500Y-88761065D01*
X75774500Y-91238934D01*
X75754815Y-91305973D01*
X75702011Y-91351728D01*
X75674691Y-91360551D01*
X75671770Y-91361131D01*
X75671769Y-91361132D01*
X75605447Y-91405447D01*
X75561132Y-91471769D01*
X75561131Y-91471770D01*
X75549500Y-91530247D01*
X75549500Y-92619752D01*
X74450499Y-92619752D01*
X74450500Y-92619750D01*
X74450500Y-91530249D01*
X74450499Y-91530247D01*
X74438868Y-91471770D01*
X74438867Y-91471769D01*
X74394552Y-91405447D01*
X74328230Y-91361132D01*
X74328229Y-91361131D01*
X74325309Y-91360551D01*
X74319532Y-91357529D01*
X74316946Y-91356458D01*
X74317041Y-91356226D01*
X74263398Y-91328166D01*
X74228824Y-91267451D01*
X74225500Y-91238934D01*
X74225500Y-88761065D01*
X74245185Y-88694026D01*
X74297989Y-88648271D01*
X74325311Y-88639447D01*
X74328231Y-88638867D01*
X74394552Y-88594552D01*
X74438867Y-88528231D01*
X74438867Y-88528229D01*
X74438868Y-88528229D01*
X74450499Y-88469752D01*
X74450500Y-88469750D01*
X74450500Y-87875833D01*
X74470185Y-87808794D01*
X74486819Y-87788152D01*
X75638152Y-86636819D01*
X75699475Y-86603334D01*
X75725833Y-86600500D01*
X82691499Y-86600500D01*
X82758538Y-86620185D01*
X82785211Y-86643296D01*
X82818872Y-86682143D01*
X82939947Y-86759953D01*
X82939950Y-86759954D01*
X82939949Y-86759954D01*
X83078036Y-86800499D01*
X83078038Y-86800500D01*
X83078039Y-86800500D01*
X83221962Y-86800500D01*
X83221962Y-86800499D01*
X83360053Y-86759953D01*
X83481128Y-86682143D01*
X83575377Y-86573373D01*
X83635165Y-86442457D01*
X83655647Y-86300000D01*
X83635165Y-86157543D01*
X83575377Y-86026627D01*
X83481128Y-85917857D01*
X83360053Y-85840047D01*
X83360051Y-85840046D01*
X83360049Y-85840045D01*
X83360050Y-85840045D01*
X83221963Y-85799500D01*
X83221961Y-85799500D01*
X83078039Y-85799500D01*
X83078036Y-85799500D01*
X82939949Y-85840045D01*
X82818873Y-85917856D01*
X82785212Y-85956703D01*
X82726433Y-85994477D01*
X82691499Y-85999500D01*
X75510438Y-85999500D01*
X75459486Y-86013152D01*
X75434010Y-86019979D01*
X75390712Y-86044978D01*
X75390710Y-86044979D01*
X75365490Y-86059539D01*
X75365487Y-86059541D01*
X74261848Y-87163181D01*
X74200525Y-87196666D01*
X74174167Y-87199500D01*
X73580252Y-87199500D01*
X73526409Y-87210210D01*
X73456817Y-87203982D01*
X73401640Y-87161118D01*
X73378396Y-87095228D01*
X73379851Y-87068538D01*
X73401978Y-86933577D01*
X73403024Y-86928008D01*
X73565522Y-86161610D01*
X73566842Y-86156027D01*
X73566843Y-86156026D01*
X73764726Y-85398031D01*
X73766305Y-85392513D01*
X73766306Y-85392511D01*
X73999162Y-84644505D01*
X74000975Y-84639122D01*
X74268318Y-83902674D01*
X74270377Y-83897388D01*
X74435890Y-83500000D01*
X79744722Y-83500000D01*
X79763762Y-83656818D01*
X79817556Y-83798658D01*
X79819780Y-83804523D01*
X79909517Y-83934530D01*
X80027760Y-84039283D01*
X80027762Y-84039284D01*
X80167634Y-84112696D01*
X80321014Y-84150500D01*
X80321015Y-84150500D01*
X80478986Y-84150500D01*
X80486432Y-84149596D01*
X80486586Y-84150868D01*
X80548667Y-84153594D01*
X80605732Y-84193909D01*
X80631942Y-84258677D01*
X80624491Y-84314894D01*
X80613762Y-84343183D01*
X80594722Y-84499999D01*
X80594722Y-84500000D01*
X80613762Y-84656818D01*
X80661059Y-84781528D01*
X80669780Y-84804523D01*
X80759517Y-84934530D01*
X80877760Y-85039283D01*
X80877762Y-85039284D01*
X81017634Y-85112696D01*
X81171014Y-85150500D01*
X81171015Y-85150500D01*
X81328984Y-85150500D01*
X81328985Y-85150500D01*
X81378647Y-85138259D01*
X81448449Y-85141328D01*
X81496004Y-85170975D01*
X81759540Y-85434511D01*
X81815489Y-85490460D01*
X81815491Y-85490461D01*
X81815495Y-85490464D01*
X81884004Y-85530017D01*
X81884011Y-85530021D01*
X81960438Y-85550500D01*
X81960440Y-85550500D01*
X85539560Y-85550500D01*
X85539562Y-85550500D01*
X85615989Y-85530021D01*
X85684511Y-85490460D01*
X85740460Y-85434511D01*
X86003998Y-85170971D01*
X86065317Y-85137489D01*
X86121351Y-85138258D01*
X86171012Y-85150499D01*
X86171013Y-85150500D01*
X86171015Y-85150500D01*
X86328984Y-85150500D01*
X86328985Y-85150500D01*
X86378647Y-85138259D01*
X86448449Y-85141328D01*
X86496004Y-85170975D01*
X86759540Y-85434511D01*
X86815489Y-85490460D01*
X86815491Y-85490461D01*
X86815495Y-85490464D01*
X86884004Y-85530017D01*
X86884011Y-85530021D01*
X86960438Y-85550500D01*
X86960440Y-85550500D01*
X91339560Y-85550500D01*
X91339562Y-85550500D01*
X91415989Y-85530021D01*
X91484511Y-85490460D01*
X91540460Y-85434511D01*
X91803998Y-85170971D01*
X91865317Y-85137489D01*
X91921351Y-85138258D01*
X91971012Y-85150499D01*
X91971013Y-85150500D01*
X91971015Y-85150500D01*
X92128984Y-85150500D01*
X92128985Y-85150500D01*
X92178647Y-85138259D01*
X92248449Y-85141328D01*
X92296004Y-85170975D01*
X92559540Y-85434511D01*
X92615489Y-85490460D01*
X92615491Y-85490461D01*
X92615495Y-85490464D01*
X92684004Y-85530017D01*
X92684011Y-85530021D01*
X92760438Y-85550500D01*
X92760440Y-85550500D01*
X96339560Y-85550500D01*
X96339562Y-85550500D01*
X96415989Y-85530021D01*
X96484511Y-85490460D01*
X96540460Y-85434511D01*
X96803998Y-85170971D01*
X96865317Y-85137489D01*
X96921351Y-85138258D01*
X96971012Y-85150499D01*
X96971013Y-85150500D01*
X96971015Y-85150500D01*
X97128985Y-85150500D01*
X97282365Y-85112696D01*
X97347378Y-85078574D01*
X97422240Y-85039283D01*
X97540483Y-84934530D01*
X97630220Y-84804523D01*
X97686237Y-84656818D01*
X97705278Y-84500000D01*
X97686237Y-84343182D01*
X97686236Y-84343179D01*
X97686236Y-84343177D01*
X97675510Y-84314896D01*
X97670142Y-84245233D01*
X97703288Y-84183727D01*
X97764426Y-84149905D01*
X97813465Y-84150443D01*
X97813568Y-84149596D01*
X97821014Y-84150500D01*
X97821015Y-84150500D01*
X97978986Y-84150500D01*
X97986432Y-84149596D01*
X97986586Y-84150868D01*
X98048667Y-84153594D01*
X98105732Y-84193909D01*
X98131942Y-84258677D01*
X98124491Y-84314894D01*
X98113762Y-84343183D01*
X98094722Y-84499999D01*
X98094722Y-84500000D01*
X98113762Y-84656818D01*
X98161059Y-84781528D01*
X98169780Y-84804523D01*
X98259517Y-84934530D01*
X98377760Y-85039283D01*
X98377762Y-85039284D01*
X98517634Y-85112696D01*
X98671014Y-85150500D01*
X98671015Y-85150500D01*
X98828985Y-85150500D01*
X98982365Y-85112696D01*
X99047378Y-85078574D01*
X99122240Y-85039283D01*
X99240483Y-84934530D01*
X99330220Y-84804523D01*
X99386237Y-84656818D01*
X99405278Y-84500000D01*
X99386237Y-84343182D01*
X99386236Y-84343179D01*
X99386236Y-84343177D01*
X99375510Y-84314896D01*
X99370142Y-84245233D01*
X99403288Y-84183727D01*
X99464426Y-84149905D01*
X99513465Y-84150443D01*
X99513568Y-84149596D01*
X99521014Y-84150500D01*
X99521015Y-84150500D01*
X99678985Y-84150500D01*
X99832365Y-84112696D01*
X99922345Y-84065470D01*
X99972240Y-84039283D01*
X100090483Y-83934530D01*
X100180220Y-83804523D01*
X100236237Y-83656818D01*
X100255278Y-83500000D01*
X100236237Y-83343182D01*
X100180220Y-83195477D01*
X100090483Y-83065470D01*
X99972240Y-82960717D01*
X99972238Y-82960716D01*
X99972237Y-82960715D01*
X99832365Y-82887303D01*
X99678986Y-82849500D01*
X99678985Y-82849500D01*
X99521015Y-82849500D01*
X99521011Y-82849500D01*
X99471349Y-82861740D01*
X99401547Y-82858670D01*
X99353995Y-82829024D01*
X99034512Y-82509541D01*
X99034504Y-82509535D01*
X98965995Y-82469982D01*
X98965990Y-82469979D01*
X98940513Y-82463152D01*
X98889562Y-82449500D01*
X98889560Y-82449500D01*
X96922902Y-82449500D01*
X96855863Y-82429815D01*
X96810108Y-82377011D01*
X96800164Y-82307853D01*
X96829189Y-82244297D01*
X96875451Y-82210938D01*
X96879179Y-82209394D01*
X97010289Y-82121789D01*
X97121789Y-82010289D01*
X97209394Y-81879179D01*
X97250599Y-81779699D01*
X97294436Y-81725300D01*
X97360730Y-81703234D01*
X97428430Y-81720512D01*
X97432195Y-81722838D01*
X97489947Y-81759953D01*
X97489948Y-81759953D01*
X97489949Y-81759954D01*
X97628036Y-81800499D01*
X97628038Y-81800500D01*
X97628039Y-81800500D01*
X97771962Y-81800500D01*
X97771962Y-81800499D01*
X97910053Y-81759953D01*
X98031128Y-81682143D01*
X98125377Y-81573373D01*
X98185165Y-81442457D01*
X98205647Y-81300000D01*
X98185165Y-81157543D01*
X98125377Y-81026627D01*
X98031128Y-80917857D01*
X97910053Y-80840047D01*
X97910051Y-80840046D01*
X97910049Y-80840045D01*
X97910050Y-80840045D01*
X97771963Y-80799500D01*
X97771961Y-80799500D01*
X97675833Y-80799500D01*
X97608794Y-80779815D01*
X97588152Y-80763181D01*
X97184515Y-80359543D01*
X97184514Y-80359542D01*
X97184511Y-80359540D01*
X97175892Y-80354564D01*
X97142401Y-80335228D01*
X97115990Y-80319979D01*
X97090513Y-80313152D01*
X97039562Y-80299500D01*
X97039560Y-80299500D01*
X95760147Y-80299500D01*
X95693108Y-80279815D01*
X95672466Y-80263181D01*
X95433025Y-80023740D01*
X95399540Y-79962417D01*
X95404524Y-79892725D01*
X95446396Y-79836792D01*
X95485774Y-79817081D01*
X95510053Y-79809953D01*
X95631128Y-79732143D01*
X95725377Y-79623373D01*
X95785165Y-79492457D01*
X95785166Y-79492444D01*
X95786014Y-79489563D01*
X95787646Y-79487022D01*
X95788849Y-79484390D01*
X95789227Y-79484562D01*
X95823789Y-79430786D01*
X95887345Y-79401761D01*
X95904991Y-79400499D01*
X96073572Y-79400499D01*
X96140611Y-79420184D01*
X96176674Y-79455609D01*
X96203307Y-79495469D01*
X96205800Y-79499199D01*
X96284393Y-79551713D01*
X96284395Y-79551713D01*
X96284396Y-79551714D01*
X96353695Y-79565499D01*
X96353698Y-79565499D01*
X97296304Y-79565499D01*
X97365603Y-79551714D01*
X97365603Y-79551713D01*
X97365607Y-79551713D01*
X97444200Y-79499199D01*
X97496714Y-79420606D01*
X97501419Y-79396954D01*
X97510500Y-79351303D01*
X97510500Y-78848694D01*
X97496715Y-78779395D01*
X97496714Y-78779393D01*
X97496714Y-78779392D01*
X97489696Y-78768889D01*
X97468818Y-78702214D01*
X97487302Y-78634834D01*
X97489644Y-78631187D01*
X97496714Y-78620607D01*
X97505179Y-78578051D01*
X97510500Y-78551304D01*
X97510500Y-78048695D01*
X97496715Y-77979396D01*
X97496714Y-77979394D01*
X97496714Y-77979393D01*
X97489696Y-77968890D01*
X97468818Y-77902215D01*
X97487302Y-77834835D01*
X97489685Y-77831125D01*
X97496715Y-77820606D01*
X97500715Y-77800499D01*
X97510501Y-77751303D01*
X97510501Y-77248694D01*
X97496716Y-77179395D01*
X97496715Y-77179393D01*
X97496715Y-77179392D01*
X97489697Y-77168889D01*
X97468819Y-77102214D01*
X97487303Y-77034834D01*
X97489699Y-77031106D01*
X97496714Y-77020608D01*
X97503170Y-76988152D01*
X97510500Y-76951305D01*
X97510500Y-76448696D01*
X97496715Y-76379397D01*
X97496714Y-76379396D01*
X97496714Y-76379394D01*
X97444200Y-76300801D01*
X97365607Y-76248287D01*
X97365605Y-76248286D01*
X97365603Y-76248285D01*
X97296304Y-76234501D01*
X97296302Y-76234501D01*
X96353698Y-76234501D01*
X96353696Y-76234501D01*
X96284396Y-76248285D01*
X96284393Y-76248287D01*
X96205799Y-76300801D01*
X96176674Y-76344391D01*
X96123062Y-76389197D01*
X96073572Y-76399501D01*
X95152719Y-76399501D01*
X95114505Y-76409740D01*
X95076290Y-76419980D01*
X95076289Y-76419981D01*
X95032436Y-76445300D01*
X95026549Y-76448699D01*
X95020969Y-76451920D01*
X95007770Y-76459540D01*
X93321493Y-78145817D01*
X93321487Y-78145825D01*
X93281934Y-78214334D01*
X93281931Y-78214339D01*
X93268278Y-78265292D01*
X93261452Y-78290768D01*
X93261452Y-81001514D01*
X93272340Y-81042147D01*
X93281931Y-81077942D01*
X93306686Y-81120817D01*
X93306687Y-81120821D01*
X93306688Y-81120821D01*
X93321491Y-81146462D01*
X94823028Y-82647999D01*
X94856513Y-82709322D01*
X94851529Y-82779014D01*
X94809657Y-82834947D01*
X94744193Y-82859364D01*
X94705675Y-82856077D01*
X94678991Y-82849500D01*
X94678985Y-82849500D01*
X94521015Y-82849500D01*
X94521011Y-82849500D01*
X94471349Y-82861740D01*
X94401547Y-82858670D01*
X94353995Y-82829024D01*
X94034512Y-82509541D01*
X94034504Y-82509535D01*
X93965995Y-82469982D01*
X93965990Y-82469979D01*
X93940513Y-82463152D01*
X93889562Y-82449500D01*
X89510438Y-82449500D01*
X89472224Y-82459739D01*
X89434009Y-82469979D01*
X89434004Y-82469982D01*
X89365495Y-82509535D01*
X89365491Y-82509538D01*
X89046003Y-82829025D01*
X88984680Y-82862509D01*
X88928648Y-82861740D01*
X88878986Y-82849500D01*
X88878985Y-82849500D01*
X88721015Y-82849500D01*
X88721011Y-82849500D01*
X88671349Y-82861740D01*
X88601547Y-82858670D01*
X88553995Y-82829024D01*
X88234512Y-82509541D01*
X88234504Y-82509535D01*
X88165995Y-82469982D01*
X88165990Y-82469979D01*
X88140513Y-82463152D01*
X88089562Y-82449500D01*
X84510438Y-82449500D01*
X84472224Y-82459739D01*
X84434009Y-82469979D01*
X84434004Y-82469982D01*
X84365495Y-82509535D01*
X84365491Y-82509538D01*
X84046003Y-82829025D01*
X83984680Y-82862509D01*
X83928648Y-82861740D01*
X83878986Y-82849500D01*
X83878985Y-82849500D01*
X83721015Y-82849500D01*
X83721014Y-82849500D01*
X83567634Y-82887303D01*
X83427762Y-82960715D01*
X83309516Y-83065471D01*
X83219781Y-83195475D01*
X83219780Y-83195476D01*
X83163762Y-83343181D01*
X83144722Y-83499999D01*
X83144722Y-83500000D01*
X83163763Y-83656818D01*
X83174490Y-83685104D01*
X83179857Y-83754768D01*
X83146709Y-83816274D01*
X83085571Y-83850095D01*
X83036534Y-83849557D01*
X83036432Y-83850404D01*
X83028986Y-83849500D01*
X83028985Y-83849500D01*
X82871015Y-83849500D01*
X82871014Y-83849500D01*
X82863568Y-83850404D01*
X82863414Y-83849135D01*
X82801313Y-83846399D01*
X82744254Y-83806074D01*
X82718055Y-83741302D01*
X82725510Y-83685102D01*
X82727835Y-83678971D01*
X82736237Y-83656818D01*
X82755278Y-83500000D01*
X82736237Y-83343182D01*
X82680220Y-83195477D01*
X82590483Y-83065470D01*
X82472240Y-82960717D01*
X82472238Y-82960716D01*
X82472237Y-82960715D01*
X82332365Y-82887303D01*
X82178986Y-82849500D01*
X82178985Y-82849500D01*
X82021015Y-82849500D01*
X82021014Y-82849500D01*
X81867634Y-82887303D01*
X81727762Y-82960715D01*
X81609516Y-83065471D01*
X81519781Y-83195475D01*
X81519780Y-83195476D01*
X81463762Y-83343181D01*
X81444722Y-83499999D01*
X81444722Y-83500000D01*
X81463763Y-83656818D01*
X81474490Y-83685104D01*
X81479857Y-83754768D01*
X81446709Y-83816274D01*
X81385571Y-83850095D01*
X81336534Y-83849557D01*
X81336432Y-83850404D01*
X81328986Y-83849500D01*
X81328985Y-83849500D01*
X81171015Y-83849500D01*
X81171014Y-83849500D01*
X81163568Y-83850404D01*
X81163414Y-83849135D01*
X81101313Y-83846399D01*
X81044254Y-83806074D01*
X81018055Y-83741302D01*
X81025510Y-83685102D01*
X81027835Y-83678971D01*
X81036237Y-83656818D01*
X81055278Y-83500000D01*
X81036237Y-83343182D01*
X80980220Y-83195477D01*
X80890483Y-83065470D01*
X80772240Y-82960717D01*
X80772238Y-82960716D01*
X80772237Y-82960715D01*
X80632365Y-82887303D01*
X80478986Y-82849500D01*
X80478985Y-82849500D01*
X80321015Y-82849500D01*
X80321014Y-82849500D01*
X80167634Y-82887303D01*
X80027762Y-82960715D01*
X79909516Y-83065471D01*
X79819781Y-83195475D01*
X79819780Y-83195476D01*
X79763762Y-83343181D01*
X79744722Y-83499999D01*
X79744722Y-83500000D01*
X74435890Y-83500000D01*
X74571599Y-83174171D01*
X74573902Y-83168984D01*
X74908380Y-82460501D01*
X74910924Y-82455421D01*
X75277911Y-81763250D01*
X75280695Y-81758280D01*
X75403834Y-81550002D01*
X76894751Y-81550002D01*
X76913685Y-81718056D01*
X76969545Y-81877694D01*
X76969547Y-81877697D01*
X77059518Y-82020884D01*
X77059523Y-82020890D01*
X77179109Y-82140476D01*
X77179115Y-82140481D01*
X77322302Y-82230452D01*
X77322305Y-82230454D01*
X77322309Y-82230455D01*
X77322310Y-82230456D01*
X77361866Y-82244297D01*
X77481943Y-82286314D01*
X77649997Y-82305249D01*
X77650000Y-82305249D01*
X77650003Y-82305249D01*
X77818056Y-82286314D01*
X77818059Y-82286313D01*
X77977690Y-82230456D01*
X77977692Y-82230454D01*
X77977694Y-82230454D01*
X77977697Y-82230452D01*
X78120884Y-82140481D01*
X78120885Y-82140480D01*
X78120890Y-82140477D01*
X78240477Y-82020890D01*
X78311079Y-81908527D01*
X78363414Y-81862237D01*
X78416073Y-81850500D01*
X81964560Y-81850500D01*
X81964562Y-81850500D01*
X82040989Y-81830021D01*
X82109511Y-81790460D01*
X82165460Y-81734511D01*
X83188153Y-80711816D01*
X83249474Y-80678333D01*
X83275823Y-80675499D01*
X83706518Y-80675499D01*
X83800304Y-80660646D01*
X83913342Y-80603050D01*
X84003050Y-80513342D01*
X84060646Y-80400304D01*
X84060646Y-80400302D01*
X84060647Y-80400301D01*
X84075499Y-80306524D01*
X84075500Y-80306519D01*
X84075499Y-79693482D01*
X84060646Y-79599696D01*
X84003050Y-79486658D01*
X84003046Y-79486654D01*
X84003045Y-79486652D01*
X83913347Y-79396954D01*
X83913344Y-79396952D01*
X83913342Y-79396950D01*
X83823755Y-79351303D01*
X83800301Y-79339352D01*
X83706524Y-79324500D01*
X83243482Y-79324500D01*
X83162519Y-79337323D01*
X83149696Y-79339354D01*
X83036658Y-79396950D01*
X83036657Y-79396951D01*
X83036652Y-79396954D01*
X82946954Y-79486652D01*
X82946951Y-79486657D01*
X82946950Y-79486658D01*
X82941274Y-79497798D01*
X82889352Y-79599698D01*
X82874500Y-79693475D01*
X82874500Y-80124166D01*
X82854815Y-80191205D01*
X82838181Y-80211847D01*
X81836848Y-81213181D01*
X81775525Y-81246666D01*
X81749167Y-81249500D01*
X78416073Y-81249500D01*
X78349034Y-81229815D01*
X78311079Y-81191472D01*
X78276387Y-81136260D01*
X78240477Y-81079110D01*
X78120890Y-80959523D01*
X78120884Y-80959518D01*
X77977697Y-80869547D01*
X77977694Y-80869545D01*
X77818056Y-80813685D01*
X77650003Y-80794751D01*
X77649997Y-80794751D01*
X77481943Y-80813685D01*
X77322305Y-80869545D01*
X77322302Y-80869547D01*
X77179115Y-80959518D01*
X77179109Y-80959523D01*
X77059523Y-81079109D01*
X77059518Y-81079115D01*
X76969547Y-81222302D01*
X76969545Y-81222305D01*
X76913685Y-81381943D01*
X76894751Y-81549997D01*
X76894751Y-81550002D01*
X75403834Y-81550002D01*
X75679401Y-81083908D01*
X75682420Y-81079061D01*
X76111998Y-80423916D01*
X76115257Y-80419190D01*
X76528186Y-79849023D01*
X79204528Y-79849023D01*
X79346233Y-79924766D01*
X79544165Y-79984808D01*
X79750000Y-80005080D01*
X79955834Y-79984808D01*
X80153764Y-79924766D01*
X80295470Y-79849022D01*
X79750001Y-79303553D01*
X79750000Y-79303553D01*
X79204528Y-79849023D01*
X76528186Y-79849023D01*
X76533418Y-79841799D01*
X76546601Y-79827711D01*
X76546303Y-79827436D01*
X76551818Y-79821474D01*
X76551823Y-79821470D01*
X76560259Y-79809542D01*
X76560632Y-79809247D01*
X76589974Y-79767746D01*
X76589975Y-79767747D01*
X76656821Y-79673205D01*
X76677591Y-79631495D01*
X76700906Y-79599092D01*
X77349998Y-78950000D01*
X78694919Y-78950000D01*
X78715191Y-79155834D01*
X78775233Y-79353766D01*
X78850975Y-79495469D01*
X78850976Y-79495469D01*
X79350369Y-78996078D01*
X79400000Y-78996078D01*
X79423852Y-79085095D01*
X79469930Y-79164905D01*
X79535095Y-79230070D01*
X79614905Y-79276148D01*
X79703922Y-79300000D01*
X79796078Y-79300000D01*
X79885095Y-79276148D01*
X79964905Y-79230070D01*
X80030070Y-79164905D01*
X80076148Y-79085095D01*
X80100000Y-78996078D01*
X80100000Y-78950000D01*
X80103553Y-78950000D01*
X80649022Y-79495469D01*
X80724766Y-79353764D01*
X80784808Y-79155834D01*
X80805080Y-78950000D01*
X80784808Y-78744165D01*
X80724766Y-78546233D01*
X80649023Y-78404528D01*
X80103553Y-78949999D01*
X80103553Y-78950000D01*
X80100000Y-78950000D01*
X80100000Y-78903922D01*
X80076148Y-78814905D01*
X80030070Y-78735095D01*
X79964905Y-78669930D01*
X79885095Y-78623852D01*
X79796078Y-78600000D01*
X79703922Y-78600000D01*
X79614905Y-78623852D01*
X79535095Y-78669930D01*
X79469930Y-78735095D01*
X79423852Y-78814905D01*
X79400000Y-78903922D01*
X79400000Y-78996078D01*
X79350369Y-78996078D01*
X79396447Y-78950000D01*
X78850976Y-78404529D01*
X78850975Y-78404529D01*
X78775234Y-78546234D01*
X78715191Y-78744166D01*
X78694919Y-78950000D01*
X77349998Y-78950000D01*
X78249022Y-78050976D01*
X79204529Y-78050976D01*
X79750000Y-78596447D01*
X79750001Y-78596447D01*
X80295469Y-78050976D01*
X80295469Y-78050975D01*
X80153766Y-77975233D01*
X79955834Y-77915191D01*
X79750000Y-77894919D01*
X79544166Y-77915191D01*
X79346234Y-77975234D01*
X79204529Y-78050975D01*
X79204529Y-78050976D01*
X78249022Y-78050976D01*
X79671878Y-76628120D01*
X79703561Y-76605167D01*
X79708235Y-76602802D01*
X79735136Y-76583484D01*
X79760520Y-76569436D01*
X79761745Y-76568935D01*
X79813120Y-76529871D01*
X79815282Y-76528267D01*
X80451926Y-76067137D01*
X80456598Y-76063915D01*
X81112738Y-75633664D01*
X81117584Y-75630645D01*
X81792979Y-75231347D01*
X81797916Y-75228580D01*
X82491140Y-74861078D01*
X82496251Y-74858519D01*
X83205760Y-74523630D01*
X83210969Y-74521317D01*
X83935319Y-74219723D01*
X83940600Y-74217668D01*
X84678146Y-73950054D01*
X84683534Y-73948239D01*
X85432718Y-73715171D01*
X85438237Y-73713594D01*
X86197406Y-73515585D01*
X86202960Y-73514274D01*
X86970513Y-73351739D01*
X86976152Y-73350682D01*
X87086601Y-73332607D01*
X87155938Y-73341206D01*
X87209620Y-73385927D01*
X87230603Y-73452572D01*
X87214912Y-73510116D01*
X87215806Y-73510487D01*
X87212896Y-73517510D01*
X87212223Y-73519981D01*
X87211236Y-73521519D01*
X87211131Y-73521770D01*
X87199500Y-73580247D01*
X87199500Y-74174167D01*
X87179815Y-74241206D01*
X87163181Y-74261848D01*
X85125181Y-76299848D01*
X85063858Y-76333333D01*
X84994166Y-76328349D01*
X84949819Y-76299848D01*
X84809512Y-76159541D01*
X84809504Y-76159535D01*
X84740995Y-76119982D01*
X84740990Y-76119979D01*
X84715513Y-76113152D01*
X84664562Y-76099500D01*
X84664560Y-76099500D01*
X82916073Y-76099500D01*
X82849034Y-76079815D01*
X82811079Y-76041472D01*
X82740476Y-75929109D01*
X82620890Y-75809523D01*
X82620884Y-75809518D01*
X82477697Y-75719547D01*
X82477694Y-75719545D01*
X82318056Y-75663685D01*
X82150003Y-75644751D01*
X82149997Y-75644751D01*
X81981943Y-75663685D01*
X81822305Y-75719545D01*
X81822302Y-75719547D01*
X81679115Y-75809518D01*
X81679109Y-75809523D01*
X81559523Y-75929109D01*
X81559518Y-75929115D01*
X81469547Y-76072302D01*
X81469545Y-76072305D01*
X81413685Y-76231943D01*
X81394751Y-76399997D01*
X81394751Y-76400002D01*
X81413685Y-76568056D01*
X81469545Y-76727694D01*
X81469547Y-76727697D01*
X81559518Y-76870884D01*
X81559523Y-76870890D01*
X81679109Y-76990476D01*
X81679115Y-76990481D01*
X81822302Y-77080452D01*
X81822305Y-77080454D01*
X81822309Y-77080455D01*
X81822310Y-77080456D01*
X81878161Y-77099999D01*
X81981943Y-77136314D01*
X82149997Y-77155249D01*
X82150000Y-77155249D01*
X82150003Y-77155249D01*
X82318056Y-77136314D01*
X82318059Y-77136313D01*
X82477690Y-77080456D01*
X82477692Y-77080454D01*
X82477694Y-77080454D01*
X82477697Y-77080452D01*
X82620884Y-76990481D01*
X82620885Y-76990480D01*
X82620890Y-76990477D01*
X82740477Y-76870890D01*
X82811079Y-76758527D01*
X82863414Y-76712237D01*
X82916073Y-76700500D01*
X84449167Y-76700500D01*
X84516206Y-76720185D01*
X84536848Y-76736819D01*
X84788181Y-76988152D01*
X84821666Y-77049475D01*
X84824500Y-77075833D01*
X84824500Y-79250728D01*
X84804815Y-79317767D01*
X84756796Y-79361212D01*
X84686659Y-79396949D01*
X84686652Y-79396954D01*
X84596954Y-79486652D01*
X84596951Y-79486657D01*
X84596950Y-79486658D01*
X84591274Y-79497798D01*
X84539352Y-79599698D01*
X84524500Y-79693475D01*
X84524500Y-80306517D01*
X84535292Y-80374657D01*
X84539354Y-80400304D01*
X84596950Y-80513342D01*
X84686658Y-80603050D01*
X84686660Y-80603051D01*
X84686663Y-80603054D01*
X84694557Y-80608790D01*
X84692903Y-80611066D01*
X84732584Y-80648535D01*
X84749500Y-80711057D01*
X84749500Y-81136260D01*
X84729815Y-81203299D01*
X84719213Y-81217462D01*
X84624625Y-81326622D01*
X84624622Y-81326628D01*
X84564834Y-81457543D01*
X84544353Y-81600000D01*
X84564834Y-81742456D01*
X84614177Y-81850500D01*
X84624623Y-81873373D01*
X84718872Y-81982143D01*
X84839947Y-82059953D01*
X84839950Y-82059954D01*
X84839949Y-82059954D01*
X84978036Y-82100499D01*
X84978038Y-82100500D01*
X84978039Y-82100500D01*
X85121962Y-82100500D01*
X85121962Y-82100499D01*
X85229121Y-82069035D01*
X85260050Y-82059954D01*
X85260050Y-82059953D01*
X85260053Y-82059953D01*
X85381128Y-81982143D01*
X85475377Y-81873373D01*
X85535165Y-81742457D01*
X85555647Y-81600000D01*
X85535165Y-81457543D01*
X85475377Y-81326627D01*
X85475375Y-81326625D01*
X85475374Y-81326622D01*
X85380787Y-81217462D01*
X85351762Y-81153906D01*
X85350500Y-81136260D01*
X85350500Y-80782359D01*
X85370185Y-80715320D01*
X85422989Y-80669565D01*
X85441157Y-80664089D01*
X85441019Y-80663663D01*
X85450300Y-80660647D01*
X85450301Y-80660646D01*
X85450304Y-80660646D01*
X85563342Y-80603050D01*
X85653050Y-80513342D01*
X85710646Y-80400304D01*
X85710646Y-80400302D01*
X85710647Y-80400301D01*
X85725499Y-80306524D01*
X85725500Y-80306519D01*
X85725499Y-79693482D01*
X85710646Y-79599696D01*
X85653050Y-79486658D01*
X85653046Y-79486654D01*
X85653045Y-79486652D01*
X85563347Y-79396954D01*
X85563343Y-79396951D01*
X85563342Y-79396950D01*
X85561582Y-79396053D01*
X85493204Y-79361212D01*
X85442408Y-79313237D01*
X85425500Y-79250728D01*
X85425500Y-76900833D01*
X85445185Y-76833794D01*
X85461819Y-76813152D01*
X85949971Y-76325000D01*
X86900000Y-76325000D01*
X86900000Y-76447844D01*
X86906401Y-76507372D01*
X86906403Y-76507379D01*
X86956645Y-76642086D01*
X86956649Y-76642093D01*
X87042809Y-76757187D01*
X87042812Y-76757190D01*
X87157906Y-76843350D01*
X87157913Y-76843354D01*
X87292620Y-76893596D01*
X87292627Y-76893598D01*
X87352155Y-76899999D01*
X87352172Y-76900000D01*
X87675000Y-76900000D01*
X87675000Y-76325000D01*
X88175000Y-76325000D01*
X88175000Y-76900000D01*
X88497828Y-76900000D01*
X88497844Y-76899999D01*
X88557372Y-76893598D01*
X88557379Y-76893596D01*
X88692086Y-76843354D01*
X88692093Y-76843350D01*
X88807187Y-76757190D01*
X88807190Y-76757187D01*
X88893350Y-76642093D01*
X88893354Y-76642086D01*
X88943596Y-76507379D01*
X88943598Y-76507372D01*
X88949999Y-76447844D01*
X88950000Y-76447827D01*
X88950000Y-76325000D01*
X91050000Y-76325000D01*
X91050000Y-76447844D01*
X91056401Y-76507372D01*
X91056403Y-76507379D01*
X91106645Y-76642086D01*
X91106649Y-76642093D01*
X91192809Y-76757187D01*
X91192812Y-76757190D01*
X91307906Y-76843350D01*
X91307913Y-76843354D01*
X91442620Y-76893596D01*
X91442627Y-76893598D01*
X91502155Y-76899999D01*
X91502172Y-76900000D01*
X91825000Y-76900000D01*
X91825000Y-76325000D01*
X92325000Y-76325000D01*
X92325000Y-76900000D01*
X92647828Y-76900000D01*
X92647844Y-76899999D01*
X92707372Y-76893598D01*
X92707379Y-76893596D01*
X92842086Y-76843354D01*
X92842093Y-76843350D01*
X92957187Y-76757190D01*
X92957190Y-76757187D01*
X93043350Y-76642093D01*
X93043354Y-76642086D01*
X93093596Y-76507379D01*
X93093598Y-76507372D01*
X93099999Y-76447844D01*
X93100000Y-76447827D01*
X93100000Y-76325000D01*
X92325000Y-76325000D01*
X91825000Y-76325000D01*
X91050000Y-76325000D01*
X88950000Y-76325000D01*
X88175000Y-76325000D01*
X87675000Y-76325000D01*
X86900000Y-76325000D01*
X85949971Y-76325000D01*
X86043030Y-76231941D01*
X86690873Y-75584097D01*
X86752194Y-75550614D01*
X86821886Y-75555598D01*
X86877819Y-75597470D01*
X86902236Y-75662934D01*
X86901842Y-75685032D01*
X86900000Y-75702164D01*
X86900000Y-75825000D01*
X87675000Y-75825000D01*
X87675000Y-75250000D01*
X88175000Y-75250000D01*
X88175000Y-75825000D01*
X88950000Y-75825000D01*
X91050000Y-75825000D01*
X91825000Y-75825000D01*
X91825000Y-75250000D01*
X92325000Y-75250000D01*
X92325000Y-75825000D01*
X93100000Y-75825000D01*
X93100000Y-75702172D01*
X93099999Y-75702155D01*
X93093598Y-75642627D01*
X93093596Y-75642620D01*
X93043354Y-75507913D01*
X93043350Y-75507906D01*
X92957190Y-75392812D01*
X92957187Y-75392809D01*
X92842093Y-75306649D01*
X92842086Y-75306645D01*
X92707379Y-75256403D01*
X92707372Y-75256401D01*
X92647844Y-75250000D01*
X92325000Y-75250000D01*
X91825000Y-75250000D01*
X91502155Y-75250000D01*
X91442627Y-75256401D01*
X91442620Y-75256403D01*
X91307913Y-75306645D01*
X91307906Y-75306649D01*
X91192812Y-75392809D01*
X91192809Y-75392812D01*
X91106649Y-75507906D01*
X91106645Y-75507913D01*
X91056403Y-75642620D01*
X91056401Y-75642627D01*
X91050000Y-75702155D01*
X91050000Y-75825000D01*
X88950000Y-75825000D01*
X88950000Y-75702172D01*
X88949999Y-75702155D01*
X88943598Y-75642627D01*
X88943596Y-75642620D01*
X88893354Y-75507913D01*
X88893350Y-75507906D01*
X88807190Y-75392812D01*
X88807187Y-75392809D01*
X88692093Y-75306649D01*
X88692086Y-75306645D01*
X88557379Y-75256403D01*
X88557372Y-75256401D01*
X88497844Y-75250000D01*
X88175000Y-75250000D01*
X87675000Y-75250000D01*
X87352164Y-75250000D01*
X87335032Y-75251842D01*
X87266273Y-75239435D01*
X87215137Y-75191823D01*
X87197859Y-75124124D01*
X87219925Y-75057830D01*
X87234093Y-75040877D01*
X87788152Y-74486819D01*
X87849475Y-74453334D01*
X87875833Y-74450500D01*
X88469750Y-74450500D01*
X88469751Y-74450499D01*
X88484568Y-74447552D01*
X88528229Y-74438868D01*
X88528229Y-74438867D01*
X88528231Y-74438867D01*
X88594552Y-74394552D01*
X88638867Y-74328231D01*
X88638867Y-74328229D01*
X88638868Y-74328229D01*
X88639449Y-74325309D01*
X88642470Y-74319532D01*
X88643542Y-74316946D01*
X88643773Y-74317041D01*
X88671834Y-74263398D01*
X88732549Y-74228824D01*
X88761066Y-74225500D01*
X91238934Y-74225500D01*
X91305973Y-74245185D01*
X91351728Y-74297989D01*
X91360551Y-74325309D01*
X91361131Y-74328229D01*
X91361132Y-74328230D01*
X91405447Y-74394552D01*
X91471769Y-74438867D01*
X91471770Y-74438868D01*
X91530247Y-74450499D01*
X91530250Y-74450500D01*
X91530252Y-74450500D01*
X92619750Y-74450500D01*
X92619751Y-74450499D01*
X92634568Y-74447552D01*
X92678229Y-74438868D01*
X92678229Y-74438867D01*
X92678231Y-74438867D01*
X92744552Y-74394552D01*
X92788867Y-74328231D01*
X92788867Y-74328229D01*
X92788868Y-74328229D01*
X92800499Y-74269752D01*
X92800500Y-74269750D01*
X92800500Y-73580249D01*
X92800499Y-73580247D01*
X92788868Y-73521770D01*
X92788867Y-73521768D01*
X92763365Y-73483603D01*
X92742486Y-73416926D01*
X92760970Y-73349546D01*
X92812948Y-73302855D01*
X92881918Y-73291678D01*
X92886587Y-73292355D01*
G37*
%TD.AperFunction*%
%TD*%
M02*
