%TF.GenerationSoftware,KiCad,Pcbnew,8.0.1*%
%TF.CreationDate,2024-12-08T15:20:24+09:00*%
%TF.ProjectId,watch,77617463-682e-46b6-9963-61645f706362,rev?*%
%TF.SameCoordinates,Original*%
%TF.FileFunction,Copper,L2,Bot*%
%TF.FilePolarity,Positive*%
%FSLAX46Y46*%
G04 Gerber Fmt 4.6, Leading zero omitted, Abs format (unit mm)*
G04 Created by KiCad (PCBNEW 8.0.1) date 2024-12-08 15:20:24*
%MOMM*%
%LPD*%
G01*
G04 APERTURE LIST*
%TA.AperFunction,ComponentPad*%
%ADD10R,0.900000X0.900000*%
%TD*%
%TA.AperFunction,ComponentPad*%
%ADD11C,0.900000*%
%TD*%
%TA.AperFunction,SMDPad,CuDef*%
%ADD12R,2.540000X3.510000*%
%TD*%
%TA.AperFunction,ComponentPad*%
%ADD13R,2.000000X2.000000*%
%TD*%
%TA.AperFunction,ComponentPad*%
%ADD14O,2.200000X2.200000*%
%TD*%
%TA.AperFunction,ComponentPad*%
%ADD15C,1.100000*%
%TD*%
%TA.AperFunction,ViaPad*%
%ADD16C,0.600000*%
%TD*%
%TA.AperFunction,Conductor*%
%ADD17C,0.200000*%
%TD*%
%TA.AperFunction,Conductor*%
%ADD18C,0.500000*%
%TD*%
G04 APERTURE END LIST*
D10*
%TO.P,U4,1,E*%
%TO.N,Net-(U2-E)*%
X91200000Y-94500000D03*
D11*
%TO.P,U4,2,D*%
%TO.N,Net-(U2-D)*%
X92050000Y-93500000D03*
%TO.P,U4,3,CC*%
%TO.N,Net-(Q3-C)*%
X92900000Y-94500000D03*
%TO.P,U4,4,C*%
%TO.N,Net-(U2-C)*%
X93750000Y-93500000D03*
%TO.P,U4,5,DP*%
%TO.N,unconnected-(U4-DP-Pad5)*%
X94600000Y-94500000D03*
%TO.P,U4,6,B*%
%TO.N,Net-(U2-B)*%
X94600000Y-83500000D03*
%TO.P,U4,7,A*%
%TO.N,Net-(U2-A)*%
X93750000Y-84500000D03*
%TO.P,U4,8,CC*%
%TO.N,unconnected-(U4-CC-Pad8)*%
X92900000Y-83500000D03*
%TO.P,U4,9,F*%
%TO.N,Net-(U2-F)*%
X92050000Y-84500000D03*
%TO.P,U4,10,G*%
%TO.N,Net-(U2-G)*%
X91200000Y-83500000D03*
%TD*%
D10*
%TO.P,U5,1,E*%
%TO.N,Net-(U2-E)*%
X96200000Y-94500000D03*
D11*
%TO.P,U5,2,D*%
%TO.N,Net-(U2-D)*%
X97050000Y-93500000D03*
%TO.P,U5,3,CC*%
%TO.N,Net-(Q4-C)*%
X97900000Y-94500000D03*
%TO.P,U5,4,C*%
%TO.N,Net-(U2-C)*%
X98750000Y-93500000D03*
%TO.P,U5,5,DP*%
%TO.N,unconnected-(U5-DP-Pad5)*%
X99600000Y-94500000D03*
%TO.P,U5,6,B*%
%TO.N,Net-(U2-B)*%
X99600000Y-83500000D03*
%TO.P,U5,7,A*%
%TO.N,Net-(U2-A)*%
X98750000Y-84500000D03*
%TO.P,U5,8,CC*%
%TO.N,unconnected-(U5-CC-Pad8)*%
X97900000Y-83500000D03*
%TO.P,U5,9,F*%
%TO.N,Net-(U2-F)*%
X97050000Y-84500000D03*
%TO.P,U5,10,G*%
%TO.N,Net-(U2-G)*%
X96200000Y-83500000D03*
%TD*%
D10*
%TO.P,U2,1,E*%
%TO.N,Net-(U2-E)*%
X80400000Y-94500000D03*
D11*
%TO.P,U2,2,D*%
%TO.N,Net-(U2-D)*%
X81250000Y-93500000D03*
%TO.P,U2,3,CC*%
%TO.N,Net-(Q1-C)*%
X82100000Y-94500000D03*
%TO.P,U2,4,C*%
%TO.N,Net-(U2-C)*%
X82950000Y-93500000D03*
%TO.P,U2,5,DP*%
%TO.N,unconnected-(U2-DP-Pad5)*%
X83800000Y-94500000D03*
%TO.P,U2,6,B*%
%TO.N,Net-(U2-B)*%
X83800000Y-83500000D03*
%TO.P,U2,7,A*%
%TO.N,Net-(U2-A)*%
X82950000Y-84500000D03*
%TO.P,U2,8,CC*%
%TO.N,unconnected-(U2-CC-Pad8)*%
X82100000Y-83500000D03*
%TO.P,U2,9,F*%
%TO.N,Net-(U2-F)*%
X81250000Y-84500000D03*
%TO.P,U2,10,G*%
%TO.N,Net-(U2-G)*%
X80400000Y-83500000D03*
%TD*%
D10*
%TO.P,U3,1,E*%
%TO.N,Net-(U2-E)*%
X85400000Y-94500000D03*
D11*
%TO.P,U3,2,D*%
%TO.N,Net-(U2-D)*%
X86250000Y-93500000D03*
%TO.P,U3,3,CC*%
%TO.N,Net-(Q2-C)*%
X87100000Y-94500000D03*
%TO.P,U3,4,C*%
%TO.N,Net-(U2-C)*%
X87950000Y-93500000D03*
%TO.P,U3,5,DP*%
%TO.N,unconnected-(U3-DP-Pad5)*%
X88800000Y-94500000D03*
%TO.P,U3,6,B*%
%TO.N,Net-(U2-B)*%
X88800000Y-83500000D03*
%TO.P,U3,7,A*%
%TO.N,Net-(U2-A)*%
X87950000Y-84500000D03*
%TO.P,U3,8,CC*%
%TO.N,unconnected-(U3-CC-Pad8)*%
X87100000Y-83500000D03*
%TO.P,U3,9,F*%
%TO.N,Net-(U2-F)*%
X86250000Y-84500000D03*
%TO.P,U3,10,G*%
%TO.N,Net-(U2-G)*%
X85400000Y-83500000D03*
%TD*%
D12*
%TO.P,BT1,1,+*%
%TO.N,VDD*%
X75400000Y-89975000D03*
%TO.P,BT1,2,-*%
%TO.N,GND*%
X104760000Y-89975000D03*
%TD*%
D13*
%TO.P,BT2,1,+*%
%TO.N,VDD*%
X79800000Y-89900000D03*
D14*
%TO.P,BT2,2,-*%
%TO.N,GND*%
X99900000Y-89900000D03*
%TD*%
D15*
%TO.P,TP5,1,1*%
%TO.N,Net-(U1-NRST)*%
X82150000Y-76400000D03*
%TD*%
%TO.P,TP4,1,1*%
%TO.N,Net-(U1-PA13{slash}SWDIO)*%
X90400000Y-105650000D03*
%TD*%
%TO.P,TP1,1,1*%
%TO.N,VDD*%
X77650000Y-81550000D03*
%TD*%
%TO.P,TP2,1,1*%
%TO.N,Net-(U1-PA14{slash}SWCLK)*%
X87650000Y-105650000D03*
%TD*%
%TO.P,TP3,1,1*%
%TO.N,GND*%
X79750000Y-78950000D03*
%TD*%
D16*
%TO.N,VDD*%
X80400000Y-102200000D03*
X88100000Y-102650000D03*
%TO.N,GND*%
X75900000Y-85200000D03*
X100000000Y-98420000D03*
X89900000Y-96350000D03*
X78850000Y-92450000D03*
X94350000Y-80600000D03*
X88800000Y-98550000D03*
X89950000Y-80750000D03*
X94100000Y-89800000D03*
X89900000Y-93600000D03*
X84400000Y-96450000D03*
X84500000Y-93450000D03*
X94600000Y-102600000D03*
X95450000Y-93500000D03*
X87000000Y-89750000D03*
X94700000Y-74750000D03*
X103300000Y-98650000D03*
X98880000Y-95320000D03*
X95000000Y-96150000D03*
X84050000Y-104800000D03*
%TO.N,Net-(D1-K)*%
X83150000Y-86300000D03*
X103800000Y-82250000D03*
%TO.N,Net-(U2-A)*%
X94211952Y-78599569D03*
%TO.N,Net-(U1-PA1)*%
X77984925Y-98299999D03*
X88050000Y-100000000D03*
X97993593Y-98762167D03*
X101900000Y-87650000D03*
%TO.N,Net-(U2-G)*%
X95300000Y-79350000D03*
%TO.N,Net-(U2-F)*%
X97700000Y-81300000D03*
%TO.N,Net-(D1-A)*%
X95244053Y-97363906D03*
X101600000Y-97900000D03*
%TO.N,Net-(U1-PB9)*%
X98700000Y-100000000D03*
X93100000Y-105200000D03*
%TO.N,Net-(U1-NRST)*%
X90000000Y-102000000D03*
X85050000Y-81600000D03*
%TD*%
D17*
%TO.N,VDD*%
X76685140Y-98485140D02*
X80400000Y-102200000D01*
D18*
X75400000Y-89975000D02*
X79725000Y-89975000D01*
X79800000Y-87250000D02*
X77650000Y-85100000D01*
D17*
X80400000Y-102200000D02*
X80850000Y-102650000D01*
D18*
X79800000Y-89900000D02*
X79800000Y-87250000D01*
X79725000Y-89975000D02*
X79800000Y-89900000D01*
D17*
X76685140Y-93014860D02*
X76685140Y-98485140D01*
X80850000Y-102650000D02*
X88100000Y-102650000D01*
D18*
X77650000Y-85100000D02*
X77650000Y-81550000D01*
D17*
X79800000Y-89900000D02*
X76685140Y-93014860D01*
%TO.N,GND*%
X99975000Y-89975000D02*
X99900000Y-89900000D01*
%TO.N,Net-(D1-K)*%
X101300000Y-82650000D02*
X101300000Y-83010661D01*
X101700000Y-82250000D02*
X101300000Y-82650000D01*
X101300000Y-83010661D02*
X98010661Y-86300000D01*
X98010661Y-86300000D02*
X83150000Y-86300000D01*
X103800000Y-82250000D02*
X101700000Y-82250000D01*
%TO.N,Net-(U2-A)*%
X87950000Y-84500000D02*
X88700000Y-85250000D01*
X95918808Y-78599569D02*
X94211952Y-78599569D01*
X98000000Y-85250000D02*
X98750000Y-84500000D01*
X87200000Y-85250000D02*
X87950000Y-84500000D01*
X83700000Y-85250000D02*
X87200000Y-85250000D01*
X98750000Y-81430761D02*
X95918808Y-78599569D01*
X93750000Y-84500000D02*
X94500000Y-85250000D01*
X82950000Y-84500000D02*
X83700000Y-85250000D01*
X93000000Y-85250000D02*
X93750000Y-84500000D01*
X88700000Y-85250000D02*
X93000000Y-85250000D01*
X98750000Y-84500000D02*
X98750000Y-81430761D01*
X94500000Y-85250000D02*
X98000000Y-85250000D01*
%TO.N,Net-(U2-D)*%
X96300000Y-92750000D02*
X97050000Y-93500000D01*
X81300000Y-93500000D02*
X82050000Y-92750000D01*
X81250000Y-93500000D02*
X81300000Y-93500000D01*
X91300000Y-92750000D02*
X92050000Y-93500000D01*
X85500000Y-92750000D02*
X86250000Y-93500000D01*
X87000000Y-92750000D02*
X91300000Y-92750000D01*
X86250000Y-93500000D02*
X87000000Y-92750000D01*
X92800000Y-92750000D02*
X96300000Y-92750000D01*
X92050000Y-93500000D02*
X92800000Y-92750000D01*
X82050000Y-92750000D02*
X85500000Y-92750000D01*
%TO.N,Net-(U1-PA1)*%
X79684926Y-100000000D02*
X77984925Y-98299999D01*
X101500000Y-88050000D02*
X101900000Y-87650000D01*
X101500000Y-95850000D02*
X98650000Y-98700000D01*
X101500000Y-95850000D02*
X101500000Y-88050000D01*
X98650000Y-98700000D02*
X98055760Y-98700000D01*
X88050000Y-100000000D02*
X79684926Y-100000000D01*
X98055760Y-98700000D02*
X97993593Y-98762167D01*
%TO.N,Net-(U2-G)*%
X86150000Y-82750000D02*
X90450000Y-82750000D01*
X81150000Y-82750000D02*
X84650000Y-82750000D01*
X80400000Y-83500000D02*
X81150000Y-82750000D01*
X95300000Y-82600000D02*
X95800000Y-83100000D01*
X91200000Y-83500000D02*
X91950000Y-82750000D01*
X84650000Y-82750000D02*
X85400000Y-83500000D01*
X85400000Y-83500000D02*
X86150000Y-82750000D01*
X90450000Y-82750000D02*
X91200000Y-83500000D01*
X95300000Y-79350000D02*
X95300000Y-82600000D01*
X95800000Y-83100000D02*
X96200000Y-83500000D01*
X95450000Y-82750000D02*
X95800000Y-83100000D01*
X91950000Y-82750000D02*
X95450000Y-82750000D01*
%TO.N,Net-(U2-E)*%
X91200000Y-94500000D02*
X91950000Y-95250000D01*
X95450000Y-95250000D02*
X96200000Y-94500000D01*
X90450000Y-95250000D02*
X91200000Y-94500000D01*
X84650000Y-95250000D02*
X85400000Y-94500000D01*
X86150000Y-95250000D02*
X90450000Y-95250000D01*
X81150000Y-95250000D02*
X84650000Y-95250000D01*
X80400000Y-94500000D02*
X81150000Y-95250000D01*
X85400000Y-94500000D02*
X86150000Y-95250000D01*
X91950000Y-95250000D02*
X95450000Y-95250000D01*
%TO.N,Net-(U2-F)*%
X97700000Y-82550000D02*
X97050000Y-83200000D01*
X97700000Y-81300000D02*
X97700000Y-82550000D01*
X97050000Y-83200000D02*
X97050000Y-84500000D01*
%TO.N,Net-(D1-A)*%
X96289375Y-99362167D02*
X95244053Y-98316845D01*
X101600000Y-97900000D02*
X100137833Y-99362167D01*
X100137833Y-99362167D02*
X96289375Y-99362167D01*
X95244053Y-98316845D02*
X95244053Y-97363906D01*
%TO.N,Net-(U1-PB9)*%
X93900000Y-105200000D02*
X94750000Y-104350000D01*
X93100000Y-105200000D02*
X93900000Y-105200000D01*
X98150000Y-103350000D02*
X98700000Y-103350000D01*
X94750000Y-104350000D02*
X97150000Y-104350000D01*
X98700000Y-103350000D02*
X98700000Y-100000000D01*
X97150000Y-104350000D02*
X98150000Y-103350000D01*
%TO.N,Net-(U1-NRST)*%
X77085140Y-96330546D02*
X81100000Y-92315686D01*
X79650000Y-83150000D02*
X81200000Y-81600000D01*
X90000000Y-102000000D02*
X83950001Y-102000000D01*
X77085140Y-98319454D02*
X77085140Y-96330546D01*
X81100000Y-92315686D02*
X81100000Y-85410661D01*
X81100000Y-85410661D02*
X79650000Y-83960661D01*
X79650000Y-83960661D02*
X79650000Y-83150000D01*
X79665685Y-100899999D02*
X77085140Y-98319454D01*
X82850000Y-100899999D02*
X79665685Y-100899999D01*
X83950001Y-102000000D02*
X82850000Y-100899999D01*
X81200000Y-81600000D02*
X85050000Y-81600000D01*
%TD*%
%TA.AperFunction,Conductor*%
%TO.N,GND*%
G36*
X80742539Y-91120185D02*
G01*
X80788294Y-91172989D01*
X80799500Y-91224500D01*
X80799500Y-92139853D01*
X80779815Y-92206892D01*
X80763181Y-92227534D01*
X77197321Y-95793394D01*
X77135998Y-95826879D01*
X77066306Y-95821895D01*
X77010373Y-95780023D01*
X76985956Y-95714559D01*
X76985640Y-95705713D01*
X76985640Y-93190693D01*
X77005325Y-93123654D01*
X77021959Y-93103012D01*
X78988152Y-91136819D01*
X79049475Y-91103334D01*
X79075833Y-91100500D01*
X80675500Y-91100500D01*
X80742539Y-91120185D01*
G37*
%TD.AperFunction*%
%TA.AperFunction,Conductor*%
G36*
X91191206Y-93070185D02*
G01*
X91211848Y-93086819D01*
X91376965Y-93251936D01*
X91410450Y-93313259D01*
X91412380Y-93354563D01*
X91394722Y-93499999D01*
X91394722Y-93500000D01*
X91413763Y-93656819D01*
X91413763Y-93656821D01*
X91423134Y-93681530D01*
X91428501Y-93751193D01*
X91395353Y-93812699D01*
X91334214Y-93846520D01*
X91307192Y-93849500D01*
X90730247Y-93849500D01*
X90671770Y-93861131D01*
X90671769Y-93861132D01*
X90605447Y-93905447D01*
X90561132Y-93971769D01*
X90561131Y-93971770D01*
X90549500Y-94030247D01*
X90549500Y-94674167D01*
X90529815Y-94741206D01*
X90513181Y-94761848D01*
X90361848Y-94913181D01*
X90300525Y-94946666D01*
X90274167Y-94949500D01*
X89504882Y-94949500D01*
X89437843Y-94929815D01*
X89392088Y-94877011D01*
X89382144Y-94807853D01*
X89388938Y-94781534D01*
X89436237Y-94656818D01*
X89455278Y-94500000D01*
X89436237Y-94343182D01*
X89436236Y-94343180D01*
X89408237Y-94269353D01*
X89380220Y-94195477D01*
X89290483Y-94065470D01*
X89172240Y-93960717D01*
X89172238Y-93960716D01*
X89172237Y-93960715D01*
X89032365Y-93887303D01*
X88878986Y-93849500D01*
X88878985Y-93849500D01*
X88721015Y-93849500D01*
X88721014Y-93849500D01*
X88713568Y-93850404D01*
X88713414Y-93849135D01*
X88651313Y-93846399D01*
X88594254Y-93806074D01*
X88568055Y-93741302D01*
X88575510Y-93685102D01*
X88576865Y-93681530D01*
X88586237Y-93656818D01*
X88605278Y-93500000D01*
X88586237Y-93343182D01*
X88538939Y-93218469D01*
X88533573Y-93148808D01*
X88566720Y-93087302D01*
X88627858Y-93053481D01*
X88654882Y-93050500D01*
X91124167Y-93050500D01*
X91191206Y-93070185D01*
G37*
%TD.AperFunction*%
%TA.AperFunction,Conductor*%
G36*
X85391206Y-93070185D02*
G01*
X85411848Y-93086819D01*
X85576965Y-93251936D01*
X85610450Y-93313259D01*
X85612380Y-93354563D01*
X85594722Y-93499999D01*
X85594722Y-93500000D01*
X85613763Y-93656819D01*
X85613763Y-93656821D01*
X85623134Y-93681530D01*
X85628501Y-93751193D01*
X85595353Y-93812699D01*
X85534214Y-93846520D01*
X85507192Y-93849500D01*
X84930247Y-93849500D01*
X84871770Y-93861131D01*
X84871769Y-93861132D01*
X84805447Y-93905447D01*
X84761132Y-93971769D01*
X84761131Y-93971770D01*
X84749500Y-94030247D01*
X84749500Y-94674167D01*
X84729815Y-94741206D01*
X84713185Y-94761843D01*
X84624701Y-94850328D01*
X84611329Y-94863700D01*
X84550006Y-94897184D01*
X84480314Y-94892200D01*
X84424381Y-94850328D01*
X84399964Y-94784863D01*
X84407705Y-94732049D01*
X84436237Y-94656818D01*
X84455278Y-94500000D01*
X84436237Y-94343182D01*
X84436236Y-94343180D01*
X84408237Y-94269353D01*
X84380220Y-94195477D01*
X84290483Y-94065470D01*
X84172240Y-93960717D01*
X84172238Y-93960716D01*
X84172237Y-93960715D01*
X84032365Y-93887303D01*
X83878986Y-93849500D01*
X83878985Y-93849500D01*
X83721015Y-93849500D01*
X83721014Y-93849500D01*
X83713568Y-93850404D01*
X83713414Y-93849135D01*
X83651313Y-93846399D01*
X83594254Y-93806074D01*
X83568055Y-93741302D01*
X83575510Y-93685102D01*
X83576865Y-93681530D01*
X83586237Y-93656818D01*
X83605278Y-93500000D01*
X83586237Y-93343182D01*
X83538939Y-93218469D01*
X83533573Y-93148808D01*
X83566720Y-93087302D01*
X83627858Y-93053481D01*
X83654882Y-93050500D01*
X85324167Y-93050500D01*
X85391206Y-93070185D01*
G37*
%TD.AperFunction*%
%TA.AperFunction,Conductor*%
G36*
X96191206Y-93070185D02*
G01*
X96211848Y-93086819D01*
X96376965Y-93251936D01*
X96410450Y-93313259D01*
X96412380Y-93354563D01*
X96394722Y-93499999D01*
X96394722Y-93500000D01*
X96413763Y-93656819D01*
X96413763Y-93656821D01*
X96423134Y-93681530D01*
X96428501Y-93751193D01*
X96395353Y-93812699D01*
X96334214Y-93846520D01*
X96307192Y-93849500D01*
X95730247Y-93849500D01*
X95671770Y-93861131D01*
X95671769Y-93861132D01*
X95605447Y-93905447D01*
X95561132Y-93971769D01*
X95561131Y-93971770D01*
X95549500Y-94030247D01*
X95549500Y-94674167D01*
X95529815Y-94741206D01*
X95513185Y-94761843D01*
X95424701Y-94850328D01*
X95411329Y-94863700D01*
X95350006Y-94897184D01*
X95280314Y-94892200D01*
X95224381Y-94850328D01*
X95199964Y-94784863D01*
X95207705Y-94732049D01*
X95236237Y-94656818D01*
X95255278Y-94500000D01*
X95236237Y-94343182D01*
X95236236Y-94343180D01*
X95208237Y-94269353D01*
X95180220Y-94195477D01*
X95090483Y-94065470D01*
X94972240Y-93960717D01*
X94972238Y-93960716D01*
X94972237Y-93960715D01*
X94832365Y-93887303D01*
X94678986Y-93849500D01*
X94678985Y-93849500D01*
X94521015Y-93849500D01*
X94521014Y-93849500D01*
X94513568Y-93850404D01*
X94513414Y-93849135D01*
X94451313Y-93846399D01*
X94394254Y-93806074D01*
X94368055Y-93741302D01*
X94375510Y-93685102D01*
X94376865Y-93681530D01*
X94386237Y-93656818D01*
X94405278Y-93500000D01*
X94386237Y-93343182D01*
X94338939Y-93218469D01*
X94333573Y-93148808D01*
X94366720Y-93087302D01*
X94427858Y-93053481D01*
X94454882Y-93050500D01*
X96124167Y-93050500D01*
X96191206Y-93070185D01*
G37*
%TD.AperFunction*%
%TA.AperFunction,Conductor*%
G36*
X90119609Y-73059574D02*
G01*
X90903964Y-73078128D01*
X90909646Y-73078395D01*
X91692291Y-73133360D01*
X91698021Y-73133896D01*
X92477242Y-73225151D01*
X92482932Y-73225951D01*
X93257053Y-73353298D01*
X93262700Y-73354361D01*
X94030125Y-73517538D01*
X94035694Y-73518858D01*
X94794722Y-73717507D01*
X94800188Y-73719074D01*
X95549154Y-73952760D01*
X95554573Y-73954589D01*
X96291894Y-74222816D01*
X96297223Y-74224897D01*
X97021252Y-74527066D01*
X97026497Y-74529400D01*
X97735725Y-74864881D01*
X97740833Y-74867445D01*
X98271728Y-75149458D01*
X98433688Y-75235492D01*
X98438712Y-75238312D01*
X99113717Y-75638140D01*
X99118604Y-75641190D01*
X99378784Y-75812108D01*
X99774319Y-76071945D01*
X99779028Y-76075197D01*
X100365188Y-76500507D01*
X100370197Y-76504652D01*
X100373829Y-76507265D01*
X100404110Y-76529053D01*
X100420412Y-76540782D01*
X100423126Y-76542792D01*
X100468786Y-76577571D01*
X100474977Y-76581116D01*
X100501044Y-76601044D01*
X103540157Y-79640157D01*
X103561615Y-79669976D01*
X103561742Y-79669901D01*
X103562632Y-79671390D01*
X103563471Y-79672556D01*
X103564180Y-79673980D01*
X103589831Y-79710256D01*
X103596881Y-79723106D01*
X103597289Y-79722874D01*
X103601321Y-79729928D01*
X103601324Y-79729936D01*
X103632388Y-79770797D01*
X103634706Y-79773846D01*
X103637228Y-79777285D01*
X103669274Y-79822592D01*
X103678205Y-79833486D01*
X104102386Y-80419188D01*
X104105653Y-80423927D01*
X104535211Y-81079040D01*
X104538255Y-81083927D01*
X104936933Y-81758253D01*
X104939747Y-81763275D01*
X105306702Y-82455385D01*
X105309280Y-82460532D01*
X105343966Y-82534004D01*
X105622028Y-83122989D01*
X105643725Y-83168946D01*
X105646060Y-83174207D01*
X105927322Y-83849500D01*
X105947251Y-83897347D01*
X105949340Y-83902709D01*
X106025569Y-84112696D01*
X106216656Y-84639084D01*
X106218494Y-84644539D01*
X106451339Y-85392511D01*
X106452922Y-85398046D01*
X106650803Y-86156026D01*
X106652127Y-86161628D01*
X106814611Y-86927962D01*
X106815674Y-86933620D01*
X106942414Y-87706660D01*
X106943214Y-87712361D01*
X107033944Y-88490499D01*
X107034477Y-88496231D01*
X107088989Y-89277674D01*
X107089257Y-89283425D01*
X107107442Y-90066608D01*
X107107442Y-90072364D01*
X107089257Y-90855547D01*
X107088989Y-90861298D01*
X107034478Y-91642742D01*
X107033945Y-91648474D01*
X106943215Y-92426612D01*
X106942415Y-92432313D01*
X106815676Y-93205353D01*
X106814613Y-93211011D01*
X106652128Y-93977345D01*
X106650804Y-93982947D01*
X106452924Y-94740926D01*
X106451341Y-94746461D01*
X106218496Y-95494434D01*
X106216658Y-95499889D01*
X105949346Y-96236254D01*
X105947256Y-96241619D01*
X105646059Y-96964773D01*
X105643723Y-96970034D01*
X105309283Y-97678441D01*
X105306705Y-97683588D01*
X104939750Y-98375699D01*
X104936936Y-98380721D01*
X104538258Y-99055047D01*
X104535214Y-99059933D01*
X104105648Y-99715060D01*
X104102380Y-99719800D01*
X103678207Y-100305488D01*
X103669275Y-100316386D01*
X103640712Y-100356766D01*
X103627160Y-100372838D01*
X100358247Y-103641751D01*
X100343408Y-103654420D01*
X99781537Y-104062269D01*
X99776793Y-104065546D01*
X99120668Y-104496715D01*
X99115778Y-104499769D01*
X98440274Y-104900000D01*
X98435246Y-104902823D01*
X97741888Y-105271208D01*
X97736735Y-105273794D01*
X97027003Y-105609552D01*
X97021735Y-105611896D01*
X96297159Y-105914302D01*
X96291789Y-105916398D01*
X95553928Y-106184800D01*
X95548465Y-106186644D01*
X94798955Y-106420447D01*
X94793412Y-106422036D01*
X94033817Y-106620752D01*
X94028207Y-106622081D01*
X93260209Y-106785272D01*
X93254543Y-106786339D01*
X92479777Y-106913655D01*
X92474068Y-106914457D01*
X91694233Y-107005621D01*
X91688492Y-107006157D01*
X90905270Y-107060971D01*
X90899511Y-107061240D01*
X90114577Y-107079588D01*
X90108811Y-107079589D01*
X89323872Y-107061430D01*
X89318113Y-107061163D01*
X88534855Y-107006536D01*
X88529114Y-107006001D01*
X87749261Y-106915026D01*
X87743551Y-106914225D01*
X86968752Y-106787095D01*
X86963086Y-106786029D01*
X86195048Y-106623023D01*
X86189447Y-106621697D01*
X85429812Y-106423165D01*
X85424272Y-106421579D01*
X84674685Y-106187949D01*
X84669222Y-106186106D01*
X83931313Y-105917888D01*
X83925941Y-105915793D01*
X83288663Y-105650002D01*
X86894751Y-105650002D01*
X86913685Y-105818056D01*
X86969545Y-105977694D01*
X86969547Y-105977697D01*
X87059518Y-106120884D01*
X87059523Y-106120890D01*
X87179109Y-106240476D01*
X87179115Y-106240481D01*
X87322302Y-106330452D01*
X87322305Y-106330454D01*
X87322309Y-106330455D01*
X87322310Y-106330456D01*
X87394913Y-106355860D01*
X87481943Y-106386314D01*
X87649997Y-106405249D01*
X87650000Y-106405249D01*
X87650003Y-106405249D01*
X87818056Y-106386314D01*
X87818059Y-106386313D01*
X87977690Y-106330456D01*
X87977692Y-106330454D01*
X87977694Y-106330454D01*
X87977697Y-106330452D01*
X88120884Y-106240481D01*
X88120885Y-106240480D01*
X88120890Y-106240477D01*
X88240477Y-106120890D01*
X88300026Y-106026119D01*
X88330452Y-105977697D01*
X88330454Y-105977694D01*
X88330454Y-105977692D01*
X88330456Y-105977690D01*
X88386313Y-105818059D01*
X88386313Y-105818058D01*
X88386314Y-105818056D01*
X88405249Y-105650002D01*
X89644751Y-105650002D01*
X89663685Y-105818056D01*
X89719545Y-105977694D01*
X89719547Y-105977697D01*
X89809518Y-106120884D01*
X89809523Y-106120890D01*
X89929109Y-106240476D01*
X89929115Y-106240481D01*
X90072302Y-106330452D01*
X90072305Y-106330454D01*
X90072309Y-106330455D01*
X90072310Y-106330456D01*
X90144913Y-106355860D01*
X90231943Y-106386314D01*
X90399997Y-106405249D01*
X90400000Y-106405249D01*
X90400003Y-106405249D01*
X90568056Y-106386314D01*
X90568059Y-106386313D01*
X90727690Y-106330456D01*
X90727692Y-106330454D01*
X90727694Y-106330454D01*
X90727697Y-106330452D01*
X90870884Y-106240481D01*
X90870885Y-106240480D01*
X90870890Y-106240477D01*
X90990477Y-106120890D01*
X91050026Y-106026119D01*
X91080452Y-105977697D01*
X91080454Y-105977694D01*
X91080454Y-105977692D01*
X91080456Y-105977690D01*
X91136313Y-105818059D01*
X91136313Y-105818058D01*
X91136314Y-105818056D01*
X91155249Y-105650002D01*
X91155249Y-105649997D01*
X91136314Y-105481943D01*
X91080454Y-105322305D01*
X91080452Y-105322302D01*
X91003604Y-105200000D01*
X92594353Y-105200000D01*
X92614834Y-105342456D01*
X92659591Y-105440458D01*
X92674623Y-105473373D01*
X92768872Y-105582143D01*
X92889947Y-105659953D01*
X92889950Y-105659954D01*
X92889949Y-105659954D01*
X93028036Y-105700499D01*
X93028038Y-105700500D01*
X93028039Y-105700500D01*
X93171962Y-105700500D01*
X93171962Y-105700499D01*
X93310053Y-105659953D01*
X93431128Y-105582143D01*
X93464788Y-105543296D01*
X93523567Y-105505523D01*
X93558501Y-105500500D01*
X93939560Y-105500500D01*
X93939562Y-105500500D01*
X94015989Y-105480021D01*
X94084511Y-105440460D01*
X94140460Y-105384511D01*
X94838152Y-104686819D01*
X94899475Y-104653334D01*
X94925833Y-104650500D01*
X97189560Y-104650500D01*
X97189562Y-104650500D01*
X97265989Y-104630021D01*
X97334511Y-104590460D01*
X97390460Y-104534511D01*
X98238152Y-103686819D01*
X98299475Y-103653334D01*
X98325833Y-103650500D01*
X98739560Y-103650500D01*
X98739562Y-103650500D01*
X98815989Y-103630021D01*
X98884511Y-103590460D01*
X98940460Y-103534511D01*
X98980021Y-103465989D01*
X99000500Y-103389562D01*
X99000500Y-100463738D01*
X99020185Y-100396699D01*
X99030787Y-100382535D01*
X99031124Y-100382144D01*
X99031128Y-100382143D01*
X99125377Y-100273373D01*
X99185165Y-100142457D01*
X99205647Y-100000000D01*
X99185165Y-99857543D01*
X99176321Y-99838177D01*
X99166378Y-99769019D01*
X99195404Y-99705463D01*
X99254182Y-99667690D01*
X99289116Y-99662667D01*
X100177393Y-99662667D01*
X100177395Y-99662667D01*
X100253822Y-99642188D01*
X100322344Y-99602627D01*
X100378293Y-99546678D01*
X101488151Y-98436818D01*
X101549474Y-98403334D01*
X101575832Y-98400500D01*
X101671962Y-98400500D01*
X101671962Y-98400499D01*
X101779121Y-98369035D01*
X101810050Y-98359954D01*
X101810050Y-98359953D01*
X101810053Y-98359953D01*
X101931128Y-98282143D01*
X102025377Y-98173373D01*
X102085165Y-98042457D01*
X102105647Y-97900000D01*
X102085165Y-97757543D01*
X102025377Y-97626627D01*
X101931128Y-97517857D01*
X101810053Y-97440047D01*
X101810051Y-97440046D01*
X101810049Y-97440045D01*
X101810050Y-97440045D01*
X101671963Y-97399500D01*
X101671961Y-97399500D01*
X101528039Y-97399500D01*
X101528036Y-97399500D01*
X101389949Y-97440045D01*
X101268873Y-97517856D01*
X101174623Y-97626626D01*
X101174622Y-97626628D01*
X101114834Y-97757543D01*
X101094353Y-97900000D01*
X101094353Y-97900001D01*
X101095661Y-97909103D01*
X101085713Y-97978261D01*
X101060603Y-98014424D01*
X100049681Y-99025348D01*
X99988358Y-99058833D01*
X99962000Y-99061667D01*
X99012666Y-99061667D01*
X98945627Y-99041982D01*
X98899872Y-98989178D01*
X98889928Y-98920020D01*
X98918953Y-98856464D01*
X98924985Y-98849986D01*
X100275471Y-97499500D01*
X101740460Y-96034511D01*
X101780022Y-95965988D01*
X101800500Y-95889562D01*
X101800500Y-95810438D01*
X101800500Y-90225000D01*
X102990000Y-90225000D01*
X102990000Y-91777844D01*
X102996401Y-91837372D01*
X102996403Y-91837379D01*
X103046645Y-91972086D01*
X103046649Y-91972093D01*
X103132809Y-92087187D01*
X103132812Y-92087190D01*
X103247906Y-92173350D01*
X103247913Y-92173354D01*
X103382620Y-92223596D01*
X103382627Y-92223598D01*
X103442155Y-92229999D01*
X103442172Y-92230000D01*
X104510000Y-92230000D01*
X104510000Y-90225000D01*
X105010000Y-90225000D01*
X105010000Y-92230000D01*
X106077828Y-92230000D01*
X106077844Y-92229999D01*
X106137372Y-92223598D01*
X106137379Y-92223596D01*
X106272086Y-92173354D01*
X106272093Y-92173350D01*
X106387187Y-92087190D01*
X106387190Y-92087187D01*
X106473350Y-91972093D01*
X106473354Y-91972086D01*
X106523596Y-91837379D01*
X106523598Y-91837372D01*
X106529999Y-91777844D01*
X106530000Y-91777827D01*
X106530000Y-90225000D01*
X105010000Y-90225000D01*
X104510000Y-90225000D01*
X102990000Y-90225000D01*
X101800500Y-90225000D01*
X101800500Y-89725000D01*
X102990000Y-89725000D01*
X104510000Y-89725000D01*
X104510000Y-87720000D01*
X105010000Y-87720000D01*
X105010000Y-89725000D01*
X106530000Y-89725000D01*
X106530000Y-88172172D01*
X106529999Y-88172155D01*
X106523598Y-88112627D01*
X106523596Y-88112620D01*
X106473354Y-87977913D01*
X106473350Y-87977906D01*
X106387190Y-87862812D01*
X106387187Y-87862809D01*
X106272093Y-87776649D01*
X106272086Y-87776645D01*
X106137379Y-87726403D01*
X106137372Y-87726401D01*
X106077844Y-87720000D01*
X105010000Y-87720000D01*
X104510000Y-87720000D01*
X103442155Y-87720000D01*
X103382627Y-87726401D01*
X103382620Y-87726403D01*
X103247913Y-87776645D01*
X103247906Y-87776649D01*
X103132812Y-87862809D01*
X103132809Y-87862812D01*
X103046649Y-87977906D01*
X103046645Y-87977913D01*
X102996403Y-88112620D01*
X102996401Y-88112627D01*
X102990000Y-88172155D01*
X102990000Y-89725000D01*
X101800500Y-89725000D01*
X101800500Y-88274500D01*
X101820185Y-88207461D01*
X101872989Y-88161706D01*
X101924500Y-88150500D01*
X101971962Y-88150500D01*
X101971962Y-88150499D01*
X102110053Y-88109953D01*
X102231128Y-88032143D01*
X102325377Y-87923373D01*
X102385165Y-87792457D01*
X102405647Y-87650000D01*
X102385165Y-87507543D01*
X102325377Y-87376627D01*
X102231128Y-87267857D01*
X102110053Y-87190047D01*
X102110051Y-87190046D01*
X102110049Y-87190045D01*
X102110050Y-87190045D01*
X101971963Y-87149500D01*
X101971961Y-87149500D01*
X101828039Y-87149500D01*
X101828036Y-87149500D01*
X101689949Y-87190045D01*
X101568873Y-87267856D01*
X101474623Y-87376626D01*
X101474622Y-87376628D01*
X101414834Y-87507543D01*
X101394353Y-87650000D01*
X101395661Y-87659101D01*
X101385714Y-87728259D01*
X101360605Y-87764421D01*
X101315490Y-87809538D01*
X101315489Y-87809540D01*
X101259538Y-87865491D01*
X101259535Y-87865495D01*
X101219982Y-87934004D01*
X101219979Y-87934009D01*
X101199500Y-88010439D01*
X101199500Y-88636760D01*
X101179815Y-88703799D01*
X101127011Y-88749554D01*
X101057853Y-88759498D01*
X100994969Y-88731051D01*
X100843366Y-88601570D01*
X100843362Y-88601568D01*
X100628631Y-88469980D01*
X100395956Y-88373603D01*
X100151064Y-88314811D01*
X100150000Y-88314726D01*
X100150000Y-89191759D01*
X100118767Y-89178822D01*
X99973869Y-89150000D01*
X99826131Y-89150000D01*
X99681233Y-89178822D01*
X99650000Y-89191759D01*
X99650000Y-88314726D01*
X99648935Y-88314811D01*
X99404043Y-88373603D01*
X99171368Y-88469980D01*
X98956637Y-88601568D01*
X98956632Y-88601571D01*
X98765130Y-88765130D01*
X98601571Y-88956632D01*
X98601568Y-88956637D01*
X98469980Y-89171368D01*
X98373603Y-89404043D01*
X98314811Y-89648932D01*
X98314728Y-89649999D01*
X98314729Y-89650000D01*
X99191759Y-89650000D01*
X99178822Y-89681233D01*
X99150000Y-89826131D01*
X99150000Y-89973869D01*
X99178822Y-90118767D01*
X99191759Y-90150000D01*
X98314728Y-90150000D01*
X98314811Y-90151067D01*
X98373603Y-90395956D01*
X98469980Y-90628631D01*
X98601568Y-90843362D01*
X98601571Y-90843367D01*
X98765130Y-91034869D01*
X98956632Y-91198428D01*
X98956637Y-91198431D01*
X99171368Y-91330019D01*
X99404043Y-91426396D01*
X99648932Y-91485188D01*
X99650000Y-91485271D01*
X99650000Y-90608240D01*
X99681233Y-90621178D01*
X99826131Y-90650000D01*
X99973869Y-90650000D01*
X100118767Y-90621178D01*
X100150000Y-90608240D01*
X100150000Y-91485271D01*
X100151067Y-91485188D01*
X100395956Y-91426396D01*
X100628631Y-91330019D01*
X100843362Y-91198431D01*
X100843367Y-91198428D01*
X100994968Y-91068949D01*
X101058730Y-91040378D01*
X101127815Y-91050815D01*
X101180291Y-91096946D01*
X101199500Y-91163239D01*
X101199500Y-95674167D01*
X101179815Y-95741206D01*
X101163181Y-95761848D01*
X98561848Y-98363181D01*
X98500525Y-98396666D01*
X98474167Y-98399500D01*
X98391436Y-98399500D01*
X98324397Y-98379816D01*
X98322885Y-98378844D01*
X98203646Y-98302214D01*
X98203644Y-98302213D01*
X98203642Y-98302212D01*
X98203643Y-98302212D01*
X98065556Y-98261667D01*
X98065554Y-98261667D01*
X97921632Y-98261667D01*
X97921629Y-98261667D01*
X97783542Y-98302212D01*
X97662466Y-98380023D01*
X97568216Y-98488793D01*
X97568215Y-98488795D01*
X97508427Y-98619710D01*
X97487946Y-98762167D01*
X97509690Y-98913402D01*
X97507872Y-98913663D01*
X97507871Y-98972605D01*
X97470095Y-99031382D01*
X97406538Y-99060405D01*
X97388895Y-99061667D01*
X97169774Y-99061667D01*
X97102735Y-99041982D01*
X97056980Y-98989178D01*
X97047036Y-98920020D01*
X97076061Y-98856464D01*
X97082093Y-98849986D01*
X97121786Y-98810292D01*
X97121789Y-98810289D01*
X97209394Y-98679179D01*
X97269737Y-98533497D01*
X97300500Y-98378842D01*
X97300500Y-98221158D01*
X97300500Y-98221155D01*
X97300499Y-98221153D01*
X97290995Y-98173373D01*
X97269737Y-98066503D01*
X97259777Y-98042457D01*
X97209397Y-97920827D01*
X97209390Y-97920814D01*
X97121789Y-97789711D01*
X97121786Y-97789707D01*
X97010292Y-97678213D01*
X97010288Y-97678210D01*
X96879185Y-97590609D01*
X96879172Y-97590602D01*
X96733501Y-97530264D01*
X96733489Y-97530261D01*
X96578845Y-97499500D01*
X96578842Y-97499500D01*
X96421158Y-97499500D01*
X96421155Y-97499500D01*
X96266510Y-97530261D01*
X96266498Y-97530264D01*
X96120827Y-97590602D01*
X96120814Y-97590609D01*
X95989711Y-97678210D01*
X95989707Y-97678213D01*
X95878213Y-97789707D01*
X95878210Y-97789711D01*
X95790609Y-97920814D01*
X95790602Y-97920827D01*
X95783114Y-97938907D01*
X95739273Y-97993311D01*
X95672979Y-98015376D01*
X95605280Y-97998097D01*
X95557669Y-97946960D01*
X95544553Y-97891455D01*
X95544553Y-97827644D01*
X95564238Y-97760605D01*
X95574840Y-97746441D01*
X95575177Y-97746050D01*
X95575181Y-97746049D01*
X95669430Y-97637279D01*
X95729218Y-97506363D01*
X95749700Y-97363906D01*
X95729218Y-97221449D01*
X95669430Y-97090533D01*
X95575181Y-96981763D01*
X95454106Y-96903953D01*
X95454104Y-96903952D01*
X95454102Y-96903951D01*
X95454103Y-96903951D01*
X95316016Y-96863406D01*
X95316014Y-96863406D01*
X95172092Y-96863406D01*
X95172089Y-96863406D01*
X95034002Y-96903951D01*
X94912926Y-96981762D01*
X94818676Y-97090532D01*
X94818675Y-97090534D01*
X94758887Y-97221449D01*
X94738406Y-97363906D01*
X94758887Y-97506362D01*
X94769803Y-97530264D01*
X94818676Y-97637279D01*
X94912925Y-97746049D01*
X94912928Y-97746050D01*
X94913266Y-97746441D01*
X94942291Y-97809997D01*
X94943553Y-97827644D01*
X94943553Y-98356407D01*
X94959099Y-98414423D01*
X94964032Y-98432834D01*
X94971388Y-98445574D01*
X94971389Y-98445578D01*
X95003588Y-98501349D01*
X95003592Y-98501354D01*
X95003593Y-98501356D01*
X96104864Y-99602627D01*
X96161242Y-99635177D01*
X96173383Y-99642187D01*
X96173387Y-99642189D01*
X96249813Y-99662667D01*
X98110884Y-99662667D01*
X98177923Y-99682352D01*
X98223678Y-99735156D01*
X98233622Y-99804314D01*
X98223679Y-99838177D01*
X98214834Y-99857543D01*
X98194353Y-100000000D01*
X98214834Y-100142456D01*
X98259592Y-100240460D01*
X98274623Y-100273373D01*
X98368872Y-100382143D01*
X98368875Y-100382144D01*
X98369213Y-100382535D01*
X98398238Y-100446091D01*
X98399500Y-100463738D01*
X98399500Y-102925500D01*
X98379815Y-102992539D01*
X98327011Y-103038294D01*
X98275500Y-103049500D01*
X98110438Y-103049500D01*
X98034010Y-103069978D01*
X97965489Y-103109540D01*
X97965486Y-103109542D01*
X97061848Y-104013181D01*
X97000525Y-104046666D01*
X96974167Y-104049500D01*
X94710438Y-104049500D01*
X94634010Y-104069978D01*
X94565489Y-104109540D01*
X94565486Y-104109542D01*
X93811848Y-104863181D01*
X93750525Y-104896666D01*
X93724167Y-104899500D01*
X93558501Y-104899500D01*
X93491462Y-104879815D01*
X93464788Y-104856703D01*
X93431128Y-104817857D01*
X93310053Y-104740047D01*
X93310051Y-104740046D01*
X93310049Y-104740045D01*
X93310050Y-104740045D01*
X93171963Y-104699500D01*
X93171961Y-104699500D01*
X93028039Y-104699500D01*
X93028036Y-104699500D01*
X92889949Y-104740045D01*
X92768873Y-104817856D01*
X92674623Y-104926626D01*
X92674622Y-104926628D01*
X92614834Y-105057543D01*
X92594353Y-105200000D01*
X91003604Y-105200000D01*
X90990481Y-105179115D01*
X90990476Y-105179109D01*
X90870890Y-105059523D01*
X90870884Y-105059518D01*
X90727697Y-104969547D01*
X90727694Y-104969545D01*
X90568056Y-104913685D01*
X90400003Y-104894751D01*
X90399997Y-104894751D01*
X90231943Y-104913685D01*
X90072305Y-104969545D01*
X90072302Y-104969547D01*
X89929115Y-105059518D01*
X89929109Y-105059523D01*
X89809523Y-105179109D01*
X89809518Y-105179115D01*
X89719547Y-105322302D01*
X89719545Y-105322305D01*
X89663685Y-105481943D01*
X89644751Y-105649997D01*
X89644751Y-105650002D01*
X88405249Y-105650002D01*
X88405249Y-105649997D01*
X88386314Y-105481943D01*
X88330454Y-105322305D01*
X88330452Y-105322302D01*
X88240481Y-105179115D01*
X88240476Y-105179109D01*
X88120890Y-105059523D01*
X88120884Y-105059518D01*
X87977697Y-104969547D01*
X87977694Y-104969545D01*
X87818056Y-104913685D01*
X87650003Y-104894751D01*
X87649997Y-104894751D01*
X87481943Y-104913685D01*
X87322305Y-104969545D01*
X87322302Y-104969547D01*
X87179115Y-105059518D01*
X87179109Y-105059523D01*
X87059523Y-105179109D01*
X87059518Y-105179115D01*
X86969547Y-105322302D01*
X86969545Y-105322305D01*
X86913685Y-105481943D01*
X86894751Y-105649997D01*
X86894751Y-105650002D01*
X83288663Y-105650002D01*
X83201294Y-105613563D01*
X83196026Y-105611221D01*
X82486203Y-105275630D01*
X82481049Y-105273045D01*
X82322111Y-105188649D01*
X81787586Y-104904816D01*
X81782576Y-104902004D01*
X81298725Y-104615484D01*
X81106990Y-104501945D01*
X81102099Y-104498893D01*
X80445845Y-104067866D01*
X80441101Y-104064590D01*
X79854419Y-103638949D01*
X79849465Y-103634850D01*
X79799202Y-103598688D01*
X79796490Y-103596680D01*
X79750834Y-103561908D01*
X79743779Y-103557869D01*
X79744142Y-103557234D01*
X79732287Y-103550661D01*
X79698213Y-103526193D01*
X79635523Y-103494460D01*
X79603844Y-103471508D01*
X76709171Y-100576835D01*
X76685856Y-100544434D01*
X76646711Y-100465830D01*
X76637878Y-100453337D01*
X76624354Y-100428689D01*
X76616318Y-100409040D01*
X76577344Y-100357774D01*
X76575628Y-100355462D01*
X76115248Y-99719778D01*
X76111981Y-99715038D01*
X76088885Y-99679815D01*
X75682430Y-99059933D01*
X75679393Y-99055058D01*
X75595797Y-98913663D01*
X75280704Y-98380714D01*
X75277895Y-98375700D01*
X74910931Y-97683572D01*
X74908362Y-97678442D01*
X74908253Y-97678211D01*
X74573908Y-96970008D01*
X74571585Y-96964773D01*
X74270382Y-96241602D01*
X74268311Y-96236288D01*
X74000979Y-95499867D01*
X73999156Y-95494458D01*
X73766302Y-94746457D01*
X73764721Y-94740928D01*
X73566838Y-93982939D01*
X73565517Y-93977347D01*
X73564334Y-93971769D01*
X73403033Y-93211011D01*
X73401970Y-93205354D01*
X73349826Y-92887303D01*
X73275228Y-92432303D01*
X73274430Y-92426613D01*
X73273682Y-92420194D01*
X73195509Y-91749752D01*
X73929500Y-91749752D01*
X73941131Y-91808229D01*
X73941132Y-91808230D01*
X73985447Y-91874552D01*
X74051769Y-91918867D01*
X74051770Y-91918868D01*
X74110247Y-91930499D01*
X74110250Y-91930500D01*
X74110252Y-91930500D01*
X76689750Y-91930500D01*
X76689751Y-91930499D01*
X76704568Y-91927552D01*
X76748229Y-91918868D01*
X76748229Y-91918867D01*
X76748231Y-91918867D01*
X76814552Y-91874552D01*
X76858867Y-91808231D01*
X76858867Y-91808229D01*
X76858868Y-91808229D01*
X76870499Y-91749752D01*
X76870500Y-91749750D01*
X76870500Y-90549500D01*
X76890185Y-90482461D01*
X76942989Y-90436706D01*
X76994500Y-90425500D01*
X78475500Y-90425500D01*
X78542539Y-90445185D01*
X78588294Y-90497989D01*
X78599500Y-90549500D01*
X78599500Y-90624167D01*
X78579815Y-90691206D01*
X78563181Y-90711848D01*
X76444681Y-92830347D01*
X76444675Y-92830355D01*
X76405122Y-92898864D01*
X76405119Y-92898869D01*
X76391466Y-92949822D01*
X76384640Y-92975298D01*
X76384640Y-98524702D01*
X76386995Y-98533489D01*
X76405119Y-98601130D01*
X76415434Y-98618996D01*
X76425750Y-98636863D01*
X76425751Y-98636864D01*
X76444679Y-98669650D01*
X79860604Y-102085575D01*
X79894089Y-102146898D01*
X79895661Y-102190902D01*
X79894353Y-102199999D01*
X79914834Y-102342456D01*
X79915219Y-102343298D01*
X79974623Y-102473373D01*
X80068872Y-102582143D01*
X80189947Y-102659953D01*
X80189950Y-102659954D01*
X80189949Y-102659954D01*
X80297107Y-102691417D01*
X80325280Y-102699690D01*
X80328036Y-102700499D01*
X80328038Y-102700500D01*
X80424167Y-102700500D01*
X80491206Y-102720185D01*
X80511848Y-102736819D01*
X80609540Y-102834511D01*
X80665489Y-102890460D01*
X80665491Y-102890461D01*
X80665495Y-102890464D01*
X80702224Y-102911669D01*
X80734011Y-102930021D01*
X80810438Y-102950500D01*
X87641499Y-102950500D01*
X87708538Y-102970185D01*
X87735211Y-102993296D01*
X87768872Y-103032143D01*
X87889947Y-103109953D01*
X87889950Y-103109954D01*
X87889949Y-103109954D01*
X88028036Y-103150499D01*
X88028038Y-103150500D01*
X88028039Y-103150500D01*
X88171962Y-103150500D01*
X88171962Y-103150499D01*
X88310053Y-103109953D01*
X88431128Y-103032143D01*
X88525377Y-102923373D01*
X88585165Y-102792457D01*
X88605647Y-102650000D01*
X88585165Y-102507543D01*
X88570764Y-102476011D01*
X88560821Y-102406853D01*
X88589846Y-102343298D01*
X88648624Y-102305523D01*
X88683559Y-102300500D01*
X89541499Y-102300500D01*
X89608538Y-102320185D01*
X89635211Y-102343296D01*
X89668872Y-102382143D01*
X89789947Y-102459953D01*
X89789950Y-102459954D01*
X89789949Y-102459954D01*
X89928036Y-102500499D01*
X89928038Y-102500500D01*
X89928039Y-102500500D01*
X90071962Y-102500500D01*
X90071962Y-102500499D01*
X90210053Y-102459953D01*
X90331128Y-102382143D01*
X90425377Y-102273373D01*
X90485165Y-102142457D01*
X90505647Y-102000000D01*
X90485165Y-101857543D01*
X90425377Y-101726627D01*
X90331128Y-101617857D01*
X90210053Y-101540047D01*
X90210051Y-101540046D01*
X90210049Y-101540045D01*
X90210050Y-101540045D01*
X90071963Y-101499500D01*
X90071961Y-101499500D01*
X89928039Y-101499500D01*
X89928036Y-101499500D01*
X89789949Y-101540045D01*
X89668873Y-101617856D01*
X89668872Y-101617856D01*
X89668872Y-101617857D01*
X89648651Y-101641194D01*
X89635212Y-101656703D01*
X89576433Y-101694477D01*
X89541499Y-101699500D01*
X84125834Y-101699500D01*
X84058795Y-101679815D01*
X84038153Y-101663181D01*
X83034512Y-100659540D01*
X83034504Y-100659534D01*
X83002710Y-100641178D01*
X83002706Y-100641177D01*
X82989894Y-100633780D01*
X82965990Y-100619978D01*
X82965991Y-100619978D01*
X82927775Y-100609738D01*
X82889562Y-100599499D01*
X82889560Y-100599499D01*
X79841518Y-100599499D01*
X79774479Y-100579814D01*
X79753837Y-100563180D01*
X79702838Y-100512181D01*
X79669353Y-100450858D01*
X79674337Y-100381166D01*
X79716209Y-100325233D01*
X79781673Y-100300816D01*
X79790519Y-100300500D01*
X87591499Y-100300500D01*
X87658538Y-100320185D01*
X87685211Y-100343296D01*
X87718872Y-100382143D01*
X87839947Y-100459953D01*
X87839950Y-100459954D01*
X87839949Y-100459954D01*
X87978036Y-100500499D01*
X87978038Y-100500500D01*
X87978039Y-100500500D01*
X88121962Y-100500500D01*
X88121962Y-100500499D01*
X88240038Y-100465830D01*
X88260050Y-100459954D01*
X88260050Y-100459953D01*
X88260053Y-100459953D01*
X88381128Y-100382143D01*
X88475377Y-100273373D01*
X88535165Y-100142457D01*
X88555647Y-100000000D01*
X88535165Y-99857543D01*
X88475377Y-99726627D01*
X88381128Y-99617857D01*
X88260053Y-99540047D01*
X88260051Y-99540046D01*
X88260049Y-99540045D01*
X88260050Y-99540045D01*
X88121963Y-99499500D01*
X88121961Y-99499500D01*
X87978039Y-99499500D01*
X87978036Y-99499500D01*
X87839949Y-99540045D01*
X87718873Y-99617856D01*
X87685212Y-99656703D01*
X87626433Y-99694477D01*
X87591499Y-99699500D01*
X79860759Y-99699500D01*
X79793720Y-99679815D01*
X79773078Y-99663181D01*
X78524320Y-98414423D01*
X78490835Y-98353100D01*
X78489264Y-98309093D01*
X78490572Y-98299999D01*
X78470090Y-98157542D01*
X78410302Y-98026626D01*
X78316053Y-97917856D01*
X78194978Y-97840046D01*
X78194976Y-97840045D01*
X78194974Y-97840044D01*
X78194975Y-97840044D01*
X78056888Y-97799499D01*
X78056886Y-97799499D01*
X77912964Y-97799499D01*
X77912961Y-97799499D01*
X77774874Y-97840044D01*
X77653798Y-97917855D01*
X77653797Y-97917855D01*
X77653797Y-97917856D01*
X77608152Y-97970534D01*
X77603353Y-97976072D01*
X77544575Y-98013846D01*
X77474705Y-98013846D01*
X77415927Y-97976072D01*
X77386902Y-97912516D01*
X77385640Y-97894869D01*
X77385640Y-96506379D01*
X77405325Y-96439340D01*
X77421959Y-96418698D01*
X79537819Y-94302838D01*
X79599142Y-94269353D01*
X79668834Y-94274337D01*
X79724767Y-94316209D01*
X79749184Y-94381673D01*
X79749500Y-94390519D01*
X79749500Y-94969752D01*
X79761131Y-95028229D01*
X79761132Y-95028230D01*
X79805447Y-95094552D01*
X79871769Y-95138867D01*
X79871770Y-95138868D01*
X79930247Y-95150499D01*
X79930250Y-95150500D01*
X79930252Y-95150500D01*
X80574167Y-95150500D01*
X80641206Y-95170185D01*
X80661848Y-95186819D01*
X80909540Y-95434511D01*
X80965489Y-95490460D01*
X80965491Y-95490461D01*
X80965495Y-95490464D01*
X80981822Y-95499890D01*
X81034011Y-95530021D01*
X81110438Y-95550500D01*
X81110440Y-95550500D01*
X84689560Y-95550500D01*
X84689562Y-95550500D01*
X84765989Y-95530021D01*
X84834511Y-95490460D01*
X84890460Y-95434511D01*
X85138152Y-95186819D01*
X85199475Y-95153334D01*
X85225833Y-95150500D01*
X85574167Y-95150500D01*
X85641206Y-95170185D01*
X85661848Y-95186819D01*
X85909540Y-95434511D01*
X85965489Y-95490460D01*
X85965491Y-95490461D01*
X85965495Y-95490464D01*
X85981822Y-95499890D01*
X86034011Y-95530021D01*
X86110438Y-95550500D01*
X86110440Y-95550500D01*
X90489560Y-95550500D01*
X90489562Y-95550500D01*
X90565989Y-95530021D01*
X90634511Y-95490460D01*
X90690460Y-95434511D01*
X90938152Y-95186819D01*
X90999475Y-95153334D01*
X91025833Y-95150500D01*
X91374167Y-95150500D01*
X91441206Y-95170185D01*
X91461848Y-95186819D01*
X91709540Y-95434511D01*
X91765489Y-95490460D01*
X91765491Y-95490461D01*
X91765495Y-95490464D01*
X91781822Y-95499890D01*
X91834011Y-95530021D01*
X91910438Y-95550500D01*
X91910440Y-95550500D01*
X95489560Y-95550500D01*
X95489562Y-95550500D01*
X95565989Y-95530021D01*
X95634511Y-95490460D01*
X95690460Y-95434511D01*
X95938152Y-95186819D01*
X95999475Y-95153334D01*
X96025833Y-95150500D01*
X96669750Y-95150500D01*
X96669751Y-95150499D01*
X96684568Y-95147552D01*
X96728229Y-95138868D01*
X96728229Y-95138867D01*
X96728231Y-95138867D01*
X96794552Y-95094552D01*
X96838867Y-95028231D01*
X96838867Y-95028229D01*
X96838868Y-95028229D01*
X96850499Y-94969752D01*
X96850500Y-94969750D01*
X96850500Y-94274500D01*
X96870185Y-94207461D01*
X96922989Y-94161706D01*
X96974500Y-94150500D01*
X97128986Y-94150500D01*
X97136432Y-94149596D01*
X97136586Y-94150868D01*
X97198667Y-94153594D01*
X97255732Y-94193909D01*
X97281942Y-94258677D01*
X97274491Y-94314894D01*
X97263762Y-94343183D01*
X97244722Y-94499999D01*
X97244722Y-94500000D01*
X97263762Y-94656818D01*
X97303596Y-94761849D01*
X97319780Y-94804523D01*
X97409517Y-94934530D01*
X97527760Y-95039283D01*
X97527762Y-95039284D01*
X97667634Y-95112696D01*
X97821014Y-95150500D01*
X97821015Y-95150500D01*
X97978985Y-95150500D01*
X98132365Y-95112696D01*
X98166935Y-95094552D01*
X98272240Y-95039283D01*
X98390483Y-94934530D01*
X98480220Y-94804523D01*
X98536237Y-94656818D01*
X98555278Y-94500000D01*
X98536237Y-94343182D01*
X98536236Y-94343179D01*
X98536236Y-94343177D01*
X98525510Y-94314896D01*
X98520142Y-94245233D01*
X98553288Y-94183727D01*
X98614426Y-94149905D01*
X98663465Y-94150443D01*
X98663568Y-94149596D01*
X98671014Y-94150500D01*
X98671015Y-94150500D01*
X98828986Y-94150500D01*
X98836432Y-94149596D01*
X98836586Y-94150868D01*
X98898667Y-94153594D01*
X98955732Y-94193909D01*
X98981942Y-94258677D01*
X98974491Y-94314894D01*
X98963762Y-94343183D01*
X98944722Y-94499999D01*
X98944722Y-94500000D01*
X98963762Y-94656818D01*
X99003596Y-94761849D01*
X99019780Y-94804523D01*
X99109517Y-94934530D01*
X99227760Y-95039283D01*
X99227762Y-95039284D01*
X99367634Y-95112696D01*
X99521014Y-95150500D01*
X99521015Y-95150500D01*
X99678985Y-95150500D01*
X99832365Y-95112696D01*
X99866935Y-95094552D01*
X99972240Y-95039283D01*
X100090483Y-94934530D01*
X100180220Y-94804523D01*
X100236237Y-94656818D01*
X100255278Y-94500000D01*
X100236237Y-94343182D01*
X100236236Y-94343180D01*
X100208237Y-94269353D01*
X100180220Y-94195477D01*
X100090483Y-94065470D01*
X99972240Y-93960717D01*
X99972238Y-93960716D01*
X99972237Y-93960715D01*
X99832365Y-93887303D01*
X99678986Y-93849500D01*
X99678985Y-93849500D01*
X99521015Y-93849500D01*
X99521014Y-93849500D01*
X99513568Y-93850404D01*
X99513414Y-93849135D01*
X99451313Y-93846399D01*
X99394254Y-93806074D01*
X99368055Y-93741302D01*
X99375510Y-93685102D01*
X99376865Y-93681530D01*
X99386237Y-93656818D01*
X99405278Y-93500000D01*
X99386237Y-93343182D01*
X99330220Y-93195477D01*
X99240483Y-93065470D01*
X99122240Y-92960717D01*
X99122238Y-92960716D01*
X99122237Y-92960715D01*
X98982365Y-92887303D01*
X98828986Y-92849500D01*
X98828985Y-92849500D01*
X98671015Y-92849500D01*
X98671014Y-92849500D01*
X98517634Y-92887303D01*
X98377762Y-92960715D01*
X98259516Y-93065471D01*
X98169781Y-93195475D01*
X98169780Y-93195476D01*
X98113762Y-93343181D01*
X98094722Y-93499999D01*
X98094722Y-93500000D01*
X98113763Y-93656818D01*
X98124490Y-93685104D01*
X98129857Y-93754768D01*
X98096709Y-93816274D01*
X98035571Y-93850095D01*
X97986534Y-93849557D01*
X97986432Y-93850404D01*
X97978986Y-93849500D01*
X97978985Y-93849500D01*
X97821015Y-93849500D01*
X97821014Y-93849500D01*
X97813568Y-93850404D01*
X97813414Y-93849135D01*
X97751313Y-93846399D01*
X97694254Y-93806074D01*
X97668055Y-93741302D01*
X97675510Y-93685102D01*
X97676865Y-93681530D01*
X97686237Y-93656818D01*
X97705278Y-93500000D01*
X97686237Y-93343182D01*
X97630220Y-93195477D01*
X97540483Y-93065470D01*
X97422240Y-92960717D01*
X97422238Y-92960716D01*
X97422237Y-92960715D01*
X97282365Y-92887303D01*
X97128986Y-92849500D01*
X97128985Y-92849500D01*
X96971015Y-92849500D01*
X96971011Y-92849500D01*
X96921349Y-92861740D01*
X96851547Y-92858670D01*
X96803995Y-92829024D01*
X96484512Y-92509541D01*
X96484504Y-92509535D01*
X96439238Y-92483401D01*
X96439236Y-92483401D01*
X96415989Y-92469979D01*
X96339562Y-92449500D01*
X92760438Y-92449500D01*
X92709486Y-92463152D01*
X92684010Y-92469979D01*
X92660764Y-92483401D01*
X92660762Y-92483401D01*
X92615495Y-92509535D01*
X92615491Y-92509538D01*
X92296003Y-92829025D01*
X92234680Y-92862509D01*
X92178648Y-92861740D01*
X92128986Y-92849500D01*
X92128985Y-92849500D01*
X91971015Y-92849500D01*
X91971011Y-92849500D01*
X91921349Y-92861740D01*
X91851547Y-92858670D01*
X91803995Y-92829024D01*
X91484512Y-92509541D01*
X91484504Y-92509535D01*
X91439238Y-92483401D01*
X91439236Y-92483401D01*
X91415989Y-92469979D01*
X91339562Y-92449500D01*
X86960438Y-92449500D01*
X86909486Y-92463152D01*
X86884010Y-92469979D01*
X86860764Y-92483401D01*
X86860762Y-92483401D01*
X86815495Y-92509535D01*
X86815491Y-92509538D01*
X86496003Y-92829025D01*
X86434680Y-92862509D01*
X86378648Y-92861740D01*
X86328986Y-92849500D01*
X86328985Y-92849500D01*
X86171015Y-92849500D01*
X86171011Y-92849500D01*
X86121349Y-92861740D01*
X86051547Y-92858670D01*
X86003995Y-92829024D01*
X85684512Y-92509541D01*
X85684504Y-92509535D01*
X85639238Y-92483401D01*
X85639236Y-92483401D01*
X85615989Y-92469979D01*
X85539562Y-92449500D01*
X82010438Y-92449500D01*
X81959486Y-92463152D01*
X81934010Y-92469979D01*
X81910764Y-92483401D01*
X81910762Y-92483401D01*
X81865495Y-92509535D01*
X81865491Y-92509538D01*
X81536116Y-92838912D01*
X81474793Y-92872396D01*
X81418761Y-92871627D01*
X81328986Y-92849500D01*
X81328985Y-92849500D01*
X81290519Y-92849500D01*
X81223480Y-92829815D01*
X81177725Y-92777011D01*
X81167781Y-92707853D01*
X81196806Y-92644297D01*
X81202838Y-92637819D01*
X81234629Y-92606026D01*
X81340460Y-92500197D01*
X81350156Y-92483403D01*
X81380021Y-92431675D01*
X81400500Y-92355248D01*
X81400500Y-89978846D01*
X82899500Y-89978846D01*
X82930261Y-90133489D01*
X82930264Y-90133501D01*
X82990602Y-90279172D01*
X82990609Y-90279185D01*
X83078210Y-90410288D01*
X83078213Y-90410292D01*
X83189707Y-90521786D01*
X83189711Y-90521789D01*
X83320814Y-90609390D01*
X83320827Y-90609397D01*
X83418853Y-90650000D01*
X83466503Y-90669737D01*
X83621153Y-90700499D01*
X83621156Y-90700500D01*
X83621158Y-90700500D01*
X83778844Y-90700500D01*
X83778845Y-90700499D01*
X83933497Y-90669737D01*
X84079179Y-90609394D01*
X84210289Y-90521789D01*
X84321789Y-90410289D01*
X84409394Y-90279179D01*
X84469737Y-90133497D01*
X84500500Y-89978842D01*
X84500500Y-89821158D01*
X84500500Y-89821155D01*
X84500499Y-89821153D01*
X84469738Y-89666510D01*
X84469737Y-89666503D01*
X84460204Y-89643487D01*
X84409397Y-89520827D01*
X84409390Y-89520814D01*
X84321789Y-89389711D01*
X84321786Y-89389707D01*
X84210292Y-89278213D01*
X84210288Y-89278210D01*
X84079185Y-89190609D01*
X84079172Y-89190602D01*
X83933501Y-89130264D01*
X83933489Y-89130261D01*
X83778845Y-89099500D01*
X83778842Y-89099500D01*
X83621158Y-89099500D01*
X83621155Y-89099500D01*
X83466510Y-89130261D01*
X83466498Y-89130264D01*
X83320827Y-89190602D01*
X83320814Y-89190609D01*
X83189711Y-89278210D01*
X83189707Y-89278213D01*
X83078213Y-89389707D01*
X83078210Y-89389711D01*
X82990609Y-89520814D01*
X82990602Y-89520827D01*
X82930264Y-89666498D01*
X82930261Y-89666510D01*
X82899500Y-89821153D01*
X82899500Y-89978846D01*
X81400500Y-89978846D01*
X81400500Y-85371099D01*
X81399131Y-85365989D01*
X81380022Y-85294673D01*
X81380019Y-85294668D01*
X81376910Y-85287159D01*
X81379811Y-85285957D01*
X81366830Y-85232463D01*
X81389678Y-85166434D01*
X81444597Y-85123240D01*
X81461016Y-85117958D01*
X81482365Y-85112696D01*
X81622240Y-85039283D01*
X81740483Y-84934530D01*
X81830220Y-84804523D01*
X81886237Y-84656818D01*
X81905278Y-84500000D01*
X81886237Y-84343182D01*
X81886236Y-84343179D01*
X81886236Y-84343177D01*
X81875510Y-84314896D01*
X81870142Y-84245233D01*
X81903288Y-84183727D01*
X81964426Y-84149905D01*
X82013465Y-84150443D01*
X82013568Y-84149596D01*
X82021014Y-84150500D01*
X82021015Y-84150500D01*
X82178986Y-84150500D01*
X82186432Y-84149596D01*
X82186586Y-84150868D01*
X82248667Y-84153594D01*
X82305732Y-84193909D01*
X82331942Y-84258677D01*
X82324491Y-84314894D01*
X82313762Y-84343183D01*
X82294722Y-84499999D01*
X82294722Y-84500000D01*
X82313762Y-84656818D01*
X82361059Y-84781528D01*
X82369780Y-84804523D01*
X82459517Y-84934530D01*
X82577760Y-85039283D01*
X82577762Y-85039284D01*
X82717634Y-85112696D01*
X82871014Y-85150500D01*
X82871015Y-85150500D01*
X83028984Y-85150500D01*
X83028985Y-85150500D01*
X83078647Y-85138259D01*
X83148449Y-85141328D01*
X83196004Y-85170975D01*
X83459540Y-85434511D01*
X83515489Y-85490460D01*
X83515491Y-85490461D01*
X83515495Y-85490464D01*
X83584004Y-85530017D01*
X83584011Y-85530021D01*
X83660438Y-85550500D01*
X83660440Y-85550500D01*
X87239560Y-85550500D01*
X87239562Y-85550500D01*
X87315989Y-85530021D01*
X87384511Y-85490460D01*
X87440460Y-85434511D01*
X87703998Y-85170971D01*
X87765317Y-85137489D01*
X87821351Y-85138258D01*
X87871012Y-85150499D01*
X87871013Y-85150500D01*
X87871015Y-85150500D01*
X88028984Y-85150500D01*
X88028985Y-85150500D01*
X88078647Y-85138259D01*
X88148449Y-85141328D01*
X88196004Y-85170975D01*
X88459540Y-85434511D01*
X88515489Y-85490460D01*
X88515491Y-85490461D01*
X88515495Y-85490464D01*
X88584004Y-85530017D01*
X88584011Y-85530021D01*
X88660438Y-85550500D01*
X88660440Y-85550500D01*
X93039560Y-85550500D01*
X93039562Y-85550500D01*
X93115989Y-85530021D01*
X93184511Y-85490460D01*
X93240460Y-85434511D01*
X93503998Y-85170971D01*
X93565317Y-85137489D01*
X93621351Y-85138258D01*
X93671012Y-85150499D01*
X93671013Y-85150500D01*
X93671015Y-85150500D01*
X93828984Y-85150500D01*
X93828985Y-85150500D01*
X93878647Y-85138259D01*
X93948449Y-85141328D01*
X93996004Y-85170975D01*
X94259540Y-85434511D01*
X94315489Y-85490460D01*
X94315491Y-85490461D01*
X94315495Y-85490464D01*
X94384004Y-85530017D01*
X94384011Y-85530021D01*
X94460438Y-85550500D01*
X94460440Y-85550500D01*
X98035828Y-85550500D01*
X98102867Y-85570185D01*
X98148622Y-85622989D01*
X98158566Y-85692147D01*
X98129541Y-85755703D01*
X98123509Y-85762181D01*
X97922509Y-85963181D01*
X97861186Y-85996666D01*
X97834828Y-85999500D01*
X83608501Y-85999500D01*
X83541462Y-85979815D01*
X83514788Y-85956703D01*
X83481128Y-85917857D01*
X83360053Y-85840047D01*
X83360051Y-85840046D01*
X83360049Y-85840045D01*
X83360050Y-85840045D01*
X83221963Y-85799500D01*
X83221961Y-85799500D01*
X83078039Y-85799500D01*
X83078036Y-85799500D01*
X82939949Y-85840045D01*
X82818873Y-85917856D01*
X82724623Y-86026626D01*
X82724622Y-86026628D01*
X82664834Y-86157543D01*
X82644353Y-86300000D01*
X82664834Y-86442456D01*
X82709591Y-86540458D01*
X82724623Y-86573373D01*
X82818872Y-86682143D01*
X82939947Y-86759953D01*
X82939950Y-86759954D01*
X82939949Y-86759954D01*
X83078036Y-86800499D01*
X83078038Y-86800500D01*
X83078039Y-86800500D01*
X83221962Y-86800500D01*
X83221962Y-86800499D01*
X83360053Y-86759953D01*
X83481128Y-86682143D01*
X83514788Y-86643296D01*
X83573567Y-86605523D01*
X83608501Y-86600500D01*
X98050221Y-86600500D01*
X98050223Y-86600500D01*
X98126650Y-86580021D01*
X98195172Y-86540460D01*
X98251121Y-86484511D01*
X101540460Y-83195172D01*
X101543699Y-83189562D01*
X101580021Y-83126650D01*
X101600500Y-83050223D01*
X101600500Y-82825833D01*
X101620185Y-82758794D01*
X101636819Y-82738152D01*
X101788152Y-82586819D01*
X101849475Y-82553334D01*
X101875833Y-82550500D01*
X103341499Y-82550500D01*
X103408538Y-82570185D01*
X103435211Y-82593296D01*
X103468872Y-82632143D01*
X103589947Y-82709953D01*
X103589950Y-82709954D01*
X103589949Y-82709954D01*
X103728036Y-82750499D01*
X103728038Y-82750500D01*
X103728039Y-82750500D01*
X103871962Y-82750500D01*
X103871962Y-82750499D01*
X104010053Y-82709953D01*
X104131128Y-82632143D01*
X104225377Y-82523373D01*
X104285165Y-82392457D01*
X104305647Y-82250000D01*
X104285165Y-82107543D01*
X104225377Y-81976627D01*
X104131128Y-81867857D01*
X104010053Y-81790047D01*
X104010051Y-81790046D01*
X104010049Y-81790045D01*
X104010050Y-81790045D01*
X103871963Y-81749500D01*
X103871961Y-81749500D01*
X103728039Y-81749500D01*
X103728036Y-81749500D01*
X103589949Y-81790045D01*
X103468873Y-81867856D01*
X103468872Y-81867856D01*
X103468872Y-81867857D01*
X103457453Y-81881036D01*
X103435212Y-81906703D01*
X103376433Y-81944477D01*
X103341499Y-81949500D01*
X101660438Y-81949500D01*
X101629867Y-81957691D01*
X101584008Y-81969979D01*
X101584005Y-81969981D01*
X101556876Y-81985645D01*
X101556875Y-81985646D01*
X101544578Y-81992745D01*
X101515489Y-82009539D01*
X101059541Y-82465487D01*
X101059535Y-82465495D01*
X101019982Y-82534004D01*
X101019979Y-82534009D01*
X100999500Y-82610439D01*
X100999500Y-82834827D01*
X100979815Y-82901866D01*
X100963181Y-82922508D01*
X100449478Y-83436211D01*
X100388155Y-83469696D01*
X100318463Y-83464712D01*
X100262530Y-83422840D01*
X100238701Y-83363475D01*
X100236237Y-83343181D01*
X100201632Y-83251936D01*
X100180220Y-83195477D01*
X100090483Y-83065470D01*
X99972240Y-82960717D01*
X99972238Y-82960716D01*
X99972237Y-82960715D01*
X99832365Y-82887303D01*
X99678986Y-82849500D01*
X99678985Y-82849500D01*
X99521015Y-82849500D01*
X99521014Y-82849500D01*
X99367634Y-82887303D01*
X99232126Y-82958425D01*
X99163618Y-82972151D01*
X99098565Y-82946659D01*
X99057620Y-82890043D01*
X99050500Y-82848629D01*
X99050500Y-81391200D01*
X99042017Y-81359541D01*
X99030021Y-81314772D01*
X99018304Y-81294477D01*
X98990464Y-81246256D01*
X98990458Y-81246248D01*
X98934511Y-81190301D01*
X96103322Y-78359111D01*
X96103319Y-78359109D01*
X96101947Y-78358317D01*
X96067205Y-78338258D01*
X96034798Y-78319548D01*
X96009321Y-78312721D01*
X95958370Y-78299069D01*
X95958368Y-78299069D01*
X94670453Y-78299069D01*
X94603414Y-78279384D01*
X94576740Y-78256272D01*
X94543080Y-78217426D01*
X94422005Y-78139616D01*
X94422003Y-78139615D01*
X94422001Y-78139614D01*
X94422002Y-78139614D01*
X94283915Y-78099069D01*
X94283913Y-78099069D01*
X94139991Y-78099069D01*
X94139988Y-78099069D01*
X94001901Y-78139614D01*
X93880825Y-78217425D01*
X93786575Y-78326195D01*
X93786574Y-78326197D01*
X93726786Y-78457112D01*
X93706305Y-78599569D01*
X93726786Y-78742025D01*
X93786574Y-78872940D01*
X93786575Y-78872942D01*
X93880824Y-78981712D01*
X94001899Y-79059522D01*
X94001902Y-79059523D01*
X94001901Y-79059523D01*
X94139988Y-79100068D01*
X94139990Y-79100069D01*
X94139991Y-79100069D01*
X94283914Y-79100069D01*
X94283914Y-79100068D01*
X94422005Y-79059522D01*
X94543080Y-78981712D01*
X94576740Y-78942865D01*
X94635519Y-78905092D01*
X94670453Y-78900069D01*
X94762307Y-78900069D01*
X94829346Y-78919754D01*
X94875101Y-78972558D01*
X94885045Y-79041716D01*
X94875101Y-79075581D01*
X94874623Y-79076626D01*
X94874623Y-79076627D01*
X94870756Y-79085095D01*
X94814834Y-79207543D01*
X94794353Y-79350000D01*
X94814834Y-79492456D01*
X94817274Y-79497798D01*
X94874623Y-79623373D01*
X94968872Y-79732143D01*
X94968875Y-79732144D01*
X94969213Y-79732535D01*
X94998238Y-79796091D01*
X94999500Y-79813738D01*
X94999500Y-82325500D01*
X94979815Y-82392539D01*
X94927011Y-82438294D01*
X94875500Y-82449500D01*
X91910438Y-82449500D01*
X91888468Y-82455387D01*
X91834008Y-82469979D01*
X91834007Y-82469980D01*
X91798538Y-82490459D01*
X91765492Y-82509537D01*
X91765491Y-82509538D01*
X91446003Y-82829025D01*
X91384680Y-82862509D01*
X91328648Y-82861740D01*
X91278986Y-82849500D01*
X91278985Y-82849500D01*
X91121015Y-82849500D01*
X91121011Y-82849500D01*
X91071349Y-82861740D01*
X91001547Y-82858670D01*
X90953995Y-82829024D01*
X90634512Y-82509541D01*
X90634507Y-82509537D01*
X90601462Y-82490459D01*
X90601462Y-82490458D01*
X90601460Y-82490458D01*
X90575602Y-82475529D01*
X90565990Y-82469979D01*
X90565991Y-82469979D01*
X90527775Y-82459739D01*
X90489562Y-82449500D01*
X86110438Y-82449500D01*
X86088468Y-82455387D01*
X86034008Y-82469979D01*
X86034007Y-82469980D01*
X85998538Y-82490459D01*
X85965492Y-82509537D01*
X85965491Y-82509538D01*
X85646003Y-82829025D01*
X85584680Y-82862509D01*
X85528648Y-82861740D01*
X85478986Y-82849500D01*
X85478985Y-82849500D01*
X85321015Y-82849500D01*
X85321011Y-82849500D01*
X85271349Y-82861740D01*
X85201547Y-82858670D01*
X85153995Y-82829024D01*
X84834512Y-82509541D01*
X84834507Y-82509537D01*
X84801462Y-82490459D01*
X84801462Y-82490458D01*
X84801460Y-82490458D01*
X84775602Y-82475529D01*
X84765990Y-82469979D01*
X84765991Y-82469979D01*
X84727775Y-82459739D01*
X84689562Y-82449500D01*
X81110438Y-82449500D01*
X81110432Y-82449500D01*
X81099866Y-82452332D01*
X81030017Y-82450668D01*
X80972155Y-82411505D01*
X80944652Y-82347276D01*
X80956239Y-82278374D01*
X80980091Y-82244879D01*
X81288152Y-81936819D01*
X81349475Y-81903334D01*
X81375833Y-81900500D01*
X84591499Y-81900500D01*
X84658538Y-81920185D01*
X84685211Y-81943296D01*
X84718872Y-81982143D01*
X84839947Y-82059953D01*
X84839950Y-82059954D01*
X84839949Y-82059954D01*
X84978036Y-82100499D01*
X84978038Y-82100500D01*
X84978039Y-82100500D01*
X85121962Y-82100500D01*
X85121962Y-82100499D01*
X85229121Y-82069035D01*
X85260050Y-82059954D01*
X85260050Y-82059953D01*
X85260053Y-82059953D01*
X85381128Y-81982143D01*
X85475377Y-81873373D01*
X85535165Y-81742457D01*
X85555647Y-81600000D01*
X85535165Y-81457543D01*
X85475377Y-81326627D01*
X85381128Y-81217857D01*
X85260053Y-81140047D01*
X85260051Y-81140046D01*
X85260049Y-81140045D01*
X85260050Y-81140045D01*
X85121963Y-81099500D01*
X85121961Y-81099500D01*
X84978039Y-81099500D01*
X84978036Y-81099500D01*
X84839949Y-81140045D01*
X84718873Y-81217856D01*
X84718872Y-81217856D01*
X84718872Y-81217857D01*
X84694270Y-81246250D01*
X84685212Y-81256703D01*
X84626433Y-81294477D01*
X84591499Y-81299500D01*
X81160438Y-81299500D01*
X81122224Y-81309739D01*
X81084009Y-81319979D01*
X81084004Y-81319982D01*
X81015495Y-81359535D01*
X81015487Y-81359541D01*
X79409541Y-82965487D01*
X79409535Y-82965495D01*
X79369982Y-83034004D01*
X79369979Y-83034009D01*
X79364801Y-83053334D01*
X79349500Y-83110438D01*
X79349500Y-84000223D01*
X79359966Y-84039283D01*
X79369979Y-84076651D01*
X79369980Y-84076652D01*
X79390789Y-84112695D01*
X79409540Y-84145172D01*
X80763181Y-85498813D01*
X80796666Y-85560136D01*
X80799500Y-85586494D01*
X80799500Y-88575500D01*
X80779815Y-88642539D01*
X80727011Y-88688294D01*
X80675500Y-88699500D01*
X80374500Y-88699500D01*
X80307461Y-88679815D01*
X80261706Y-88627011D01*
X80250500Y-88575500D01*
X80250500Y-87190693D01*
X80250500Y-87190691D01*
X80219799Y-87076114D01*
X80219799Y-87076113D01*
X80160489Y-86973386D01*
X78136819Y-84949716D01*
X78103334Y-84888393D01*
X78100500Y-84862035D01*
X78100500Y-82212229D01*
X78120185Y-82145190D01*
X78136819Y-82124548D01*
X78160868Y-82100499D01*
X78240477Y-82020890D01*
X78247609Y-82009540D01*
X78330452Y-81877697D01*
X78330454Y-81877694D01*
X78330454Y-81877692D01*
X78330456Y-81877690D01*
X78386313Y-81718059D01*
X78386313Y-81718058D01*
X78386314Y-81718056D01*
X78405249Y-81550002D01*
X78405249Y-81549997D01*
X78386314Y-81381943D01*
X78348649Y-81274304D01*
X78330456Y-81222310D01*
X78330455Y-81222309D01*
X78330454Y-81222305D01*
X78330452Y-81222302D01*
X78240481Y-81079115D01*
X78240476Y-81079109D01*
X78120890Y-80959523D01*
X78120884Y-80959518D01*
X77977697Y-80869547D01*
X77977694Y-80869545D01*
X77818056Y-80813685D01*
X77650003Y-80794751D01*
X77649997Y-80794751D01*
X77481943Y-80813685D01*
X77322305Y-80869545D01*
X77322302Y-80869547D01*
X77179115Y-80959518D01*
X77179109Y-80959523D01*
X77059523Y-81079109D01*
X77059518Y-81079115D01*
X76969547Y-81222302D01*
X76969545Y-81222305D01*
X76913685Y-81381943D01*
X76894751Y-81549997D01*
X76894751Y-81550002D01*
X76913685Y-81718056D01*
X76969545Y-81877694D01*
X76969547Y-81877697D01*
X77059518Y-82020884D01*
X77059523Y-82020890D01*
X77163181Y-82124548D01*
X77196666Y-82185871D01*
X77199500Y-82212229D01*
X77199500Y-85159309D01*
X77202417Y-85170195D01*
X77202418Y-85170201D01*
X77202419Y-85170201D01*
X77230201Y-85273887D01*
X77289511Y-85376614D01*
X77289513Y-85376616D01*
X79313181Y-87400284D01*
X79346666Y-87461607D01*
X79349500Y-87487965D01*
X79349500Y-88575500D01*
X79329815Y-88642539D01*
X79277011Y-88688294D01*
X79225500Y-88699500D01*
X78780247Y-88699500D01*
X78721770Y-88711131D01*
X78721769Y-88711132D01*
X78655447Y-88755447D01*
X78611132Y-88821769D01*
X78611131Y-88821770D01*
X78599500Y-88880247D01*
X78599500Y-89400500D01*
X78579815Y-89467539D01*
X78527011Y-89513294D01*
X78475500Y-89524500D01*
X76994500Y-89524500D01*
X76927461Y-89504815D01*
X76881706Y-89452011D01*
X76870500Y-89400500D01*
X76870500Y-88200249D01*
X76870499Y-88200247D01*
X76858868Y-88141770D01*
X76858867Y-88141769D01*
X76814552Y-88075447D01*
X76748230Y-88031132D01*
X76748229Y-88031131D01*
X76689752Y-88019500D01*
X76689748Y-88019500D01*
X74110252Y-88019500D01*
X74110247Y-88019500D01*
X74051770Y-88031131D01*
X74051769Y-88031132D01*
X73985447Y-88075447D01*
X73941132Y-88141769D01*
X73941131Y-88141770D01*
X73929500Y-88200247D01*
X73929500Y-91749752D01*
X73195509Y-91749752D01*
X73183698Y-91648459D01*
X73183167Y-91642743D01*
X73183167Y-91642742D01*
X73128654Y-90861277D01*
X73128389Y-90855572D01*
X73112031Y-90151067D01*
X73110204Y-90072365D01*
X73110204Y-90066609D01*
X73114038Y-89901448D01*
X73128389Y-89283402D01*
X73128654Y-89277701D01*
X73183169Y-88496211D01*
X73183701Y-88490500D01*
X73183702Y-88490499D01*
X73274433Y-87712345D01*
X73275231Y-87706661D01*
X73401978Y-86933577D01*
X73403024Y-86928008D01*
X73565522Y-86161610D01*
X73566842Y-86156027D01*
X73566843Y-86156026D01*
X73764726Y-85398031D01*
X73766305Y-85392513D01*
X73771254Y-85376616D01*
X73999162Y-84644505D01*
X74000975Y-84639122D01*
X74268318Y-83902674D01*
X74270377Y-83897388D01*
X74571599Y-83174171D01*
X74573902Y-83168984D01*
X74908380Y-82460501D01*
X74910924Y-82455421D01*
X75277911Y-81763250D01*
X75280695Y-81758280D01*
X75679401Y-81083908D01*
X75682420Y-81079061D01*
X76111998Y-80423916D01*
X76115257Y-80419190D01*
X76528186Y-79849023D01*
X79204528Y-79849023D01*
X79346233Y-79924766D01*
X79544165Y-79984808D01*
X79750000Y-80005080D01*
X79955834Y-79984808D01*
X80153764Y-79924766D01*
X80295470Y-79849022D01*
X79750001Y-79303553D01*
X79750000Y-79303553D01*
X79204528Y-79849023D01*
X76528186Y-79849023D01*
X76533418Y-79841799D01*
X76546601Y-79827711D01*
X76546303Y-79827436D01*
X76551818Y-79821474D01*
X76551823Y-79821470D01*
X76560259Y-79809542D01*
X76560632Y-79809247D01*
X76589974Y-79767746D01*
X76589975Y-79767747D01*
X76656821Y-79673205D01*
X76677591Y-79631495D01*
X76700906Y-79599092D01*
X77349998Y-78950000D01*
X78694919Y-78950000D01*
X78715191Y-79155834D01*
X78775233Y-79353766D01*
X78850975Y-79495469D01*
X78850976Y-79495469D01*
X79350369Y-78996078D01*
X79400000Y-78996078D01*
X79423852Y-79085095D01*
X79469930Y-79164905D01*
X79535095Y-79230070D01*
X79614905Y-79276148D01*
X79703922Y-79300000D01*
X79796078Y-79300000D01*
X79885095Y-79276148D01*
X79964905Y-79230070D01*
X80030070Y-79164905D01*
X80076148Y-79085095D01*
X80100000Y-78996078D01*
X80100000Y-78950000D01*
X80103553Y-78950000D01*
X80649022Y-79495469D01*
X80724766Y-79353764D01*
X80784808Y-79155834D01*
X80805080Y-78950000D01*
X80784808Y-78744165D01*
X80724766Y-78546233D01*
X80649023Y-78404528D01*
X80103553Y-78949999D01*
X80103553Y-78950000D01*
X80100000Y-78950000D01*
X80100000Y-78903922D01*
X80076148Y-78814905D01*
X80030070Y-78735095D01*
X79964905Y-78669930D01*
X79885095Y-78623852D01*
X79796078Y-78600000D01*
X79703922Y-78600000D01*
X79614905Y-78623852D01*
X79535095Y-78669930D01*
X79469930Y-78735095D01*
X79423852Y-78814905D01*
X79400000Y-78903922D01*
X79400000Y-78996078D01*
X79350369Y-78996078D01*
X79396447Y-78950000D01*
X78850976Y-78404529D01*
X78850975Y-78404529D01*
X78775234Y-78546234D01*
X78715191Y-78744166D01*
X78694919Y-78950000D01*
X77349998Y-78950000D01*
X78249022Y-78050976D01*
X79204529Y-78050976D01*
X79750000Y-78596447D01*
X79750001Y-78596447D01*
X80295469Y-78050976D01*
X80295469Y-78050975D01*
X80153766Y-77975233D01*
X79955834Y-77915191D01*
X79750000Y-77894919D01*
X79544166Y-77915191D01*
X79346234Y-77975234D01*
X79204529Y-78050975D01*
X79204529Y-78050976D01*
X78249022Y-78050976D01*
X79671878Y-76628120D01*
X79703561Y-76605167D01*
X79708235Y-76602802D01*
X79735136Y-76583484D01*
X79760520Y-76569436D01*
X79761745Y-76568935D01*
X79813120Y-76529871D01*
X79815282Y-76528267D01*
X79992367Y-76400002D01*
X81394751Y-76400002D01*
X81413685Y-76568056D01*
X81469545Y-76727694D01*
X81469547Y-76727697D01*
X81559518Y-76870884D01*
X81559523Y-76870890D01*
X81679109Y-76990476D01*
X81679115Y-76990481D01*
X81822302Y-77080452D01*
X81822305Y-77080454D01*
X81822309Y-77080455D01*
X81822310Y-77080456D01*
X81894913Y-77105860D01*
X81981943Y-77136314D01*
X82149997Y-77155249D01*
X82150000Y-77155249D01*
X82150003Y-77155249D01*
X82318056Y-77136314D01*
X82318059Y-77136313D01*
X82477690Y-77080456D01*
X82477692Y-77080454D01*
X82477694Y-77080454D01*
X82477697Y-77080452D01*
X82620884Y-76990481D01*
X82620885Y-76990480D01*
X82620890Y-76990477D01*
X82740477Y-76870890D01*
X82815392Y-76751664D01*
X82830452Y-76727697D01*
X82830454Y-76727694D01*
X82830454Y-76727692D01*
X82830456Y-76727690D01*
X82886313Y-76568059D01*
X82886313Y-76568058D01*
X82886314Y-76568056D01*
X82905249Y-76400002D01*
X82905249Y-76399997D01*
X82886314Y-76231943D01*
X82831294Y-76074706D01*
X82830456Y-76072310D01*
X82830455Y-76072309D01*
X82830454Y-76072305D01*
X82830452Y-76072302D01*
X82740481Y-75929115D01*
X82740476Y-75929109D01*
X82620890Y-75809523D01*
X82620884Y-75809518D01*
X82477697Y-75719547D01*
X82477694Y-75719545D01*
X82318056Y-75663685D01*
X82150003Y-75644751D01*
X82149997Y-75644751D01*
X81981943Y-75663685D01*
X81822305Y-75719545D01*
X81822302Y-75719547D01*
X81679115Y-75809518D01*
X81679109Y-75809523D01*
X81559523Y-75929109D01*
X81559518Y-75929115D01*
X81469547Y-76072302D01*
X81469545Y-76072305D01*
X81413685Y-76231943D01*
X81394751Y-76399997D01*
X81394751Y-76400002D01*
X79992367Y-76400002D01*
X80451926Y-76067137D01*
X80456598Y-76063915D01*
X81112738Y-75633664D01*
X81117584Y-75630645D01*
X81792979Y-75231347D01*
X81797916Y-75228580D01*
X82491140Y-74861078D01*
X82496251Y-74858519D01*
X83205760Y-74523630D01*
X83210969Y-74521317D01*
X83935319Y-74219723D01*
X83940600Y-74217668D01*
X84678146Y-73950054D01*
X84683534Y-73948239D01*
X85432718Y-73715171D01*
X85438237Y-73713594D01*
X86197406Y-73515585D01*
X86202960Y-73514274D01*
X86970513Y-73351739D01*
X86976152Y-73350682D01*
X87750435Y-73223972D01*
X87756064Y-73223185D01*
X88535401Y-73132575D01*
X88541066Y-73132049D01*
X89323783Y-73077735D01*
X89329520Y-73077471D01*
X90113886Y-73059572D01*
X90119609Y-73059574D01*
G37*
%TD.AperFunction*%
%TD*%
M02*
