%TF.GenerationSoftware,KiCad,Pcbnew,8.0.1*%
%TF.CreationDate,2024-12-08T15:20:26+09:00*%
%TF.ProjectId,watch,77617463-682e-46b6-9963-61645f706362,rev?*%
%TF.SameCoordinates,Original*%
%TF.FileFunction,Legend,Bot*%
%TF.FilePolarity,Positive*%
%FSLAX46Y46*%
G04 Gerber Fmt 4.6, Leading zero omitted, Abs format (unit mm)*
G04 Created by KiCad (PCBNEW 8.0.1) date 2024-12-08 15:20:26*
%MOMM*%
%LPD*%
G01*
G04 APERTURE LIST*
%ADD10C,0.150000*%
%ADD11C,0.125000*%
%ADD12C,0.120000*%
G04 APERTURE END LIST*
D10*
X82403428Y-90141700D02*
X81260571Y-90141700D01*
X81831999Y-90713128D02*
X81831999Y-89570271D01*
D11*
X83759523Y-77463595D02*
X83302380Y-77463595D01*
X83530952Y-78263595D02*
X83530952Y-77463595D01*
X83035713Y-78263595D02*
X83035713Y-77463595D01*
X83035713Y-77463595D02*
X82730951Y-77463595D01*
X82730951Y-77463595D02*
X82654761Y-77501690D01*
X82654761Y-77501690D02*
X82616666Y-77539785D01*
X82616666Y-77539785D02*
X82578570Y-77615976D01*
X82578570Y-77615976D02*
X82578570Y-77730261D01*
X82578570Y-77730261D02*
X82616666Y-77806452D01*
X82616666Y-77806452D02*
X82654761Y-77844547D01*
X82654761Y-77844547D02*
X82730951Y-77882642D01*
X82730951Y-77882642D02*
X83035713Y-77882642D01*
X81854761Y-77463595D02*
X82235713Y-77463595D01*
X82235713Y-77463595D02*
X82273809Y-77844547D01*
X82273809Y-77844547D02*
X82235713Y-77806452D01*
X82235713Y-77806452D02*
X82159523Y-77768357D01*
X82159523Y-77768357D02*
X81969047Y-77768357D01*
X81969047Y-77768357D02*
X81892856Y-77806452D01*
X81892856Y-77806452D02*
X81854761Y-77844547D01*
X81854761Y-77844547D02*
X81816666Y-77920738D01*
X81816666Y-77920738D02*
X81816666Y-78111214D01*
X81816666Y-78111214D02*
X81854761Y-78187404D01*
X81854761Y-78187404D02*
X81892856Y-78225500D01*
X81892856Y-78225500D02*
X81969047Y-78263595D01*
X81969047Y-78263595D02*
X82159523Y-78263595D01*
X82159523Y-78263595D02*
X82235713Y-78225500D01*
X82235713Y-78225500D02*
X82273809Y-78187404D01*
X91459523Y-103863595D02*
X91002380Y-103863595D01*
X91230952Y-104663595D02*
X91230952Y-103863595D01*
X90735713Y-104663595D02*
X90735713Y-103863595D01*
X90735713Y-103863595D02*
X90430951Y-103863595D01*
X90430951Y-103863595D02*
X90354761Y-103901690D01*
X90354761Y-103901690D02*
X90316666Y-103939785D01*
X90316666Y-103939785D02*
X90278570Y-104015976D01*
X90278570Y-104015976D02*
X90278570Y-104130261D01*
X90278570Y-104130261D02*
X90316666Y-104206452D01*
X90316666Y-104206452D02*
X90354761Y-104244547D01*
X90354761Y-104244547D02*
X90430951Y-104282642D01*
X90430951Y-104282642D02*
X90735713Y-104282642D01*
X89592856Y-104130261D02*
X89592856Y-104663595D01*
X89783332Y-103825500D02*
X89973809Y-104396928D01*
X89973809Y-104396928D02*
X89478570Y-104396928D01*
X80309523Y-82163595D02*
X79852380Y-82163595D01*
X80080952Y-82963595D02*
X80080952Y-82163595D01*
X79585713Y-82963595D02*
X79585713Y-82163595D01*
X79585713Y-82163595D02*
X79280951Y-82163595D01*
X79280951Y-82163595D02*
X79204761Y-82201690D01*
X79204761Y-82201690D02*
X79166666Y-82239785D01*
X79166666Y-82239785D02*
X79128570Y-82315976D01*
X79128570Y-82315976D02*
X79128570Y-82430261D01*
X79128570Y-82430261D02*
X79166666Y-82506452D01*
X79166666Y-82506452D02*
X79204761Y-82544547D01*
X79204761Y-82544547D02*
X79280951Y-82582642D01*
X79280951Y-82582642D02*
X79585713Y-82582642D01*
X78366666Y-82963595D02*
X78823809Y-82963595D01*
X78595237Y-82963595D02*
X78595237Y-82163595D01*
X78595237Y-82163595D02*
X78671428Y-82277880D01*
X78671428Y-82277880D02*
X78747618Y-82354071D01*
X78747618Y-82354071D02*
X78823809Y-82392166D01*
X88059523Y-103863595D02*
X87602380Y-103863595D01*
X87830952Y-104663595D02*
X87830952Y-103863595D01*
X87335713Y-104663595D02*
X87335713Y-103863595D01*
X87335713Y-103863595D02*
X87030951Y-103863595D01*
X87030951Y-103863595D02*
X86954761Y-103901690D01*
X86954761Y-103901690D02*
X86916666Y-103939785D01*
X86916666Y-103939785D02*
X86878570Y-104015976D01*
X86878570Y-104015976D02*
X86878570Y-104130261D01*
X86878570Y-104130261D02*
X86916666Y-104206452D01*
X86916666Y-104206452D02*
X86954761Y-104244547D01*
X86954761Y-104244547D02*
X87030951Y-104282642D01*
X87030951Y-104282642D02*
X87335713Y-104282642D01*
X86573809Y-103939785D02*
X86535713Y-103901690D01*
X86535713Y-103901690D02*
X86459523Y-103863595D01*
X86459523Y-103863595D02*
X86269047Y-103863595D01*
X86269047Y-103863595D02*
X86192856Y-103901690D01*
X86192856Y-103901690D02*
X86154761Y-103939785D01*
X86154761Y-103939785D02*
X86116666Y-104015976D01*
X86116666Y-104015976D02*
X86116666Y-104092166D01*
X86116666Y-104092166D02*
X86154761Y-104206452D01*
X86154761Y-104206452D02*
X86611904Y-104663595D01*
X86611904Y-104663595D02*
X86116666Y-104663595D01*
X82209523Y-79813595D02*
X81752380Y-79813595D01*
X81980952Y-80613595D02*
X81980952Y-79813595D01*
X81485713Y-80613595D02*
X81485713Y-79813595D01*
X81485713Y-79813595D02*
X81180951Y-79813595D01*
X81180951Y-79813595D02*
X81104761Y-79851690D01*
X81104761Y-79851690D02*
X81066666Y-79889785D01*
X81066666Y-79889785D02*
X81028570Y-79965976D01*
X81028570Y-79965976D02*
X81028570Y-80080261D01*
X81028570Y-80080261D02*
X81066666Y-80156452D01*
X81066666Y-80156452D02*
X81104761Y-80194547D01*
X81104761Y-80194547D02*
X81180951Y-80232642D01*
X81180951Y-80232642D02*
X81485713Y-80232642D01*
X80761904Y-79813595D02*
X80266666Y-79813595D01*
X80266666Y-79813595D02*
X80533332Y-80118357D01*
X80533332Y-80118357D02*
X80419047Y-80118357D01*
X80419047Y-80118357D02*
X80342856Y-80156452D01*
X80342856Y-80156452D02*
X80304761Y-80194547D01*
X80304761Y-80194547D02*
X80266666Y-80270738D01*
X80266666Y-80270738D02*
X80266666Y-80461214D01*
X80266666Y-80461214D02*
X80304761Y-80537404D01*
X80304761Y-80537404D02*
X80342856Y-80575500D01*
X80342856Y-80575500D02*
X80419047Y-80613595D01*
X80419047Y-80613595D02*
X80647618Y-80613595D01*
X80647618Y-80613595D02*
X80723809Y-80575500D01*
X80723809Y-80575500D02*
X80761904Y-80537404D01*
D12*
%TO.C,TP5*%
X82850000Y-76400000D02*
G75*
G02*
X81450000Y-76400000I-700000J0D01*
G01*
X81450000Y-76400000D02*
G75*
G02*
X82850000Y-76400000I700000J0D01*
G01*
%TO.C,TP4*%
X91100000Y-105650000D02*
G75*
G02*
X89700000Y-105650000I-700000J0D01*
G01*
X89700000Y-105650000D02*
G75*
G02*
X91100000Y-105650000I700000J0D01*
G01*
%TO.C,TP1*%
X78350000Y-81550000D02*
G75*
G02*
X76950000Y-81550000I-700000J0D01*
G01*
X76950000Y-81550000D02*
G75*
G02*
X78350000Y-81550000I700000J0D01*
G01*
%TO.C,TP2*%
X88350000Y-105650000D02*
G75*
G02*
X86950000Y-105650000I-700000J0D01*
G01*
X86950000Y-105650000D02*
G75*
G02*
X88350000Y-105650000I700000J0D01*
G01*
%TO.C,TP3*%
X80450000Y-78950000D02*
G75*
G02*
X79050000Y-78950000I-700000J0D01*
G01*
X79050000Y-78950000D02*
G75*
G02*
X80450000Y-78950000I700000J0D01*
G01*
%TD*%
M02*
