%TF.GenerationSoftware,KiCad,Pcbnew,8.0.1*%
%TF.CreationDate,2024-12-08T15:20:26+09:00*%
%TF.ProjectId,watch,77617463-682e-46b6-9963-61645f706362,rev?*%
%TF.SameCoordinates,Original*%
%TF.FileFunction,Legend,Top*%
%TF.FilePolarity,Positive*%
%FSLAX46Y46*%
G04 Gerber Fmt 4.6, Leading zero omitted, Abs format (unit mm)*
G04 Created by KiCad (PCBNEW 8.0.1) date 2024-12-08 15:20:26*
%MOMM*%
%LPD*%
G01*
G04 APERTURE LIST*
%ADD10C,0.120000*%
%ADD11C,0.127000*%
%ADD12C,0.200000*%
%ADD13C,0.150000*%
G04 APERTURE END LIST*
D10*
%TO.C,R3*%
X84062742Y-79477500D02*
X84537258Y-79477500D01*
X84062742Y-80522500D02*
X84537258Y-80522500D01*
%TO.C,C1*%
X97759420Y-100840000D02*
X98040580Y-100840000D01*
X97759420Y-101860000D02*
X98040580Y-101860000D01*
%TO.C,C3*%
X97759420Y-102740000D02*
X98040580Y-102740000D01*
X97759420Y-103760000D02*
X98040580Y-103760000D01*
%TO.C,R5*%
X76762742Y-95477500D02*
X77237258Y-95477500D01*
X76762742Y-96522500D02*
X77237258Y-96522500D01*
D11*
%TO.C,RN1*%
X96800000Y-76200000D02*
X98600000Y-76200000D01*
X98600000Y-79600000D02*
X96800000Y-79600000D01*
D12*
X95900001Y-76399999D02*
G75*
G02*
X95700001Y-76399999I-100000J0D01*
G01*
X95700001Y-76399999D02*
G75*
G02*
X95900001Y-76399999I100000J0D01*
G01*
D10*
%TO.C,Q4*%
X97040000Y-95800000D02*
X97040000Y-97000000D01*
X98760000Y-96000000D02*
X98760000Y-96600000D01*
D13*
X97575000Y-97450000D02*
G75*
G02*
X97425000Y-97450000I-75000J0D01*
G01*
X97425000Y-97450000D02*
G75*
G02*
X97575000Y-97450000I75000J0D01*
G01*
D10*
%TO.C,C2*%
X82559420Y-102440000D02*
X82840580Y-102440000D01*
X82559420Y-103460000D02*
X82840580Y-103460000D01*
%TO.C,U4*%
X94306818Y-91500000D02*
G75*
G02*
X94093182Y-91500000I-106818J0D01*
G01*
X94093182Y-91500000D02*
G75*
G02*
X94306818Y-91500000I106818J0D01*
G01*
D11*
%TO.C,S4*%
X87900000Y-74500000D02*
X87900000Y-75500000D01*
X88750000Y-73400000D02*
X91250000Y-73400000D01*
X88750000Y-76600000D02*
X91250000Y-76600000D01*
X92100000Y-74500000D02*
X92100000Y-75500000D01*
X87211803Y-73850000D02*
G75*
G02*
X86988197Y-73850000I-111803J0D01*
G01*
X86988197Y-73850000D02*
G75*
G02*
X87211803Y-73850000I111803J0D01*
G01*
X87200000Y-73850000D02*
G75*
G02*
X87100000Y-73850000I-50000J0D01*
G01*
X87100000Y-73850000D02*
G75*
G02*
X87200000Y-73850000I50000J0D01*
G01*
D10*
%TO.C,Q2*%
X86240000Y-95800000D02*
X86240000Y-97000000D01*
X87960000Y-96000000D02*
X87960000Y-96600000D01*
D13*
X86775000Y-97450000D02*
G75*
G02*
X86625000Y-97450000I-75000J0D01*
G01*
X86625000Y-97450000D02*
G75*
G02*
X86775000Y-97450000I75000J0D01*
G01*
D10*
%TO.C,Q1*%
X81240000Y-95800000D02*
X81240000Y-97000000D01*
X82960000Y-96000000D02*
X82960000Y-96600000D01*
D13*
X81775000Y-97450000D02*
G75*
G02*
X81625000Y-97450000I-75000J0D01*
G01*
X81625000Y-97450000D02*
G75*
G02*
X81775000Y-97450000I75000J0D01*
G01*
D10*
%TO.C,D1*%
X104360000Y-95750000D02*
X101700000Y-95750000D01*
X104360000Y-97450000D02*
X101700000Y-97450000D01*
X104360000Y-97450000D02*
X104360000Y-95750000D01*
D11*
%TO.C,S2*%
X73400000Y-91250000D02*
X73400000Y-88750000D01*
X74500000Y-87900000D02*
X75500000Y-87900000D01*
X74500000Y-92100000D02*
X75500000Y-92100000D01*
X76600000Y-91250000D02*
X76600000Y-88750000D01*
X73900000Y-92850000D02*
G75*
G02*
X73800000Y-92850000I-50000J0D01*
G01*
X73800000Y-92850000D02*
G75*
G02*
X73900000Y-92850000I50000J0D01*
G01*
X73961803Y-92900000D02*
G75*
G02*
X73738197Y-92900000I-111803J0D01*
G01*
X73738197Y-92900000D02*
G75*
G02*
X73961803Y-92900000I111803J0D01*
G01*
D10*
%TO.C,R4*%
X100627500Y-99762742D02*
X100627500Y-100237258D01*
X101672500Y-99762742D02*
X101672500Y-100237258D01*
%TO.C,U1*%
X88862500Y-97615000D02*
X86662500Y-97615000D01*
X88862500Y-97615000D02*
X91062500Y-97615000D01*
X88862500Y-104385000D02*
X86662500Y-104385000D01*
X88862500Y-104385000D02*
X91062500Y-104385000D01*
X93052500Y-104165000D02*
X92722500Y-103925000D01*
X93052500Y-103685000D01*
X93052500Y-104165000D01*
G36*
X93052500Y-104165000D02*
G01*
X92722500Y-103925000D01*
X93052500Y-103685000D01*
X93052500Y-104165000D01*
G37*
D11*
%TO.C,S1*%
X103400000Y-91250000D02*
X103400000Y-88750000D01*
X104500000Y-87900000D02*
X105500000Y-87900000D01*
X104500000Y-92100000D02*
X105500000Y-92100000D01*
X106600000Y-91250000D02*
X106600000Y-88750000D01*
X103900000Y-92850000D02*
G75*
G02*
X103800000Y-92850000I-50000J0D01*
G01*
X103800000Y-92850000D02*
G75*
G02*
X103900000Y-92850000I50000J0D01*
G01*
X103961803Y-92900000D02*
G75*
G02*
X103738197Y-92900000I-111803J0D01*
G01*
X103738197Y-92900000D02*
G75*
G02*
X103961803Y-92900000I111803J0D01*
G01*
D10*
%TO.C,U5*%
X99306818Y-91500000D02*
G75*
G02*
X99093182Y-91500000I-106818J0D01*
G01*
X99093182Y-91500000D02*
G75*
G02*
X99306818Y-91500000I106818J0D01*
G01*
%TO.C,Q3*%
X92040000Y-95800000D02*
X92040000Y-97000000D01*
X93760000Y-96000000D02*
X93760000Y-96600000D01*
D13*
X92575000Y-97450000D02*
G75*
G02*
X92425000Y-97450000I-75000J0D01*
G01*
X92425000Y-97450000D02*
G75*
G02*
X92575000Y-97450000I75000J0D01*
G01*
D10*
%TO.C,U2*%
X83506818Y-91500000D02*
G75*
G02*
X83293182Y-91500000I-106818J0D01*
G01*
X83293182Y-91500000D02*
G75*
G02*
X83506818Y-91500000I106818J0D01*
G01*
%TO.C,U3*%
X88506818Y-91500000D02*
G75*
G02*
X88293182Y-91500000I-106818J0D01*
G01*
X88293182Y-91500000D02*
G75*
G02*
X88506818Y-91500000I106818J0D01*
G01*
D11*
%TO.C,Y1*%
X93800000Y-102100000D02*
X93800000Y-103100000D01*
X95400000Y-102100000D02*
X95400000Y-103100000D01*
%TO.C,RN2*%
X78950000Y-100500001D02*
X78950000Y-98699999D01*
X82350000Y-98699999D02*
X82350000Y-100500001D01*
D12*
X82250000Y-97700000D02*
G75*
G02*
X82050000Y-97700000I-100000J0D01*
G01*
X82050000Y-97700000D02*
G75*
G02*
X82250000Y-97700000I100000J0D01*
G01*
D10*
%TO.C,R1*%
X103262742Y-83977500D02*
X103737258Y-83977500D01*
X103262742Y-85022500D02*
X103737258Y-85022500D01*
%TD*%
M02*
